<?xml version="1.0" encoding="utf-8"?>
<!-- Generator: Adobe Illustrator 28.3.0, SVG Export Plug-In . SVG Version: 6.00 Build 0)  -->
<svg version="1.1" id="Calque_1" xmlns="http://www.w3.org/2000/svg" xmlns:xlink="http://www.w3.org/1999/xlink" x="0px" y="0px"
	 viewBox="0 0 174 48" style="enable-background:new 0 0 174 48;" xml:space="preserve">
<style type="text/css">
	.st0{clip-path:url(#SVGID_00000076565252482752570460000008887989974097009824_);}
	.st1{fill:none;stroke:#FFFFFF;stroke-miterlimit:10;}
	.st2{fill:#3A80FE;}
	.st3{fill:#FFFFFF;}
</style>
<g>
	<defs>
		<rect id="SVGID_1_" y="0" width="174" height="48"/>
	</defs>
	<clipPath id="SVGID_00000172403177787244063030000002874022504665097098_">
		<use xlink:href="#SVGID_1_"  style="overflow:visible;"/>
	</clipPath>
	<g style="clip-path:url(#SVGID_00000172403177787244063030000002874022504665097098_);">
		<path class="st1" d="M123.6,5.3H13.3c-5.4,0-9.8,4.4-9.8,9.9v17.6c0,5.5,4.4,9.9,9.8,9.9h110.3c5.4,0,9.8-4.4,9.8-9.9V15.2
			C133.4,9.7,129,5.3,123.6,5.3z"/>
		<path class="st2" d="M25.8,6.2c-4.6-2.1-10.7-1-14.7,1.7c-4,2.7-6.1,6.8-7,11c-0.9,4.1-0.6,8.3-0.5,12.5c0,2.8,0.1,5.8,2.6,7.8
			c1.7,1.3,4.2,1.8,6.5,2.2c45.4,7.2,92.4-0.4,138.5,2.2c3.2,0.2,6.5,0.4,9.6-0.1c3.1-0.5,6.2-1.9,7.6-4.2c1.7-2.7,0.7-5.9,0.6-8.9
			c-0.2-6.5,3.8-13.5-0.4-19c-3.2-4.1-9.8-5.6-15.8-6.3c-11.5-1.4-23.2-1.4-34.8-1.3c-16,0-32,0.1-47.9,0.9
			C53.6,5.2,36.9,6.8,20.5,4.8"/>
		<path class="st2" d="M26.7,2.8C21.3,0.5,14.4,1.5,9.5,4.7c-5.2,3.4-8.3,9-9.1,15.2c-0.5,3.5-0.4,7-0.3,10.5c0.1,3,0.1,6.1,1.6,8.8
			C5,45,13.5,45,19.3,45.7c28.1,3.6,56.5,2,84.7,1.2c14.1-0.4,28.3-0.7,42.4-0.1c6.7,0.3,14,1.5,20.3-1.7c2.7-1.4,5-3.8,5.8-6.8
			c0.7-3.1-0.2-6,0-9.1c0.2-5.9,2.9-11.6,0.4-17.4c-2.5-5.8-8.3-8.1-13.8-9.3c-6.6-1.5-13.5-1.8-20.2-2.1C131.8,0,124.6,0,117.4,0
			c-14.5,0-29,0.1-43.4,0.7c-14.5,0.6-28.6,2-43,1.5C27.5,2,24,1.7,20.5,1.3c-1.9-0.2-3.5,1.8-3.5,3.5c0,2.1,1.6,3.3,3.5,3.5
			c13.1,1.5,26.3,0.9,39.4,0.1C73,7.7,86.6,7.2,100,7.1C113.4,7,126.7,6.8,140,7.4c5.9,0.3,12.1,0.5,17.9,1.9
			c3.9,0.9,8.9,2.6,9.3,7.3c0.2,2.5-0.5,5-0.9,7.5c-0.5,2.8-0.7,5.5-0.4,8.4c0.2,2.1,0.7,4.4-1.3,5.8c-2.1,1.5-4.9,1.8-7.4,1.8
			c-6.4,0.1-12.9-0.6-19.3-0.7c-6.4-0.1-13.1-0.1-19.7,0c-26.1,0.5-52.2,2.3-78.3,1c-6.5-0.3-13-0.9-19.4-1.7c-3-0.4-6-0.7-8.9-1.3
			c-2.1-0.5-3.8-1-4.2-3.4c-0.5-2.6-0.3-5.4-0.3-8c0-2.9,0.2-5.7,1.1-8.5c1.5-4.6,5.3-7.9,10-8.7c2.3-0.4,4.6-0.1,6.8,0.8
			c1.7,0.7,3.8-0.8,4.3-2.5C29.7,5.1,28.5,3.5,26.7,2.8L26.7,2.8z"/>
		<path class="st3" d="M56,15.1c-0.3,4.2-0.4,8.3-0.3,12.5c0.1,2.1,0,4.4,0.5,6.5c0.6,2.5,2.9,3,5.1,3.1c3.7,0.3,8-0.5,11.1-2.5
			c1.7-1.1,3-2.8,3.2-4.9c0.2-2.1-0.9-4.1-2.1-5.6c-2.5-3.1-6.4-4.4-10.3-3.8l2.5,4.4c0.5-0.6,0.8-0.7,1.6-1c1-0.3,2-0.6,3-1
			c2.3-1.1,3.7-3.4,3.2-5.9c-0.9-5.6-7.4-5.7-11.8-6.1c-1.4-0.2-2.6,1.3-2.6,2.7c0,1.6,1.2,2.5,2.6,2.7c1.6,0.2,3.3,0.2,4.9,0.6
			c0.6,0.1,1.1,0.4,1.4,0.7c0.2,0.2,0.2,0.3,0.3,0.4c0.1,0.2-0.1,0.3,0,0c0.1-0.3-0.3,0.2,0,0c-0.2,0.2-0.3,0.3-0.1,0.1
			c-0.2,0.1-0.3,0.2-0.5,0.3c0.3-0.1-0.5,0.2-0.4,0.2c-0.4,0.1-0.8,0.2-1.1,0.3c-1.6,0.5-3.2,1.1-4.3,2.4c-1.7,2.1-0.1,4.8,2.5,4.4
			c-0.3,0,0.6,0,0.8,0c0.2,0,0.4,0,0.6,0c-0.2,0-0.2,0,0.2,0c0.7,0.2,1,0.3,1.6,0.6c1.1,0.6,1.8,1.2,2.3,2.3
			c0.1,0.3,0.3,0.5,0.3,0.9c0,0.4-0.1,0.4,0,0.2c-0.1,0.4-0.6,0.6-1,0.9c-1.4,0.8-3.1,1.3-4.7,1.5c-0.8,0.1-1.6,0.2-2.5,0.1
			c-0.4,0-0.7,0-1.1-0.1c-0.3,0-0.5,0-0.7-0.1c0.4-0.1,0.7,0.3,0.9,1c0,0.3,0,0.2,0-0.2c0-0.3-0.1-0.6-0.1-0.8
			c0-0.4-0.1-0.8-0.1-1.2c-0.1-1-0.1-2.1-0.2-3.1c-0.2-4.1-0.1-8.2,0.3-12.3c0.1-1.4-1.3-2.7-2.6-2.7C57.1,12.4,56.1,13.7,56,15.1
			L56,15.1z"/>
		<path class="st3" d="M84.1,13.2c-1.9,1.2-1.7,3.2-1.6,5.1c0.1,1.6,0.1,3.1,0.2,4.7c0.2,3.2,0.9,6.4,3.2,8.8c2.3,2.4,6,3.2,9.1,2.3
			c3.2-0.9,4.2-4.3,4.4-7.3c0.3-3.7,0.2-7.5-0.3-11.2c-0.2-1.4-1.1-2.7-2.6-2.7c-1.3,0.1-2.8,1.2-2.6,2.7c0.3,2.7,0.5,5.4,0.4,8.1
			c0,1.3-0.1,2.5-0.2,3.8c0-0.5,0-0.1,0,0.2c0,0.2-0.1,0.4-0.2,0.6c-0.1,0.2-0.1,0.4-0.2,0.6c0.2-0.5-0.1,0-0.2,0.2
			c-0.1,0.3,0.1-0.1,0.1-0.1c0,0-0.3,0.3,0,0.1c0.2-0.2,0,0-0.1,0c0.1,0,0.5-0.1,0.1-0.1c-0.1,0-0.3,0.1-0.4,0.1c0.1,0,0.3,0,0,0
			c-0.3,0-0.6,0-1,0c-0.2,0-0.4,0-0.5,0c0,0-0.4,0-0.2,0c0.1,0-0.4-0.1-0.6-0.1c-0.1,0-0.3-0.1-0.4-0.1c0.3,0.1,0,0,0,0
			c-0.3-0.1-0.5-0.3-0.7-0.4c0.3,0.2-0.1-0.1-0.2-0.2c-0.2-0.2-0.3-0.3-0.5-0.5c0.3,0.3-0.1-0.1-0.2-0.2c-0.2-0.2-0.3-0.5-0.4-0.7
			c-0.1-0.1-0.1-0.2-0.2-0.3c0,0.1,0.1,0.4,0,0.1c-0.1-0.3-0.2-0.5-0.3-0.8c-0.1-0.3-0.1-0.6-0.2-0.8c0-0.1-0.2-0.9-0.1-0.6
			c-0.2-1.4-0.2-2.9-0.3-4.3c0-0.7-0.1-1.4-0.1-2.1c0-0.4,0-0.7,0-1.1c0-0.1,0-0.3,0-0.4c-0.1-0.2-0.2,0.5,0,0.1L87,17.6l-0.3,0.2
			c1.2-0.7,1.7-2.4,0.9-3.6C86.8,12.9,85.3,12.4,84.1,13.2L84.1,13.2z"/>
		<path class="st3" d="M105.9,14.5c-0.2,2.7-0.2,5.9,1,8.5c1.1,2.5,3.4,3.7,5.9,4c2.9,0.4,5.8,0.3,7.4-2.5c1.6-2.5,1.7-5.8,1.2-8.6
			c-0.4-2.9-5.5-2.3-5.1,0.7c0.3,2.3-0.3,4.4-0.8,6.7c-0.5,2.4-0.8,4.9-0.7,7.4c0,1.2,0.1,2.3,0.2,3.5c0,0.3,0.1,0.5,0.1,0.7
			c0,0.1,0,0.3,0,0.4c0,0.2,0,0.3,0,0c0.3-0.3-0.4,0.1-0.4,0.1c-1.1,0.5-2.7,0.7-3.7,0c-1.1-0.9-2.6-1.1-3.7,0
			c-0.9,0.9-1.1,2.8,0,3.7c2.3,1.9,5.1,2.5,8,1.7c3-0.8,5.2-3,5-6.3c-0.2-2.9-0.4-5.7,0.1-8.6c0.5-3.1,1.6-6.2,1.2-9.3l-5.1,0.7
			c0.2,1.3,0.1,3.1-0.5,4.3c-0.3,0.5-0.2,0.4-0.9,0.4c-0.7,0-1.2-0.1-1.8-0.2c-0.6-0.1-1-0.2-1.4-0.6c0.2,0.1-0.2-0.3-0.1-0.2
			c-0.2-0.3-0.2-0.7-0.3-1.1c-0.3-1.7-0.3-3.6-0.2-5.3c0.1-1.4-1.3-2.7-2.6-2.7C107,11.8,106,13,105.9,14.5L105.9,14.5z"/>
	</g>
</g>
</svg>
