<?xml version="1.0" encoding="utf-8"?>
<!-- Generator: Adobe Illustrator 28.3.0, SVG Export Plug-In . SVG Version: 6.00 Build 0)  -->
<svg version="1.1" id="Calque_1" xmlns="http://www.w3.org/2000/svg" xmlns:xlink="http://www.w3.org/1999/xlink" x="0px" y="0px"
	 viewBox="0 0 114 31" style="enable-background:new 0 0 114 31;" xml:space="preserve">
<style type="text/css">
	.st0{clip-path:url(#SVGID_00000003064319634192248410000004411662493146973341_);}
	.st1{fill:#343230;}
</style>
<g>
	<defs>
		<rect id="SVGID_1_" y="0" width="113.3" height="30.4"/>
	</defs>
	<clipPath id="SVGID_00000002381458617534045660000015078768585697006768_">
		<use xlink:href="#SVGID_1_"  style="overflow:visible;"/>
	</clipPath>
	<g style="clip-path:url(#SVGID_00000002381458617534045660000015078768585697006768_);">
		<path class="st1" d="M17.8,1.8C13.4,2.3,8.2,3.2,4.7,6.1C3,7.5,2,9.6,1.2,11.7c-0.8,2-1.3,4.1-1.1,6.3c0.5,4.2,3,8,6.7,10.1
			c3.9,2.3,8.5,2.7,12.9,2c1.3-0.2,2.1-1.9,1.8-3.1c-0.4-1.4,1.3-0.2,0,0C16,27.9,5.7,23.9,5,17.6c-0.2-1.5,0.2-3,0.8-4.3
			C6.4,12,7,10.7,8,9.8c1.2-1,3-1.5,4.5-1.9C14.2,7.4,16,7,17.8,6.7c1.3-0.2,2.5-1,2.5-2.5C20.3,3,19.1,1.6,17.8,1.8L17.8,1.8z"/>
		<path class="st1" d="M28.3,2.7c-0.1,8.1-0.1,16.1,0.1,24.2c0,1.3,1.1,2.5,2.5,2.5c1.5,0,2.3-1.2,2.5-2.5c0.3-2.2,0.5-4.4,0.9-6.5
			c0.1-0.6,0.1-1.7,0.5-2.3c0.4-0.5,0.7-0.4,1.3-0.4c0.5,0,1.2-0.2,1.6,0.1c0.5,0.4,0.7,1.4,0.8,2c0.5,2.2,0.8,4.4,0.8,6.6
			c0,3.2,5,3.2,5,0c0-3-0.3-6.3-1.3-9.1c-0.5-1.3-1.1-2.5-2.3-3.4c-1.3-1-3-1.2-4.6-1.2c-1.6,0.1-3.2,0.3-4.4,1.4
			c-1,0.9-1.6,2.1-2,3.4c-0.8,3.1-1,6.3-1.4,9.4h5c-0.2-8.1-0.2-16.1-0.1-24.2C33.3-0.5,28.3-0.5,28.3,2.7L28.3,2.7z"/>
		<path class="st1" d="M54.3,25.3c-0.7-4.1-1-8.3-1.1-12.5c0-2.2,0-4.4,0.2-6.6c0-0.3,0.3-1-0.1-0.6c0.2-0.2,0.4-0.3,0.6-0.4
			C54.4,5,55,5,55.5,5c3.1,0.5,4.4,4.2,4.6,6.9c0.4,4.2,0.1,8.6,0,12.8c0,3.2,5,3.2,5,0c0-4,0.3-8.1,0-12.1c-0.2-3.6-1.2-7.4-3.9-10
			C58.5,0,54.2-1,51,1.1c-2,1.3-2.4,3-2.6,5.2c-0.1,2.1-0.2,4.1-0.2,6.2c0,4.7,0.5,9.4,1.3,14.1c0.2,1.3,1.9,2.1,3.1,1.8
			C54,28,54.6,26.6,54.3,25.3L54.3,25.3z"/>
		<path class="st1" d="M52.5,18.1c1-0.3,2-0.5,3.1-0.6l-0.7,0.1c1.7-0.2,3.4-0.3,5.2-0.1c0.6,0.1,1.4-0.3,1.8-0.7
			c0.4-0.4,0.8-1.1,0.7-1.8c0-0.6-0.2-1.3-0.7-1.8c-0.5-0.5-1.1-0.7-1.8-0.7c-3-0.3-6,0-8.9,0.8c-1.3,0.4-2.2,1.8-1.8,3.1
			C49.8,17.6,51.1,18.4,52.5,18.1L52.5,18.1z"/>
		<path class="st1" d="M68.7,3.1l-0.2,22.8h5c-0.1-3.7,0.2-7.3,0.9-10.9c0.5-2.2,1.3-5.3,4.2-4.7c1.3,0.3,2.7-0.4,3.1-1.8
			c0.3-1.2-0.4-2.8-1.8-3.1c-2.1-0.4-4.3-0.2-6.2,1s-3.1,3.2-3.7,5.3c-1.3,4.5-1.6,9.4-1.5,14.1c0.1,3.2,5,3.2,5,0l0.2-22.8
			C73.8-0.1,68.8-0.1,68.7,3.1L68.7,3.1z"/>
		<path class="st1" d="M95.2,7.9c0,6.2,0,12.4,0,18.6c0,3.2,5,3.2,5,0c0-6.2,0-12.4,0-18.6C100.2,4.7,95.2,4.7,95.2,7.9z"/>
		<path class="st1" d="M88.4,6.5c7.5,0,15,0.3,22.4,1c1.3,0.1,2.5-1.2,2.5-2.5c0-1.4-1.2-2.4-2.5-2.5c-7.4-0.7-14.9-1-22.4-1
			C85.2,1.5,85.2,6.5,88.4,6.5z"/>
	</g>
</g>
</svg>
