<?xml version="1.0" encoding="utf-8"?>
<!-- Generator: Adobe Illustrator 28.3.0, SVG Export Plug-In . SVG Version: 6.00 Build 0)  -->
<svg version="1.1" id="Calque_1" xmlns="http://www.w3.org/2000/svg" xmlns:xlink="http://www.w3.org/1999/xlink" x="0px" y="0px"
	 viewBox="0 0 870.5 816" style="enable-background:new 0 0 870.5 816;" xml:space="preserve">
<style type="text/css">
	.st0{clip-path:url(#SVGID_00000150822117803048491070000009038867360299703686_);}
	.st1{fill:#A6C2FA;}
	.st2{fill:none;stroke:#000000;stroke-width:4;stroke-miterlimit:10;}
	.st3{fill:#A6C2FA;stroke:#000000;stroke-width:4;stroke-miterlimit:10;}
	.st4{fill:#3A80FE;stroke:#000000;stroke-width:4;stroke-miterlimit:10;}
	.st5{fill:#FAD8D9;stroke:#010101;stroke-width:4;stroke-miterlimit:10;}
	.st6{fill:#E31919;}
	.st7{fill:none;stroke:#010101;stroke-width:4;stroke-miterlimit:10;}
	.st8{fill:#010101;}
	.st9{fill:#F6A032;stroke:#000000;stroke-width:3;stroke-miterlimit:10;}
	.st10{fill:#FFFFFF;stroke:#000000;stroke-width:4;stroke-miterlimit:10;}
	.st11{stroke:#000000;stroke-width:4;stroke-miterlimit:10;}
	.st12{fill:#533217;stroke:#000000;stroke-width:4;stroke-miterlimit:10;}
	.st13{fill:#79471E;stroke:#000000;stroke-width:4;stroke-miterlimit:10;}
	.st14{fill:#FFFFFF;}
	.st15{fill:#7F9395;stroke:#000000;stroke-miterlimit:10;}
	.st16{fill:#F2F2F2;}
</style>
<g>
	<defs>
		<rect id="SVGID_1_" x="17.5" y="0" width="853" height="816"/>
	</defs>
	<clipPath id="SVGID_00000015313654266014296820000006538273635871074708_">
		<use xlink:href="#SVGID_1_"  style="overflow:visible;"/>
	</clipPath>
	<g style="clip-path:url(#SVGID_00000015313654266014296820000006538273635871074708_);">
		<path d="M243.5,87.7c-16.1-0.5,28.7-83.9-25-83.5c-53.7,0.4-201.1,14.5-201,45.7c-4.3,30-5.7,449.8,77.7,457.9
			c83.4,8.1,210.2,56.7,206.4,16.3c-3.9-40.4-7.4-105.2-7.4-105.2S263.3,88.4,243.5,87.7L243.5,87.7z"/>
		<path class="st1" d="M404.8,194.2c3.8-2.2-115.1-26.8-120.5-18.2c-5.4,8.6-15.3,22.4-50.3,52.3c-35,29.9-124.4,182-58.2,204.6
			c93,31.9,181.4,60.5,232.3,22.3c43.3-32.4,95.8-127.7,81.2-162.3c-14.7-34.6-85.6-99.7-85.6-99.7"/>
		<path class="st2" d="M404.8,194.2c3.8-2.2-115.1-26.8-120.5-18.2c-5.4,8.6-15.3,22.4-50.3,52.3c-35,29.9-124.4,182-58.2,204.6
			c93,31.9,181.4,60.5,232.3,22.3c43.3-32.4,95.8-127.7,81.2-162.3c-14.7-34.6-85.6-99.7-85.6-99.7"/>
		<path class="st3" d="M456.7,9.3c-83-8-81.8,20.6-101.4,33.6c-19.5,13-7.8,18.3-10,37.7c-2.1,19.4-11.3,15.5-23.6,28.6
			c-12.3,13.2-16.4,36.7-32,58.2c-15.5,21.4-3.7,19.5,3.1,32.4c6.8,12.9,20.6,6.8,33.3,6.4c12.7-0.4,23.1-1.1,37.3-20.6
			c9.6-13.2-3.5-26.3,34.5-35.5c19.1-4.6,16-14.5,48.8-22.7c30.8-7.7,58.2-38.4,64.7-61.8c6.5-23.4-1-19.1-9.3-30.3
			C494,24.1,459,9.6,456.7,9.3z"/>
		<path class="st3" d="M495.7,44.6c28.7,15.8-38.8,62.2-38.8,62.2s-3.3,4.9-8.2,7.8c-4.9,2.9-16.2,0.5-24.1-10.8
			c-7.9-11.3,6.6-34.9,13.7-40.2c7.1-5.2,18.2,3.9,18.2,1c-0.1-2.8-6.9-14,9.5-25.2C482.4,28.1,495.7,44.5,495.7,44.6L495.7,44.6z"
			/>
		<path d="M457.4,32.3c1-0.5,1.6-1.5,1.2-2.6c-0.4-0.9-1.6-1.6-2.6-1.2c-1.8,0.9-2.5,2.7-3.3,4.5c-0.8,1.8-1.7,3.5-2.5,5.3
			c-1.6,3.5-3.7,7-4.5,10.7l3.8-0.4c-0.4-1.8,0.1-3.8,0.3-5.6s0.6-3.7,1-5.5c0.4-1.8,0.8-3.6,1.3-5.4c0.2-0.8,0.4-1.6,0.7-2.3
			c0.1-0.2,0.3-0.5,0.4-0.7c-0.1-0.1,0-0.1,0.2-0.1c-0.4,0.1-0.4,0.1,0,0.1l-2.1-2.3c-1,3.6-2,7.1-3,10.7l3.8-0.4
			c-1-3.1-0.5-6.3,1-9.1l-3.4,0.3l0.5,0.7l2.9-2.7l-0.1-0.1l0.6,0.8l-0.4,1.4l-1,0.4c0.4-0.1,0.8,0.3,1.2,0.5c0.4,0.1,0,0.1,0.2,0
			c0.1-0.1,0.1-0.3,0.3-0.4c0.3-0.1,0.7,0,0.7-0.2c0,0-0.5-0.6-0.5-0.5c0,0.8-0.2,1.1-0.5,0.9c0,0,0,0,0.1,0c0.1,0,0.3,0,0.4,0
			c0.2,0.1,0.4,0.2,0.5,0.4c0.3,0.5,0,0.9-0.4,1.3c-0.8,0.8-0.5,2.2,0.3,2.8c0.9,0.7,2,0.5,2.8-0.3c2.7-2.7,1.2-7.4-2.5-8.1
			c-1.6-0.3-3.7,0.1-4.5,1.9c-0.7,1.7,0.3,3.6,1.6,4.8c1.4,1.2,3.6,1.3,4.8-0.3c1-1.4,0.8-3.3-0.3-4.5c-1.1-1.2-3.2-2.3-4.9-2
			c-2.2,0.4-3,3.2-1.3,4.6c1.7,1.4,4.3-0.9,2.9-2.7l-0.5-0.7c-1-1.2-2.7-1-3.4,0.3c-2.1,3.7-2.4,8.1-1.1,12.2c0.3,0.8,1.2,1.4,2,1.3
			c0.9-0.1,1.5-0.8,1.8-1.6c1-3.6,2-7.1,3-10.7c0.4-1.3-1-2.4-2.1-2.3c-2.2,0.2-3.5,2-4.2,4c-0.7,2.2-1.3,4.4-1.8,6.7
			c-0.5,2.3-0.9,4.6-1.3,6.9c-0.3,2.5-0.7,4.9-0.1,7.3c0.2,0.8,1.2,1.4,2,1.3c0.9-0.1,1.6-0.8,1.8-1.6c0.4-1.6,1.1-3,1.8-4.4
			c0.7-1.5,1.4-3.1,2.1-4.6c0.7-1.5,1.4-3.1,2.1-4.6c0.4-0.8,0.8-1.7,1.2-2.5c0.2-0.3,0.3-0.7,0.5-1
			C457.3,32.4,457.7,32.1,457.4,32.3L457.4,32.3z"/>
		<path d="M437.8,58.8c2.5-0.2,2.2-4.1-0.4-4c-2.4,0.2-4.6,1.1-6.8,2c-2.2,0.9-4.3,1.8-6.5,2.7c-2.3,0.9-4.6,1.7-6.9,2.4
			c-1.1,0.3-2.2,0.7-3.3,1c-0.5,0.2-1.1,0.3-1.7,0.5c-0.1,0-0.3,0-0.4,0.1c-0.2,0.1-0.1,0,0.2,0.1l-1.6,3.5c1.5,0.1,2.9-0.2,4-1.2
			c0.9-0.8,1.3-2.3,0.1-3.1c-1.6-1.1-3.3-1.4-5.2-0.9l2.6,1.2c0.5,1.3-0.2,0.5,0.1,0.4c0.2,0,0.4-0.3,0.5-0.4
			c0.4-0.3,0.9-0.5,1.3-0.7c0.9-0.4,1.9-0.8,2.9-1.1c2-0.6,4.1-0.9,6.2-1.2c4.8-0.8,9.6-1.5,14.4-2.3c2.5-0.4,2.2-4.3-0.4-4
			c-4.3,0.6-8.9,0.4-13,1.4s-7.8,3.1-11.5,5.3c-1.7,1-0.6,3.9,1.4,3.6c3.3-0.6,6.6-1.2,9.9-1.8c1.1-0.2,1.9-1,1.8-2.2
			c-0.1-1-1.1-2-2.2-1.8c-3.3,0.6-6.6,1.2-9.9,1.8l1.4,3.6c3.2-2,6.5-4,10.3-4.8c4-0.9,8.2-0.6,12.3-1.2l-0.4-4
			c-5.6,0.9-11.2,1.8-16.9,2.7c-2.6,0.4-5.2,1-7.6,2.1c-2.2,1-5.3,2.9-4.2,5.8c0.4,1.1,1.5,1.4,2.6,1.2c0.4-0.1,0.9,0,1.2,0.2
			l0.1-3.1c-0.3,0.3-0.6,0.5-1,0.5c-0.9-0.1-1.8,0.3-2.1,1.1c-0.4,0.8-0.2,1.9,0.5,2.4c2.1,1.5,4.7,0.3,7-0.3
			c2.4-0.7,4.8-1.5,7.3-2.4c2.5-0.9,4.9-1.9,7.3-2.9C433.3,60.1,435.4,59,437.8,58.8L437.8,58.8L437.8,58.8z"/>
		<path class="st4" d="M499.1,69.8c-37.3,10.7-40.5,32.6-34.8,36.9c5.7,4.3,29.9,9,41.2,7.9c11.3-1.1-6.6-20.4,1.1-21.4
			c7.7-1,12-1.2,18-3.5c6-2.4,1.9-11.2-1.9-20.1C518.9,60.7,499.1,69.8,499.1,69.8L499.1,69.8z"/>
		<path class="st4" d="M399.4,22c-18.3,0.5-51.3,71.9-62.7,78.3c-11.4,6.4-9.7-22.1-13.2-32.8c-3.5-10.7-3.1-25.9,2-31.5
			c5.2-5.5-3.7-19.2,12.1-31.5C353.6-7.7,399.4,22,399.4,22L399.4,22z"/>
		<path class="st5" d="M476.4,44.9c-21.6,0.5-13.4,27.3-8,33.8c5.3,6.5,20.6-4.9,26.9-14.9C501.5,53.7,478.9,44.8,476.4,44.9
			L476.4,44.9z"/>
		<path class="st6" d="M480.7,62.9c-0.6,0.2-0.3,1.1,0.4,0.9c0.1,0,0.4-0.2,0.5,0c0.1,0.1,0,0.6-0.1,0.8c-0.1,0.5-0.3,1-0.5,1.6
			c-0.3,0.8-0.6,1.8,0.5,2.2c0.5,0.2,0.9,0.2,0.8,0.8c-0.1,0.5-0.2,1-0.1,1.5c0.1,0.5,0.5,0.9,0.7,1.4c0.2,0.5,0.3,1.1,0.3,1.6
			c0,0.6,1,0.5,1-0.1c0-0.6-0.1-1.3-0.4-1.9c-0.3-0.6-0.8-1.1-0.7-1.8c0.1-0.6,0.2-1.1,0-1.6c-0.2-0.5-0.6-0.6-1.1-0.8
			c-0.1,0-0.3-0.1-0.3-0.1c-0.1-0.1,0-0.4,0.1-0.5c0.1-0.3,0.2-0.6,0.4-0.9c0.2-0.6,0.4-1.1,0.4-1.7c0-0.5,0-1-0.5-1.3
			C481.6,62.6,481.1,62.7,480.7,62.9L480.7,62.9z"/>
		<path class="st6" d="M481.9,60.1c-0.6-0.1-0.8,0.9-0.2,1c0.9,0.2,1.4-0.6,2.2-0.8c0.9-0.2,1.4,0.6,2.2,0.7
			c0.8,0.1,1.2-0.5,1.8-0.9c0.4-0.3,0.8-0.4,1.3-0.4c0.3,0,1-0.1,1.3,0l-0.3-0.3c0-0.2,0-0.2-0.1-0.1c0,0.1-0.1,0.1-0.1,0.2
			c-0.1,0.1-0.1,0.3-0.2,0.4c0,0.2,0.1,0.4,0.3,0.5c0.7,0.3,1.4,0.4,2.1,0.3c0.4-0.1,0.7-0.2,1-0.4c0.4-0.2,0.7-0.6,1.2-0.5
			c0.6,0,0.8-0.9,0.2-1c-0.8,0-1.2,0.4-1.9,0.7c-0.7,0.4-1.5,0.3-2.2,0l0.3,0.5c0-0.3,0.4-0.5,0.4-0.8c0-0.4-0.3-0.6-0.6-0.7
			c-0.9-0.2-2.2,0-3,0.5c-0.4,0.2-0.9,0.9-1.3,0.9c-0.3,0-0.5-0.3-0.7-0.4c-0.2-0.1-0.4-0.2-0.7-0.3c-0.5-0.1-1-0.1-1.4,0.1
			C483,59.5,482.4,60.2,481.9,60.1L481.9,60.1L481.9,60.1z"/>
		<path class="st6" d="M486.3,59.5L486.3,59.5c0.2,0.6,1.1,0.3,0.9-0.3c-0.2-0.7-0.1-1.5,0.2-2.1c0.2-0.3,0.4-0.6,0.7-0.8
			c0.3-0.3,0.5-0.6,0.3-1c-0.1-0.2-0.2-0.4-0.4-0.5c-0.1-0.1-0.3-0.1-0.4-0.2c-0.2-0.2,0-0.6,0-0.9c0.1-0.4,0.2-0.7,0.5-0.9
			c0.3-0.3,0.5-0.5,0.4-0.9c-0.1-0.6-1.1-0.5-1,0.1c0-0.1,0-0.1,0,0l0,0c-0.1,0.1-0.2,0.1-0.2,0.2c-0.1,0.1-0.2,0.3-0.3,0.5
			c-0.2,0.3-0.3,0.8-0.4,1.1c-0.1,0.4-0.1,0.7,0.1,1.1c0.1,0.2,0.2,0.3,0.3,0.5c0.1,0.1,0.3,0.3,0.5,0.3c0.1,0.1,0.1,0,0.1-0.2
			l-0.1,0.1c-0.1,0.1-0.2,0.2-0.2,0.2c-0.1,0.1-0.2,0.3-0.3,0.4c-0.2,0.3-0.4,0.7-0.5,1.1C486.1,58,486.1,58.7,486.3,59.5
			L486.3,59.5z"/>
		<path class="st6" d="M476.8,58.3c0.6,0.1,0.8-0.9,0.2-1c-0.4,0-0.9-0.1-1.3-0.3c-0.2-0.1-0.3-0.1-0.3-0.2c0-0.1,0.2-0.3,0.3-0.3
			c0.4-0.4,0.6-1,0.2-1.5c-0.3-0.4-0.9-0.5-1.2-0.9c-0.3-0.4-0.5-0.9-0.8-1.3c-0.3-0.4-0.7-0.7-1.2-0.8c-0.6-0.1-1.4,0.4-1.9-0.2
			c-0.5-0.6,0-1.3-0.1-2c-0.1-0.6-0.6-0.9-1.1-1.2l0.3,0.5c0-0.2,0-0.4,0-0.6c0-0.6-0.9-0.8-1-0.2c0,0.2,0,0.4,0,0.6
			c0,0.2,0.1,0.4,0.3,0.5c0.3,0.2,0.5,0.3,0.5,0.6c-0.1,0.4-0.1,0.7-0.1,1.1c0.1,0.6,0.4,1.2,0.9,1.6c0.6,0.4,1.2,0.2,1.8,0.1
			c0.6-0.1,0.8,0.4,1.1,0.8c0.3,0.4,0.5,0.9,0.9,1.2c0.2,0.2,0.6,0.2,0.7,0.4c0.1,0.1,0.1,0.1,0,0.3c-0.1,0.1-0.2,0.2-0.3,0.3
			c-0.4,0.5-0.5,1.1,0,1.6C475.3,58.1,476.2,58.2,476.8,58.3L476.8,58.3z"/>
		<path class="st6" d="M471.5,53.6L471.5,53.6c0.6-0.2,0.3-1.2-0.3-0.9c-0.4,0.2-0.6,0.5-0.9,0.8c-0.3,0.4-0.6,0.6-1,0.7
			c-0.4,0.1-0.8,0.2-1,0.6c-0.2,0.3-0.3,0.7-0.6,1s-0.6,0.6-1,0.8c-0.4,0.2-0.8,0.3-1.1,0.6c-0.3,0.4-0.7,2.2-1.5,1.9
			c-0.6-0.2-1,0.7-0.4,0.9c1,0.3,1.8-0.3,2.2-1.2c0.1-0.2,0.2-0.5,0.3-0.7c0.1-0.3,0.2-0.4,0.5-0.5c0.4-0.2,0.8-0.3,1.2-0.6
			c0.4-0.3,0.7-0.6,0.9-1c0.1-0.2,0.2-0.4,0.3-0.6c0.1-0.2,0.2-0.2,0.4-0.3c0.5-0.1,0.9-0.3,1.2-0.6
			C470.9,54.3,471.2,53.8,471.5,53.6L471.5,53.6z"/>
		<path class="st6" d="M475.3,64c0.6-0.3,0.2-1.2-0.3-0.9l-2,0.9c-0.5,0.3-1.2,0.5-1.6,0.9c-0.8,0.7,0,2-0.9,2.6
			c-0.4,0.3-0.9,0.4-1.3,0.6c-0.5,0.3-0.8,0.6-0.9,1.2c-0.1,0.3-0.1,0.5-0.3,0.7c-0.2,0.2-0.4,0.4-0.6,0.5c-0.4,0.4-0.8,0.8-1,1.3
			c-0.3,0.6,0.6,1,0.9,0.4c0.5-1,1.6-1.4,1.9-2.4c0.1-0.2,0.1-0.5,0.2-0.7c0.1-0.2,0.4-0.3,0.6-0.3c0.4-0.2,0.9-0.4,1.2-0.6
			c0.4-0.3,0.6-0.6,0.7-1c0.1-0.4-0.1-1,0.1-1.4c0.1-0.3,0.4-0.3,0.7-0.5l0.9-0.4L475.3,64L475.3,64z"/>
		<path class="st6" d="M469,68.2L469,68.2c0.4,0.5,1.2,0,0.8-0.6c-0.6-0.8-1.6-1.1-2.5-0.8c-0.1,0-0.2,0-0.3,0.1c-0.1,0-0.1,0,0,0
			c0.1,0,0,0,0,0c-0.2-0.2-0.3-0.4-0.6-0.5c-0.5-0.2-1.1,0-1.5,0.1c-0.3,0-0.5,0.3-0.4,0.5c0,0.2,0.3,0.5,0.5,0.4
			c0.3,0,0.5-0.1,0.7-0.1c0.1,0,0.3-0.1,0.3,0c0.1,0,0.1,0.1,0.2,0.2c0.1,0.1,0.2,0.2,0.3,0.2c0.2,0.1,0.5,0.2,0.7,0.1
			c0.2,0,0.4-0.1,0.6-0.2c0.2,0,0.3,0,0.5,0C468.6,67.7,468.8,67.9,469,68.2L469,68.2z"/>
		<path class="st6" d="M480.8,68.2c0.6,0,0.5-1-0.1-1c-0.5,0-1,0.3-1.2,0.8c-0.1,0.3,0,0.5-0.1,0.8c0,0.2-0.2,0.3-0.3,0.4
			c-0.4,0.3-0.8,0.5-1.1,1c-0.3,0.5-0.6,1.1-0.8,1.6c-0.2,0.6-0.4,1.2-0.4,1.8c0,0.3,0,0.6,0.1,0.9c0.1,0.3,0.3,0.6,0.2,0.9
			c-0.1,0.2-0.4,0.3-0.6,0.5c-0.2,0.2-0.3,0.4-0.3,0.6c-0.2,0.5-0.1,1,0.1,1.5c0.3,0.6,1.2,0.2,0.9-0.3c-0.2-0.4-0.1-0.9,0.2-1.2
			c0.3-0.3,0.7-0.5,0.8-1c0.1-0.5-0.2-0.9-0.3-1.4c-0.1-0.6,0-1.1,0.2-1.7c0.2-0.5,0.4-1.1,0.7-1.6c0.2-0.4,0.6-0.6,0.9-0.8
			c0.3-0.2,0.6-0.5,0.7-0.8C480.5,69,480.2,68.2,480.8,68.2L480.8,68.2z"/>
		<path class="st6" d="M477,73.7c0.5-0.3,0-1.1-0.6-0.8c-0.6,0.3-1.4,0.1-2.1,0.3c-0.8,0.3-0.9,0.9-1.4,1.5
			c-0.1,0.1-0.2,0.3-0.3,0.3c-0.2,0-0.4-0.1-0.5-0.1c-0.4,0-0.8,0.1-1.1,0.3c-0.4,0.2-0.7,0.6-1,0.9c-0.3,0.3-0.7,0.6-1,0.9
			c-0.5,0.4,0.1,1.2,0.6,0.8c0.4-0.3,0.7-0.7,1.1-1c0.3-0.3,0.6-0.6,1-0.8c0.4-0.2,0.7,0.1,1.1,0c0.3,0,0.6-0.2,0.9-0.5
			c0.5-0.5,0.6-1.3,1.3-1.5C475.7,74,476.3,74.1,477,73.7L477,73.7z"/>
		<path class="st6" d="M478.7,57.7c-0.2,0.6,0.8,0.8,1,0.2c0.3-1,0.6-1.8,1.3-2.5c0.7-0.7,0.6-1.4,0-2.1c-0.3-0.4-0.6-0.7-0.5-1.2
			c0.1-0.5,0.3-0.9,0.5-1.4c0.1-0.4,0.2-1.1,0.6-1.4c0.3-0.2,0.7-0.3,0.6-0.8c-0.1-0.6-1.1-0.5-1,0.1v0.1l0.1-0.4
			c0,0-0.2,0.1-0.2,0.1c-0.1,0.1-0.2,0.1-0.3,0.2c-0.2,0.2-0.3,0.3-0.4,0.5c-0.2,0.5-0.3,1-0.5,1.5c-0.4,0.9-0.7,1.8-0.2,2.7
			c0.2,0.3,0.7,0.7,0.7,1c0.1,0.3-0.4,0.7-0.6,0.9C479.3,55.9,479,56.8,478.7,57.7L478.7,57.7z"/>
		<path class="st6" d="M479.6,51.9c0.3,0,0.5-0.1,0.6-0.4c0-0.2-0.1-0.6-0.4-0.6c-0.3,0-0.8,0-1-0.3c0,0-0.1-0.1-0.1-0.2
			c0-0.1,0-0.1,0.1-0.1c0.3-0.2,0.3-0.7-0.1-0.9c-0.3-0.1-0.5-0.3-0.8-0.5c-0.3-0.2-0.5-0.5-0.8-0.7c-0.1-0.1-0.2-0.3-0.3-0.3
			c0,0.1,0,0.1,0,0.1c0,0,0-0.1,0-0.1c0-0.1,0.1-0.2,0.1-0.3c0-0.2-0.1-0.4-0.1-0.5c0-0.1-0.1-0.1-0.1-0.2c0,0,0,0.1,0,0.1
			c0.4-0.5-0.3-1.1-0.8-0.6c-0.2,0.2-0.2,0.4-0.2,0.6c0,0.1,0,0.2,0.1,0.3c0,0.1,0.1,0.2,0.1,0.3c0,0,0,0,0,0c0,0,0,0.1-0.1,0.1
			c0,0.1-0.1,0.2-0.1,0.3c0,0.3,0.2,0.5,0.3,0.7c0.3,0.3,0.6,0.7,1,1c0.3,0.3,0.7,0.6,1.1,0.7l-0.1-0.9c-0.5,0.4-0.6,1.1-0.3,1.6
			C478.2,51.7,479,51.9,479.6,51.9L479.6,51.9z"/>
		<path class="st7" d="M476.4,44.9c-21.6,0.5-13.3,27.3-8,33.8s20.6-4.9,26.9-14.9C501.5,53.7,478.9,44.8,476.4,44.9L476.4,44.9z"/>
		<path class="st8" d="M476.5,60.4L476.5,60.4c-0.3,0.4-0.2,1-0.1,1.5c0.2,0.5,0.6,0.9,1,1.1c0.4,0.2,1.1,0.2,1.5,0.1
			c0.3-0.1,0.5-0.2,0.6-0.4c0.2-0.2,0.4-0.4,0.5-0.6l0,0l-0.3,0.4l0,0l-0.4,0.3l0.1-0.1l-0.5,0.2l0.1,0l-0.5,0.1l0.1,0l-0.5,0l0.1,0
			l-0.5-0.2l0.1,0l-0.4-0.3l0,0l-0.3-0.4l0.1,0.1l-0.2-0.5l0,0.1l-0.1-0.5l0,0.1l0-0.5c0,0,0,0.1,0,0.1l0.2-0.5c0,0-0.1,0.1-0.1,0.1
			l0.3-0.4l-0.1,0.1l0.4-0.3c0,0-0.1,0.1-0.1,0.1l0.5-0.2c-0.1,0-0.1,0-0.2,0.1l0.5-0.1c-0.1,0-0.2,0-0.3,0l0.5,0
			c-0.2,0-0.4,0-0.5-0.1l0.5,0.2c-0.1,0-0.1-0.1-0.2-0.1l0.4,0.3l-0.1-0.1l0.3,0.4l-0.1-0.1l0.2,0.5l0,0l0.1,0.5v-0.1l0,0.5
			c0,0,0-0.1,0-0.1l-0.2,0.5c0-0.1,0-0.1,0.1-0.2l-0.3,0.4c0.1-0.1,0.2-0.2,0.3-0.3l-0.4,0.3c0.2-0.2,0.4-0.4,0.7-0.6l-0.5,0.2
			c0,0,0.1,0,0.1,0l-0.5,0.1h0.1l-0.5,0c0,0,0.1,0,0.1,0l-0.5-0.2l0,0l-0.4-0.3c0.1,0.1,0.2,0.1,0.3,0.2l-0.3-0.4
			c0.1,0.1,0.2,0.2,0.3,0.4l-0.2-0.5c0.1,0.1,0.1,0.2,0.1,0.4l-0.1-0.5l0,0.3l0-0.5c0,0.1,0,0.1,0,0.2l0.2-0.5c0,0-0.1,0.1-0.1,0.1
			l0.3-0.4l-0.1,0.1l0.4-0.3l-0.1,0.1l0.5-0.2c-0.1,0-0.2,0.1-0.3,0.1l0.5-0.1c-0.3,0.1-0.7,0.1-1,0.1l0.5,0c-0.2,0-0.3,0-0.4-0.1
			l0.5,0.2c-0.1,0-0.2-0.1-0.3-0.1l0.4,0.3c-0.1,0-0.1-0.1-0.2-0.2l0.3,0.4c0,0-0.1-0.1-0.1-0.1l0.2,0.5l0-0.1l0.1,0.5v-0.1
			c0,0.2,0,0.3,0,0.5v-0.1l-0.2,0.5c0,0,0-0.1,0-0.1l-0.3,0.4c0-0.1,0.1-0.1,0.2-0.2l-0.4,0.3c0.1-0.1,0.2-0.2,0.3-0.2l-0.5,0.2
			c0.1-0.1,0.3-0.1,0.5-0.2l-0.5,0.1c0.1,0,0.2,0,0.3,0c0.4,0,0.8-0.2,1.1-0.4c0.3-0.2,0.5-0.5,0.7-0.8c0.1-0.3,0.2-0.5,0.2-0.8
			c0-0.3,0-0.5-0.1-0.8c-0.1-0.3-0.3-0.5-0.4-0.7c-0.3-0.4-0.7-0.6-1.2-0.7c-0.1,0-0.2,0-0.3-0.1c-0.3,0-0.5-0.1-0.7-0.1l1.6,2.3
			l0,0l-0.2,0.5c0,0,0.1-0.1,0.1-0.1l-0.3,0.4c0,0,0.1-0.1,0.1-0.1l-0.4,0.3c0,0,0.1-0.1,0.2-0.1l-0.5,0.2c0.1-0.1,0.2-0.1,0.4-0.1
			l-0.5,0.1c0.2,0,0.4-0.1,0.6-0.1l-0.5,0c0.1,0,0.2,0,0.3,0l-0.5-0.2c0.1,0,0.1,0,0.2,0.1l-0.4-0.3c0.1,0,0.1,0.1,0.2,0.1l-0.4-0.4
			c0.1,0,0.1,0.1,0.1,0.2l-0.2-0.5c0,0.1,0.1,0.2,0.1,0.3l-0.1-0.5c0,0.1,0,0.2,0,0.3l0-0.5c0,0.1,0,0.2,0,0.3l0.2-0.5
			c0,0.1-0.1,0.2-0.1,0.3l0.3-0.4c-0.1,0.1-0.2,0.2-0.2,0.3l0.4-0.3c-0.1,0.1-0.3,0.2-0.4,0.3l0.5-0.2c-0.2,0.1-0.4,0.2-0.7,0.2
			l0.5-0.1c-0.2,0-0.4,0.1-0.7,0.1l0.5,0c-0.1,0-0.2,0-0.4-0.1l0.5,0.2c-0.1,0-0.2-0.1-0.3-0.1l0.4,0.3c-0.1,0-0.1-0.1-0.2-0.2
			l0.3,0.4c-0.1-0.1-0.1-0.1-0.2-0.2l0.2,0.5c0-0.1,0-0.1-0.1-0.2l0.1,0.5l0-0.2l0,0.5c0-0.1,0-0.1,0-0.2l-0.2,0.5
			c0-0.1,0.1-0.2,0.1-0.2l-0.3,0.4c0-0.1,0.1-0.1,0.2-0.2l-0.4,0.3c0.1-0.1,0.2-0.1,0.3-0.2l-0.5,0.2c0.1-0.1,0.3-0.1,0.4-0.1
			l-0.5,0.1c0.2,0,0.4-0.1,0.6-0.1l-0.5,0c0.2,0,0.4,0,0.6,0.1l-0.5-0.2c0.2,0.1,0.4,0.2,0.6,0.3l-0.4-0.3c0.2,0.1,0.4,0.3,0.5,0.4
			l-0.4-0.4c0.1,0.1,0.2,0.2,0.3,0.3c0.3,0.4,0.8,0.7,1.3,0.8c0.5,0.1,1.1-0.1,1.5-0.3c0.4-0.3,0.7-0.8,0.8-1.3
			c0.1-0.5-0.1-1.1-0.3-1.5c-0.4-0.7-1.1-1.2-1.9-1.6c-0.4-0.2-0.8-0.3-1.2-0.3c-0.3,0-0.6,0-0.9-0.1c-0.1,0-0.3,0-0.4,0
			c-0.6,0.1-1.1,0.3-1.6,0.6c-0.2,0.1-0.4,0.3-0.6,0.5c-0.2,0.2-0.3,0.4-0.4,0.7c-0.1,0.2-0.2,0.5-0.3,0.8c0,0.1,0,0.3,0,0.4
			c0,0.1,0,0.3,0,0.4c0.1,0.6,0.3,1.2,0.8,1.6c0.7,0.8,1.8,1.1,2.8,1c0.8-0.1,1.6-0.3,2.2-0.8c0.4-0.3,0.8-0.7,1-1.2
			c0.1-0.2,0.1-0.3,0.2-0.5s0.1-0.3,0.1-0.5c0.1-0.5,0-1-0.1-1.5c-0.1-0.2-0.2-0.5-0.4-0.7c-0.1-0.2-0.3-0.4-0.5-0.5
			c-0.7-0.6-1.7-0.8-2.6-0.6c-0.5,0.1-1,0.2-1.5,0.6c-0.1,0.1-0.2,0.2-0.3,0.3c-0.1,0.1-0.2,0.2-0.3,0.3c-0.3,0.4-0.4,0.7-0.5,1.1
			c-0.1,0.5,0.1,1.1,0.3,1.5c0.3,0.4,0.8,0.7,1.3,0.8c0.4,0.1,0.7,0.1,1.1,0.2l-0.5-0.2l0.1,0L477,62l0,0l-0.6-0.8l0,0l-0.1-0.5v0
			l0.2-1l0,0l0.6-0.8l0,0l0.5-0.2l-0.1,0l0.5-0.1c-0.4,0.1-0.9,0.1-1.3,0.3c-0.6,0.3-1.1,0.7-1.5,1.3c-0.2,0.3-0.3,0.5-0.3,0.8
			c0,0.2,0,0.5,0,0.7c0.1,0.4,0.2,0.9,0.5,1.2c0.3,0.4,0.6,0.5,1,0.8c0.2,0.1,0.4,0.2,0.5,0.2c0.6,0.2,1.3,0.2,2,0.1
			c0.5-0.1,1.1-0.2,1.5-0.5c0.3-0.2,0.6-0.6,0.8-1c0.1-0.2,0.1-0.4,0.2-0.6c0,0,0-0.1,0-0.1c0-0.6,0-1.1-0.2-1.6s-0.5-0.9-1-1.3
			c-0.7-0.6-1.6-0.8-2.4-0.5c-0.4,0.1-0.7,0.4-1,0.7c-0.5,0.4-0.8,0.7-1.1,1.3c-0.2,0.3-0.2,0.7-0.2,1c0,0.5,0.1,1,0.4,1.4
			c0.2,0.3,0.6,0.6,0.9,0.8c0.2,0.1,0.5,0.2,0.8,0.2c0.5,0.1,1,0.1,1.5,0c0.3-0.1,0.7-0.2,1-0.4c0.3-0.2,0.6-0.6,0.8-0.9
			c0.1-0.2,0.2-0.4,0.2-0.6c0,0,0-0.1,0-0.1c0-0.4,0-0.8-0.1-1.2c-0.2-0.5-0.6-1-1.1-1.2c-0.4-0.2-0.8-0.2-1.2-0.2
			c-0.1,0-0.2,0-0.4,0.1c-0.3,0.1-0.5,0.2-0.8,0.3C476.9,59.8,476.7,60.1,476.5,60.4L476.5,60.4z"/>
		<path class="st5" d="M447.2,74.9c-21.6,0.5-13.3,27.2-8,33.8c5.3,6.5,20.6-4.9,26.9-14.9C472.3,83.6,449.7,74.8,447.2,74.9
			L447.2,74.9z"/>
		<path class="st6" d="M451.4,92.8c-0.6,0.2-0.3,1.1,0.4,0.9c0.1,0,0.4-0.2,0.5,0c0.1,0.1,0,0.6-0.1,0.8c-0.1,0.5-0.3,1-0.5,1.6
			c-0.3,0.8-0.6,1.8,0.5,2.2c0.5,0.2,0.9,0.2,0.8,0.8c-0.1,0.5-0.2,1-0.1,1.5c0.1,0.5,0.5,0.9,0.7,1.4c0.2,0.5,0.3,1.1,0.3,1.6
			c0,0.6,1,0.5,1-0.1c0-0.6-0.1-1.3-0.4-1.9c-0.3-0.6-0.8-1.1-0.7-1.8c0.1-0.6,0.2-1.1,0-1.6c-0.2-0.5-0.6-0.6-1.1-0.8
			c-0.1,0-0.3-0.1-0.3-0.1c-0.1-0.1,0-0.4,0.1-0.5c0.1-0.3,0.2-0.6,0.3-0.9c0.2-0.6,0.4-1.1,0.4-1.7c0-0.5,0-1-0.5-1.3
			C452.4,92.6,451.8,92.7,451.4,92.8L451.4,92.8z"/>
		<path class="st6" d="M452.6,90.1c-0.6-0.1-0.8,0.9-0.2,1c0.9,0.2,1.4-0.6,2.2-0.8c0.9-0.2,1.4,0.6,2.2,0.7
			c0.8,0.1,1.2-0.5,1.8-0.9c0.4-0.3,0.8-0.4,1.3-0.4c0.3,0,1-0.1,1.3,0l-0.3-0.3c0-0.2,0-0.2-0.1-0.1c0,0.1-0.1,0.1-0.1,0.2
			c-0.1,0.1-0.1,0.3-0.2,0.4c0,0.2,0.1,0.4,0.3,0.5c0.7,0.3,1.4,0.4,2.1,0.3c0.4-0.1,0.7-0.2,1-0.4c0.4-0.2,0.7-0.6,1.2-0.5
			c0.6,0,0.8-0.9,0.2-1c-0.8,0-1.2,0.4-1.9,0.7c-0.7,0.4-1.5,0.3-2.2,0l0.3,0.5c0-0.3,0.4-0.5,0.4-0.8c0-0.4-0.3-0.6-0.6-0.7
			c-0.9-0.2-2.2,0-3,0.5c-0.4,0.2-0.9,0.9-1.3,0.9c-0.3,0-0.5-0.3-0.7-0.4s-0.4-0.2-0.7-0.3c-0.5-0.1-1-0.1-1.4,0.1
			C453.7,89.5,453.1,90.2,452.6,90.1L452.6,90.1z"/>
		<path class="st6" d="M457.1,89.4L457.1,89.4c0.2,0.6,1.1,0.3,0.9-0.3c-0.2-0.7-0.1-1.5,0.2-2.1c0.2-0.3,0.4-0.6,0.7-0.8
			c0.3-0.3,0.5-0.6,0.3-1c-0.1-0.2-0.2-0.4-0.4-0.5c-0.1-0.1-0.3-0.1-0.4-0.2c-0.2-0.2,0-0.6,0-0.9c0.1-0.4,0.2-0.7,0.5-0.9
			c0.3-0.3,0.5-0.5,0.4-0.9c-0.1-0.6-1.1-0.5-1,0.1c0-0.1,0-0.1,0,0l0,0c-0.1,0.1-0.2,0.1-0.2,0.2c-0.1,0.1-0.2,0.3-0.3,0.5
			c-0.2,0.3-0.3,0.8-0.4,1.1c-0.1,0.4-0.1,0.7,0.1,1.1c0.1,0.2,0.2,0.3,0.3,0.5c0.1,0.1,0.3,0.3,0.5,0.3c0.1,0.1,0.1,0,0.1-0.2
			l-0.1,0.1c-0.1,0.1-0.2,0.2-0.2,0.2c-0.1,0.1-0.2,0.3-0.3,0.4c-0.2,0.3-0.4,0.7-0.5,1.1C456.8,87.9,456.8,88.7,457.1,89.4
			L457.1,89.4z"/>
		<path class="st6" d="M447.6,88.3c0.6,0.1,0.8-0.9,0.2-1c-0.4,0-0.9-0.1-1.3-0.3c-0.2-0.1-0.3-0.1-0.3-0.2c0-0.1,0.2-0.3,0.3-0.3
			c0.4-0.4,0.6-1,0.2-1.5c-0.3-0.4-0.9-0.5-1.2-0.9c-0.3-0.4-0.5-0.9-0.8-1.3c-0.3-0.4-0.7-0.7-1.2-0.8c-0.6-0.1-1.4,0.4-1.9-0.2
			c-0.5-0.6,0-1.3-0.1-2c-0.1-0.6-0.6-0.9-1.1-1.2l0.3,0.5c0-0.2,0-0.4,0-0.6c0-0.6-0.9-0.8-1-0.2c0,0.2,0,0.4,0,0.6
			c0,0.2,0.1,0.4,0.3,0.5c0.3,0.2,0.5,0.3,0.5,0.6c-0.1,0.4-0.1,0.7-0.1,1.1c0.1,0.6,0.4,1.2,0.9,1.6c0.6,0.4,1.2,0.2,1.8,0.1
			c0.6-0.1,0.8,0.4,1.1,0.8c0.3,0.4,0.5,0.9,0.9,1.2c0.2,0.2,0.6,0.2,0.7,0.4c0.1,0.1,0.1,0.1,0,0.3c-0.1,0.1-0.2,0.2-0.3,0.3
			c-0.4,0.5-0.5,1.1,0,1.6C446,88,446.9,88.2,447.6,88.3L447.6,88.3z"/>
		<path class="st6" d="M442.2,83.6L442.2,83.6c0.6-0.2,0.3-1.2-0.3-0.9c-0.4,0.2-0.6,0.5-0.9,0.8c-0.3,0.4-0.6,0.6-1,0.7
			c-0.4,0.1-0.8,0.2-1,0.6c-0.2,0.3-0.3,0.7-0.6,1c-0.3,0.3-0.6,0.6-1,0.8c-0.4,0.2-0.8,0.3-1.1,0.6c-0.3,0.4-0.7,2.2-1.5,1.9
			c-0.6-0.2-1,0.7-0.4,0.9c1,0.3,1.8-0.3,2.2-1.2c0.1-0.2,0.2-0.5,0.3-0.7c0.1-0.3,0.2-0.4,0.5-0.5c0.4-0.2,0.8-0.3,1.2-0.6
			c0.4-0.3,0.7-0.6,0.9-1c0.1-0.2,0.2-0.4,0.3-0.6c0.1-0.2,0.2-0.2,0.4-0.3c0.5-0.1,0.9-0.3,1.2-0.6
			C441.7,84.3,441.9,83.7,442.2,83.6L442.2,83.6z"/>
		<path class="st6" d="M446,93.9c0.6-0.3,0.2-1.2-0.3-0.9l-2,0.9c-0.5,0.3-1.2,0.5-1.6,0.9c-0.8,0.7,0,2-0.9,2.6
			c-0.4,0.3-0.9,0.4-1.3,0.6c-0.5,0.3-0.8,0.6-0.9,1.2c-0.1,0.3-0.1,0.5-0.3,0.7c-0.2,0.2-0.4,0.4-0.6,0.5c-0.4,0.4-0.8,0.8-1,1.3
			c-0.3,0.6,0.6,1,0.9,0.4c0.5-1,1.6-1.4,1.9-2.4c0.1-0.2,0.1-0.5,0.2-0.7c0.1-0.2,0.4-0.3,0.6-0.3c0.4-0.2,0.9-0.4,1.2-0.6
			c0.4-0.3,0.6-0.6,0.7-1c0.1-0.4-0.1-1,0.1-1.4c0.1-0.3,0.4-0.3,0.7-0.5l0.9-0.4L446,93.9L446,93.9z"/>
		<path class="st6" d="M439.7,98.2L439.7,98.2c0.4,0.5,1.2,0,0.8-0.6c-0.6-0.8-1.6-1.1-2.5-0.8c-0.1,0-0.2,0-0.3,0.1
			c-0.1,0-0.1,0,0,0c0.1,0,0,0,0,0c-0.2-0.2-0.3-0.4-0.6-0.5c-0.5-0.2-1.1,0-1.5,0.1c-0.3,0-0.5,0.3-0.4,0.5c0,0.2,0.3,0.5,0.5,0.4
			c0.3,0,0.5-0.1,0.7-0.1c0.1,0,0.3-0.1,0.3,0c0.1,0,0.1,0.1,0.2,0.2c0.1,0.1,0.2,0.2,0.3,0.2c0.2,0.1,0.5,0.2,0.7,0.1
			c0.2,0,0.4-0.1,0.6-0.2c0.2,0,0.3,0,0.5,0C439.3,97.7,439.6,97.9,439.7,98.2L439.7,98.2z"/>
		<path class="st6" d="M451.5,98.2c0.6,0,0.5-1-0.1-1c-0.5,0-1,0.3-1.2,0.8c-0.1,0.3,0,0.5-0.1,0.8c0,0.2-0.2,0.3-0.4,0.4
			c-0.4,0.3-0.8,0.5-1.1,1c-0.3,0.5-0.6,1.1-0.8,1.6c-0.2,0.6-0.4,1.2-0.4,1.8c0,0.3,0,0.6,0.1,0.9c0.1,0.3,0.3,0.6,0.2,0.9
			c-0.1,0.2-0.4,0.3-0.6,0.5c-0.2,0.2-0.3,0.4-0.3,0.6c-0.2,0.5-0.1,1,0.1,1.5c0.3,0.6,1.2,0.2,0.9-0.3c-0.2-0.4-0.1-0.9,0.2-1.2
			c0.3-0.3,0.7-0.5,0.8-1c0.1-0.5-0.2-0.9-0.3-1.4c-0.1-0.6,0-1.1,0.2-1.7c0.2-0.5,0.4-1.1,0.7-1.6c0.2-0.4,0.6-0.6,0.9-0.8
			c0.3-0.2,0.6-0.5,0.7-0.8C451.2,98.9,450.9,98.2,451.5,98.2L451.5,98.2z"/>
		<path class="st6" d="M447.7,103.7c0.5-0.3,0-1.1-0.6-0.8c-0.6,0.3-1.4,0.1-2.1,0.3c-0.8,0.3-0.9,0.9-1.4,1.5
			c-0.1,0.1-0.2,0.3-0.3,0.3c-0.2,0-0.4-0.1-0.5-0.1c-0.4,0-0.8,0.1-1.1,0.3c-0.4,0.2-0.7,0.6-1,0.9c-0.3,0.3-0.7,0.6-1,0.9
			c-0.5,0.4,0.1,1.2,0.6,0.8c0.4-0.3,0.7-0.7,1.1-1c0.3-0.3,0.6-0.6,1-0.8c0.4-0.2,0.7,0.1,1.1,0c0.3,0,0.6-0.2,0.9-0.5
			c0.5-0.5,0.6-1.3,1.3-1.5C446.4,104,447.1,104.1,447.7,103.7L447.7,103.7z"/>
		<path class="st6" d="M449.4,87.7c-0.2,0.6,0.8,0.8,1,0.2c0.3-1,0.6-1.8,1.3-2.5c0.7-0.7,0.6-1.4,0-2.1c-0.3-0.4-0.6-0.7-0.5-1.2
			c0.1-0.5,0.3-0.9,0.5-1.4c0.1-0.4,0.2-1.1,0.6-1.4c0.3-0.2,0.7-0.3,0.6-0.8c-0.1-0.6-1.1-0.5-1,0.1v0.1l0.1-0.4
			c0,0-0.2,0.1-0.2,0.1c-0.1,0.1-0.2,0.1-0.3,0.2c-0.2,0.2-0.3,0.3-0.4,0.5c-0.2,0.5-0.3,1-0.5,1.5c-0.4,0.9-0.7,1.8-0.2,2.7
			c0.2,0.3,0.7,0.7,0.7,1c0.1,0.3-0.4,0.7-0.6,0.9C450,85.9,449.7,86.8,449.4,87.7L449.4,87.7z"/>
		<path class="st6" d="M450.3,81.9c0.3,0,0.5-0.1,0.6-0.4c0-0.2-0.1-0.6-0.4-0.6c-0.3,0-0.8,0-1-0.3c0,0-0.1-0.1-0.1-0.2
			c0-0.1,0-0.1,0.1-0.1c0.3-0.2,0.3-0.7-0.1-0.9c-0.3-0.1-0.5-0.3-0.8-0.5c-0.3-0.2-0.5-0.5-0.8-0.7c-0.1-0.1-0.2-0.3-0.3-0.3
			c0,0.1,0,0.1,0,0.1c0,0,0-0.1,0-0.1c0-0.1,0.1-0.2,0.1-0.3c0-0.2-0.1-0.4-0.1-0.5c0-0.1-0.1-0.1-0.1-0.2c0,0,0,0.1,0,0.1
			c0.4-0.5-0.3-1.1-0.8-0.6c-0.2,0.2-0.2,0.4-0.2,0.6c0,0.1,0,0.2,0.1,0.3c0,0.1,0.1,0.2,0.1,0.3c0,0,0,0,0,0c0,0,0,0.1-0.1,0.1
			c0,0.1-0.1,0.2-0.1,0.3c0,0.3,0.2,0.5,0.3,0.7c0.3,0.3,0.6,0.7,1,1c0.3,0.3,0.7,0.6,1.1,0.7l-0.1-0.9c-0.5,0.4-0.6,1.1-0.3,1.6
			C449,81.7,449.7,81.9,450.3,81.9L450.3,81.9z"/>
		<path class="st7" d="M447.2,74.9c-21.6,0.5-13.3,27.2-8,33.8c5.3,6.5,20.6-4.9,26.9-14.9C472.3,83.6,449.7,74.8,447.2,74.9
			L447.2,74.9z"/>
		<path class="st8" d="M447.2,90.3L447.2,90.3c-0.3,0.4-0.2,1-0.1,1.5c0.2,0.5,0.6,0.9,1,1.1c0.4,0.2,1.1,0.2,1.5,0.1
			c0.3-0.1,0.5-0.2,0.6-0.4c0.2-0.2,0.4-0.4,0.5-0.6l0,0l-0.3,0.4l0,0l-0.4,0.3l0.1-0.1l-0.5,0.2l0.1,0l-0.5,0.1l0.1,0l-0.5,0l0.1,0
			l-0.5-0.2l0.1,0l-0.4-0.3l0,0l-0.3-0.4l0.1,0.1l-0.2-0.5l0,0.1l-0.1-0.5l0,0.1l0-0.5c0,0,0,0.1,0,0.1l0.2-0.5c0,0-0.1,0.1-0.1,0.1
			l0.3-0.4l-0.1,0.1l0.4-0.3l-0.1,0.1l0.5-0.2c-0.1,0-0.1,0-0.2,0.1l0.5-0.1c-0.1,0-0.2,0-0.3,0l0.5,0c-0.2,0-0.4,0-0.5-0.1l0.5,0.2
			c-0.1,0-0.1-0.1-0.2-0.1l0.4,0.3l-0.1-0.1l0.3,0.4l-0.1-0.1l0.2,0.5l0,0l0.1,0.5v-0.1l0,0.5c0,0,0-0.1,0-0.1l-0.2,0.5
			c0-0.1,0-0.1,0.1-0.2l-0.3,0.4c0.1-0.1,0.2-0.2,0.3-0.3l-0.4,0.3c0.2-0.2,0.4-0.4,0.7-0.6l-0.5,0.2l0.1,0l-0.5,0.1h0.1l-0.5,0
			c0,0,0.1,0,0.1,0l-0.5-0.2l0,0l-0.4-0.3c0.1,0.1,0.2,0.1,0.3,0.2l-0.4-0.4c0.1,0.1,0.2,0.2,0.3,0.4l-0.2-0.5
			c0.1,0.1,0.1,0.2,0.1,0.4l-0.1-0.5c0,0.1,0,0.2,0,0.3l0-0.5c0,0.1,0,0.1,0,0.2l0.2-0.5c0,0-0.1,0.1-0.1,0.1l0.3-0.4l-0.1,0.1
			l0.4-0.3l-0.1,0.1l0.5-0.2c-0.1,0-0.2,0.1-0.3,0.1l0.5-0.1c-0.3,0.1-0.7,0.1-1,0.1l0.5,0c-0.2,0-0.3,0-0.4-0.1l0.5,0.2
			c-0.1,0-0.2-0.1-0.3-0.1l0.4,0.3c-0.1,0-0.1-0.1-0.2-0.2l0.3,0.4c0,0-0.1-0.1-0.1-0.1l0.2,0.5l0-0.1l0.1,0.5v-0.1
			c0,0.2,0,0.3,0,0.5v-0.1l-0.2,0.5c0,0,0-0.1,0-0.1l-0.3,0.4c0-0.1,0.1-0.1,0.2-0.2l-0.4,0.3c0.1-0.1,0.2-0.2,0.3-0.2l-0.5,0.2
			c0.1-0.1,0.3-0.1,0.5-0.2l-0.5,0.1c0.1,0,0.2,0,0.3,0c0.4,0,0.8-0.2,1.1-0.4c0.3-0.2,0.5-0.5,0.7-0.8s0.2-0.5,0.2-0.8
			c0-0.3,0-0.5-0.1-0.8c-0.1-0.3-0.3-0.5-0.4-0.7c-0.3-0.4-0.7-0.6-1.2-0.7c-0.1,0-0.2,0-0.3-0.1c-0.3,0-0.5-0.1-0.7-0.1l1.6,2.3
			l0,0l-0.2,0.5c0,0,0.1-0.1,0.1-0.1l-0.3,0.4c0,0,0.1-0.1,0.1-0.1l-0.4,0.3c0,0,0.1-0.1,0.2-0.1l-0.5,0.2c0.1-0.1,0.2-0.1,0.4-0.1
			l-0.5,0.1c0.2,0,0.4-0.1,0.6-0.1l-0.5,0c0.1,0,0.2,0,0.3,0l-0.5-0.2c0.1,0,0.1,0,0.2,0.1l-0.4-0.3c0.1,0,0.1,0.1,0.2,0.1l-0.3-0.4
			c0.1,0,0.1,0.1,0.1,0.2l-0.2-0.5c0,0.1,0.1,0.2,0.1,0.3l-0.1-0.5c0,0.1,0,0.2,0,0.3l0-0.5c0,0.1,0,0.2,0,0.3l0.2-0.5
			c0,0.1-0.1,0.2-0.1,0.3l0.3-0.4c-0.1,0.1-0.2,0.2-0.2,0.3l0.4-0.3c-0.1,0.1-0.3,0.2-0.4,0.3l0.5-0.2c-0.2,0.1-0.4,0.2-0.7,0.2
			l0.5-0.1c-0.2,0-0.4,0.1-0.7,0.1l0.5,0c-0.1,0-0.2,0-0.4-0.1l0.5,0.2c-0.1,0-0.2-0.1-0.3-0.1l0.4,0.3c-0.1,0-0.1-0.1-0.2-0.2
			l0.3,0.4c-0.1-0.1-0.1-0.1-0.2-0.2l0.2,0.5c0-0.1,0-0.1-0.1-0.2l0.1,0.5l0-0.2l0,0.5c0-0.1,0-0.1,0-0.2l-0.2,0.5
			c0-0.1,0.1-0.2,0.1-0.2l-0.3,0.4c0-0.1,0.1-0.1,0.2-0.2l-0.4,0.3c0.1-0.1,0.2-0.1,0.3-0.2l-0.5,0.2c0.1-0.1,0.3-0.1,0.4-0.1
			l-0.5,0.1c0.2,0,0.4-0.1,0.6-0.1l-0.5,0c0.2,0,0.4,0,0.6,0.1l-0.5-0.2c0.2,0.1,0.4,0.2,0.6,0.3l-0.4-0.3c0.2,0.1,0.4,0.3,0.5,0.4
			l-0.4-0.4c0.1,0.1,0.2,0.2,0.3,0.3c0.3,0.4,0.8,0.7,1.3,0.8c0.5,0.1,1.1-0.1,1.5-0.3c0.4-0.3,0.7-0.8,0.8-1.3
			c0.1-0.5-0.1-1.1-0.3-1.5c-0.4-0.7-1.1-1.2-1.9-1.6c-0.4-0.2-0.8-0.3-1.2-0.3c-0.3,0-0.6,0-0.9-0.1c-0.1,0-0.3,0-0.4,0
			c-0.6,0.1-1.1,0.3-1.6,0.6c-0.2,0.1-0.4,0.3-0.6,0.5c-0.2,0.2-0.3,0.4-0.4,0.7c-0.1,0.2-0.2,0.5-0.3,0.8c0,0.1,0,0.3,0,0.4
			c0,0.1,0,0.3,0,0.4c0.1,0.6,0.3,1.2,0.8,1.6c0.7,0.8,1.8,1.1,2.8,1c0.8-0.1,1.6-0.3,2.2-0.8c0.4-0.3,0.8-0.7,1-1.2
			c0.1-0.2,0.1-0.3,0.2-0.5c0.1-0.2,0.1-0.3,0.1-0.5c0-0.5,0-1-0.2-1.5c-0.1-0.2-0.2-0.5-0.4-0.7c-0.1-0.2-0.3-0.4-0.5-0.5
			c-0.7-0.6-1.7-0.8-2.6-0.6c-0.5,0.1-1,0.2-1.5,0.6c-0.1,0.1-0.2,0.2-0.3,0.3c-0.1,0.1-0.2,0.2-0.3,0.3c-0.3,0.4-0.4,0.7-0.5,1.1
			c-0.1,0.5,0.1,1.1,0.3,1.5c0.3,0.4,0.8,0.7,1.3,0.8c0.4,0.1,0.7,0.1,1.1,0.2l-0.5-0.2l0.1,0l-0.4-0.3l0,0l-0.6-0.8l0,0l-0.1-0.5v0
			l0.2-1l0,0l0.6-0.8l0,0l0.5-0.2l-0.1,0l0.5-0.1c-0.4,0.1-0.9,0.1-1.3,0.3c-0.6,0.3-1.1,0.7-1.5,1.3c-0.2,0.3-0.3,0.5-0.3,0.8
			c0,0.2,0,0.5,0,0.7c0.1,0.4,0.2,0.9,0.5,1.2c0.3,0.4,0.6,0.5,1,0.8c0.2,0.1,0.4,0.2,0.5,0.2c0.6,0.2,1.3,0.2,2,0.1
			c0.5-0.1,1.1-0.2,1.5-0.5c0.3-0.2,0.6-0.6,0.8-1c0.1-0.2,0.1-0.4,0.2-0.6c0,0,0-0.1,0-0.1c0-0.6,0-1.1-0.2-1.6
			c-0.3-0.5-0.5-0.9-1-1.3c-0.7-0.6-1.6-0.8-2.4-0.5c-0.4,0.1-0.7,0.4-1,0.7c-0.5,0.4-0.8,0.7-1.1,1.3c-0.2,0.3-0.2,0.7-0.2,1
			c0,0.5,0.1,1,0.4,1.4c0.2,0.3,0.6,0.6,0.9,0.8c0.2,0.1,0.5,0.2,0.8,0.2c0.5,0.1,1,0.1,1.5,0c0.3-0.1,0.7-0.2,1-0.4
			c0.3-0.2,0.6-0.6,0.8-0.9c0.1-0.2,0.2-0.4,0.2-0.6c0,0,0-0.1,0-0.1c0-0.4,0-0.8-0.1-1.2c-0.2-0.5-0.6-1-1.1-1.2
			c-0.4-0.2-0.8-0.2-1.2-0.2c-0.1,0-0.2,0-0.4,0.1c-0.3,0.1-0.5,0.2-0.8,0.3C447.6,89.7,447.4,90,447.2,90.3L447.2,90.3z"/>
		<path class="st9" d="M503.7,98.2C472.5,94,469,99.4,469,99.4s3.4,3.3,14.6,5.5C494.8,107.1,503.7,98.2,503.7,98.2L503.7,98.2z"/>
		<path class="st9" d="M465.3,91.3c0,0,5.1,13.8,5.5,7.7c0.5-6.1,50.9,2.3,50.6-0.4c-0.3-2.7-5-12.1-17-22.2
			C491.4,65.6,465.3,91.3,465.3,91.3L465.3,91.3z"/>
		<path class="st2" d="M345.3,57.9C336,71.8,325.6,36,325.6,36"/>
		<path d="M373.9,221.7c-0.3-1-1.6-1.5-2.6-1.2c-1.1,0.4-1.4,1.5-1.2,2.6l1.4,5.2c0.2,0.8,0.4,1.6,0.7,2.4c0,0.2,0.2,1.1,0.2,1.1
			c0,0,0.3-0.2,0.3-0.2c0.4-0.3,0.4,0.3,0-0.2c-0.4-0.4-0.8-0.8-1.2-1.3c-1.2-1.4-2.3-2.9-3.5-4.3c-0.6-0.8-1.9-1.2-2.8-0.5
			c-1.3,1.1-1.4,2.4-1.1,4c0.1,0.5,0,0.4-0.4,0.9c-0.5,0.5-1,1.1-1.3,1.7c-1.2,2.7,0.2,5.5,0.3,8.2c0.1,1.4-0.6,2.8-1.2,4
			c-0.8,1.5-1.7,3-2.6,4.5c-1.8,3.2-3.7,6.4-5.5,9.6l2.6-1c-3.7-2-6.9-5.1-9.1-8.7c-1-1.6-1.8-3.3-2.4-5c-0.6-1.8-0.9-3.8-2-5.3
			c-2.8-3.7-7.7-1.7-9.9,1.5c-1.1,1.7-1.6,3.6-2.6,5.3c0,0-1.3,1.6-1.4,1.4c0,0.1,0.4,0.1,0.4,0.1c0,0-0.3-0.4-0.3-0.5
			c-0.4-0.5-0.7-1.1-1.1-1.6c-2.7-4.1-5.4-8.2-8.2-12.4c-1.4-2.1-4.6,0.2-3.2,2.3c1.6,2.4,3.2,4.8,4.7,7.2c1.5,2.3,3,4.8,4.7,7.1
			c1.5,2,3.9,2.2,5.9,0.7c1.7-1.3,2.5-3.3,3.4-5.2c0.6-1.5,1.3-3,2.8-3.8c0.5-0.2,0.9-0.3,1.4,0c0.5,0.4,0.7,1.2,0.9,1.8
			c1.2,3.9,2.7,7.5,5.2,10.8c2.5,3.3,5.7,6,9.3,7.9c1,0.5,2.1-0.1,2.6-1c1.8-3.1,3.6-6.3,5.4-9.4c1.6-2.7,3.6-5.5,4.1-8.7
			c0.2-1.4,0.1-2.8-0.2-4.2c-0.2-1.1-0.7-2.5-0.5-3.6c0.2-1.1,1.4-1.7,1.9-2.7c0.3-0.7,0.4-1.5,0.3-2.2c0-0.3-0.1-0.5-0.1-0.7
			c-0.1-0.8,0.1-0.2-0.4,0.2l-2.8-0.5c1.6,1.9,3.1,4.1,4.8,5.9c1.5,1.5,4.1,2.3,5.8,0.5c1.5-1.6,0.9-3.8,0.4-5.7
			C375.2,226.3,374.6,224,373.9,221.7L373.9,221.7L373.9,221.7z"/>
		<path d="M426.2,271.3c-0.5-1-1.5-1.6-2.6-1.2c-0.9,0.4-1.7,1.6-1.2,2.6c1,1.9,1.8,3.9,1.9,6.1c0.1,1.9-0.6,3.8-1.2,5.5
			c-0.7,1.9-1.5,3.8-2,5.8c-0.4,2-0.5,4.1-0.2,6.1c0.2,1.8,0.7,3.6,1.5,5.2c0.8,1.6,1.8,3.8,3.5,4.6c1.8,0.9,3.8,0,4.9-1.5
			c1.1-1.5,1.1-3.1,1.6-4.8c0.3-1,0.7-1.2,1.5-0.5c1.2,0.9,1.2,2.8,1.5,4.2c0.6,3.3,2.6,7.2,6.6,6.7c1.7-0.2,3.1-1.3,4.2-2.6
			c0.6-0.7,1.1-1.5,1.6-2.2c0.1-0.1,0.5-0.8,0.5-0.8l-0.9,0.1l0.1,0c0,0,0.5,0.4,0.5,0.4c1.2,1.1,1.9,2.6,2.9,3.9
			c1.2,1.4,2.6,2.6,4.4,3.1c3.8,1,7-2.6,9.3-5.2c2.4-2.8,4.3-6,5.6-9.3c0.9-2.4-2.7-4-3.6-1.7c-1.4,3.6-3.4,6.8-6.1,9.6
			c-0.9,1-2.4,2.9-3.9,2.8c-1.4-0.1-2.5-1.6-3.2-2.6c-1-1.4-1.9-2.8-3.2-3.9c-1.6-1.3-3.7-1.4-5,0.4c-0.8,1.2-2.8,5.5-4.6,3.7
			c-1-1-1.2-2.6-1.4-4c-0.3-1.8-0.7-3.6-2-4.9c-2.4-2.6-6.7-2.8-8.3,0.8c-0.6,1.3-0.4,2.9-1,4.2c0,0.1-0.4,0.5-0.4,0.6
			c0,0,0.2,0.2,0.2,0c0-0.2-0.4-0.6-0.5-0.7c-0.2-0.3-0.4-0.6-0.6-1c-1.5-2.7-2.1-6-1.6-9.1c0.5-3.3,2.3-6.2,3.1-9.5
			C428.8,278.4,427.8,274.7,426.2,271.3L426.2,271.3L426.2,271.3z"/>
		<path d="M225.4,274.2c-0.7-0.8-1.8-1.1-2.8-0.5c-0.8,0.6-1.2,2-0.5,2.8c2.7,3.1,5.5,6.2,8.2,9.3c0.9,1.1,2.2,2.2,2.7,3.6
			c0.2,0.6,0.1,1.6-0.4,1.8c-0.4,0.1-1.2-0.2-1.6-0.2c-0.9-0.1-1.7,0-2.4,0.3c-1.6,0.8-2,2.5-1.8,4.2c0.3,2.7,1.8,5.1,3.5,7.2
			c0.8,1.1,1.7,2.1,2.4,3.2c0.6,0.9,1.4,2.1,1.4,3.2l0.2-1c0.1-0.3,0.5-0.2-0.2-0.2c-0.5,0-1,0.1-1.6,0.1c-1.1,0.1-2.2,0.2-3.3,0.3
			c-1,0.1-2.1,0.2-3.1,0.3c-0.9,0.1-1.9,0.2-2.7,0.8c-3.2,2.3-0.3,5.9,1,8.3c1.4,2.5,2.6,5.9,1.7,8.8c-0.2,0.8-0.7,1.9-1.7,1.7
			c-0.8-0.2-1.6-0.7-2.4-1c-0.8-0.4-1.7-0.7-2.5-1.1c-3.4-1.5-6.9-3-10.3-4.6c-2.3-1-4,2.6-1.7,3.6c4.1,1.8,8.2,3.6,12.3,5.4
			c1.8,0.8,3.8,2,5.9,1.6c1.8-0.4,3.2-1.8,3.8-3.5c1.4-3.3,0.8-7.2-0.5-10.4c-0.7-1.6-1.6-3.1-2.5-4.6c-0.1-0.2-0.6-1.4-0.5-1.4
			c0.1,0-0.3,0.6-0.3,0.5c0,0.1,0,0,0.2,0c0.2,0,0.5,0,0.7-0.1c2-0.2,3.9-0.4,5.9-0.5c1.7-0.2,4,0,5.2-1.5c2.1-2.6-1.2-6.7-2.8-8.7
			c-1.5-2-3.7-4.2-3.9-6.9c0-0.1,0-0.4,0-0.4c-0.1-0.2-0.1,0-0.3,0.2c-0.3,0.3-0.3,0,0,0.1c0.2,0.1-0.9-0.1,0.3,0.1
			c0.8,0.1,1.5,0.3,2.3,0.2c1.6-0.2,3-1.3,3.6-2.8c1.6-3.6-1.1-6.6-3.3-9.1C230.7,280.2,228.1,277.2,225.4,274.2L225.4,274.2
			L225.4,274.2z"/>
		<path class="st3" d="M181.5,302.6c-45.3,79.4-18.6,122.6-18.6,122.6s-23.8-10.5-30.3-19.3c-6.5-8.8-10.4-19.9-22.1-23.5
			c-11.7-3.6-6.2-25,9.7-39.2c15.9-14.2,0.1-47-14.7-33.2c-14.8,13.8-33.4-22.4-51.3-51c-17.9-28.6-14.6-53.6,7.9-75.6
			c22.5-22.1-0.8-17.9,60.9,2.7C184.5,206.6,181.5,302.6,181.5,302.6L181.5,302.6L181.5,302.6z"/>
		<path d="M253.8,464.9c4.9-5.5,52.1-1.2,123.3,18.5c71.1,19.7,132.9,3.7,135.2,28.8c2.3,25-10.6,74.3-58.2,78.8
			c-47.6,4.5-392.7-38.3-395.8-44.3c-3.1-6-27.2-73.2,15.1-79.8C115.7,460.4,253.8,464.9,253.8,464.9z"/>
		<path class="st10" d="M226.7,83.5c-24.8,22.3-67.8,57.5-73.8,43.2c-6-14.3,63.7-47.7,73.6-45.2C236.4,83.9,226.7,83.5,226.7,83.5z
			"/>
		<path class="st10" d="M180.3,87.7c-16,14.3-43.6,37-47.4,27.8c-3.9-9.2,40.9-30.7,47.3-29.1C186.6,88,180.3,87.7,180.3,87.7
			L180.3,87.7z"/>
		<path class="st11" d="M202.5,568.5c0,0,1.3,89.9,9.9,104.2c8.6,14.3-25.5,37.5-33,11.7c-7.5-25.8,2.1-118.5,6.3-118
			C189.9,566.9,202.5,568.5,202.5,568.5z"/>
		<path d="M212.6,664.1c0,0,81.7,5.9,96.4,20.8c14.7,15-102.4-11.5-98,0.7c4.5,12.3,17.8,75.4,1.2,63.8
			c-16.6-11.7-15.8-60.5-24.1-54.3c-8.3,6.2-102.2-4.7-91.7-14.2c10.5-9.5,79.9-15.2,80.1-18.1"/>
		<path class="st2" d="M212.6,664.1c0,0,81.7,5.9,96.4,20.8c14.7,15-102.4-11.5-98,0.7c4.5,12.3,17.8,75.4,1.2,63.8
			c-16.6-11.7-15.8-60.5-24.1-54.3c-8.3,6.2-102.2-4.7-91.7-14.2c10.5-9.5,79.9-15.2,80.1-18.1"/>
		<path class="st11" d="M292,705.1c4.4,0,8-3.6,8-8c0-4.4-3.6-8-8-8s-8,3.6-8,8C284,701.6,287.6,705.1,292,705.1z"/>
		<path class="st11" d="M208,759.1c4.5,0,8.1-3.6,8.1-8.1s-3.6-8.1-8.1-8.1s-8.1,3.6-8.1,8.1S203.5,759.1,208,759.1z"/>
		<path class="st11" d="M101.1,702.5c4.1,0,7.4-3.3,7.4-7.4s-3.3-7.4-7.4-7.4c-4.1,0-7.4,3.3-7.4,7.4S97,702.5,101.1,702.5z"/>
		<path class="st12" d="M596.5,240.7c0,0-442.8,263.5-476.7,270.4c-33.8,6.9-26,228.2-26.2,276c-0.1,47.8,293.2,17.6,330.1,20.1
			c36.9,2.5,391.5-212.5,409.1-296.2c17.6-83.7,35.2-250.1,35.2-250.1S846,232.9,596.5,240.7L596.5,240.7z"/>
		<path class="st13" d="M112,517.4c0,0,318.9,18.2,323.1,22.6c4.2,4.4,433-278.9,433-278.9s-31.2-36.9-271.6-20.3L112,517.4z"/>
		<path class="st14" d="M587.1,343.7c-1.9-0.6-8.7,3.2-11,3.2s-1.5,0.5-4.8-1.6c-3.2-2.2-5-1.9-7.6,0c-2.6,1.9-2.8,5.4-8.2,3.1
			c-5.4-2.4-5-7.8-9.5-4.8c-4.5,3-5.2,7.4-6.5,7.7c-1.3,0.3-6.5-0.9-10-2.1c-3.5-1.2-3.7-10-7.4-2.2c-3.7,7.8-5.2,6.9-9.3,5.7
			c-4.1-1.2-5.8-5-6.7-1.5c-0.9,3.5-5.6,9.7-3.5,11.2c2.2,1.5,10.2-2.1,12.6-1.8c2.4,0.3,2.2,2.1,5,3.5c2.8,1.5,4.6,3.2,6.1,1.2
			c1.5-2.1,2.2-6.5,4.8-3.8c2.6,2.6,4.1,6.6,6.5,4.8c2.4-1.8,2.2-5,4.1-5.3c1.9-0.3,2.7,0.6,5.3,1.8c2.7,1.2,2.9,2.9,4.6,0.9
			c1.7-2.1,4.9-7.9,6.9-4.7c2,3.2-0.4,2.9,3.1,3.8c3.5,0.9,9.1,0,9.5-3.2c0.4-3.2,0.6-3.5,2.8-1.2s6.5,2.9,8.3-0.3
			c1.7-3.2-0.3-7.3,3.8-4.7c4,2.6,9.2,6.2,11.2,4.4c2-1.8,5.7-4.4,3.7-7.1c-2-2.6-4.2-7.5-7.4-8s-5,1.8-5,1.8L587.1,343.7
			L587.1,343.7z"/>
		<path class="st14" d="M583.7,313.1c-1.9-0.6-8.7,3.2-11,3.2c-2.4,0-1.5,0.5-4.8-1.6c-3.2-2.2-5-1.9-7.6,0
			c-2.6,1.9-2.8,5.4-8.2,3.1c-5.4-2.4-5-7.8-9.5-4.8c-4.5,3-5.2,7.4-6.5,7.7c-1.3,0.3-6.5-0.9-10-2.1c-3.5-1.2-3.7-10-7.4-2.2
			c-3.7,7.8-5.2,6.9-9.3,5.7c-4.1-1.2-5.8-5-6.7-1.5c-0.9,3.5-5.6,9.7-3.5,11.2c2.2,1.5,10.2-2.1,12.6-1.8c2.4,0.3,2.2,2.1,5,3.5
			c2.8,1.5,4.6,3.2,6.1,1.2c1.5-2.1,2.2-6.5,4.8-3.8c2.6,2.6,4.1,6.6,6.5,4.8c2.4-1.8,2.2-5,4.1-5.3c1.9-0.3,2.7,0.6,5.3,1.8
			c2.7,1.2,2.9,2.9,4.6,0.9c1.7-2.1,4.9-7.9,6.9-4.7c2,3.2-0.4,2.9,3.1,3.8c3.5,0.9,9.1,0,9.5-3.2c0.4-3.2,0.6-3.5,2.8-1.2
			s6.5,2.9,8.3-0.3c1.7-3.2-0.3-7.3,3.8-4.7c4,2.6,9.2,6.2,11.2,4.4c2-1.8,5.7-4.4,3.7-7.1c-2-2.6-4.2-7.5-7.4-8s-5,1.8-5,1.8
			L583.7,313.1L583.7,313.1z"/>
		<path class="st14" d="M593.9,378.6c-1.9-0.6-8.7,3.2-11,3.2c-2.4,0-1.5,0.5-4.8-1.6c-3.2-2.2-5-1.9-7.6,0
			c-2.6,1.9-2.8,5.4-8.2,3.1c-5.4-2.4-5-7.8-9.5-4.8c-4.5,3-5.2,7.4-6.5,7.7c-1.3,0.3-6.5-0.9-10-2.1c-3.5-1.2-3.7-10-7.4-2.2
			c-3.7,7.8-5.2,6.9-9.3,5.7c-4.1-1.2-5.8-5-6.7-1.5c-0.9,3.5-5.6,9.7-3.5,11.2c2.2,1.5,10.2-2.1,12.6-1.8c2.4,0.3,2.2,2.1,5,3.5
			c2.8,1.5,4.6,3.2,6.1,1.2s2.2-6.5,4.8-3.8c2.6,2.6,4.1,6.6,6.5,4.8c2.4-1.8,2.2-5,4.1-5.3s2.7,0.6,5.3,1.8
			c2.7,1.2,2.9,2.9,4.6,0.9c1.7-2.1,4.9-7.9,6.9-4.7c2,3.2-0.4,2.9,3.1,3.8c3.5,0.9,9.1,0,9.5-3.2c0.4-3.2,0.6-3.5,2.8-1.2
			c2.2,2.4,6.5,2.9,8.3-0.3c1.7-3.2-0.3-7.3,3.8-4.7c4,2.6,9.2,6.2,11.2,4.4c2-1.8,5.7-4.4,3.7-7.1c-2-2.6-4.2-7.5-7.4-8
			c-3.2-0.5-5,1.8-5,1.8L593.9,378.6L593.9,378.6z"/>
		<path class="st15" d="M439,347.2c-3.1,2.1-6.5,32.9-1.9,36.4c4.6,3.5,20.6,5.9,24.5,1.8c3.9-4.1,3.5-34.1,1.9-38.2
			C461.9,343.1,449.8,339.9,439,347.2L439,347.2z"/>
		<path class="st15" d="M438.4,347.9c0,0-5.8-5.6-1.5-8.2s26.5-4.4,27.6,0.3c1.1,4.7,1.3,9.1,0,9.1S440.8,345.3,438.4,347.9
			L438.4,347.9z"/>
		<path class="st14" d="M435.3,370.8c0,0,4.8-3,6.3-1.9c1.5,1.1,4.2,1.6,5.9,1.3c1.7-0.4,2.9,0.6,4.4,1.3c1.5,0.7,3.3,0.4,4.6,0.7
			c1.3,0.3,1.5,0,2.3,0.7c0.7,0.7,1.9,1.6,2.4,1.8c0.5,0.1,1.4,0.9,1.5,1.1c0.1,0.2,0.8,0.8,0.8,1.2c0,0.3-1.1,7.4-2.2,8.1
			c-1.1,0.8-5.1,2.4-8.4,2c-3.4-0.2-10.4-1.6-13.3-2.7c-1.7-0.8-3.2-0.8-3.7-4.1C435.4,376.9,435.1,376.1,435.3,370.8L435.3,370.8z"
			/>
		<path class="st14" d="M310.2,482.8c5-1.7,5-9.2,9.2-13.4s7.1-3.8,10.9-9.2c3.8-5.4,4.6-11.3,7.1-15.5c2.5-4.2,7.1,2.9,10.9-6.7
			c3.8-9.6-0.4-13.4,6.7-14.7c7.1-1.3,10.9-5.9,14.2-7.1c3.4-1.3,5,4,3.8,9.1c-1.3,5.2,5.9,11.9,8,13.1c2.1,1.3,2.9,14.7,8,16.8
			c5,2.1,1.7-1.7,9-0.4c7.3,1.3,8.1,9,11.1,8.1c2.9-0.9,9.8-6.6,11.6,0c1.8,6.6-0.3,8.8-7.4,10.8c-7.1,2.1-14.7,4.2-22.2,9.2
			c-7.5,5-4.6,6.3-11.3,6.3s-10.5,6.3-17.2,8.4c-6.7,2.1-28.9,4.6-32.7,8c-3.8,3.4-9.1,5-14,2.5c-4.9-2.5-8.7,9.2-14.3,4.6
			c-5.7-4.6-11.9-15.5-4.4-18C304.8,492,310.2,482.7,310.2,482.8L310.2,482.8z"/>
		<path class="st16" d="M340.9,449.1c-0.9,1.6-1.6,9.1-1.6,10.1c0,0.9-1.9,3.3-3.5,5.6c-1.6,2.3-1.9-0.2-2.5,7.9
			c-0.6,8.2-6.6,8.5-8.5,11c-1.9,2.5-1.3,7.9,1.6,9.1c2.8,1.3,5.3,2.5,8.8-2.5c3.5-5,6.6-1.9,7.2-4.7c0.6-2.8-0.3-10.9,0-11
			c0.3,0,2-1.9,3.7-6.3c1.7-4.4,1.2-6.3,0-10.4s-3.7-8.8-3.7-8.8L340.9,449.1L340.9,449.1z"/>
		<path class="st16" d="M349.3,480.2c-0.4,0.6-0.6,3.4-0.6,3.7c0,0.4-0.7,1.2-1.3,2.1c-0.6,0.9-0.7-0.1-0.9,2.9
			c-0.2,3-2.4,3.1-3.1,4.1c-0.7,0.9-0.5,2.9,0.6,3.4c1,0.5,2,0.9,3.3-0.9c1.3-1.9,2.4-0.7,2.7-1.7c0.2-1-0.1-4.1,0-4.1
			c0.1,0,0.7-0.7,1.4-2.3c0.6-1.6,0.4-2.3,0-3.8c-0.4-1.5-1.4-3.3-1.4-3.3L349.3,480.2L349.3,480.2z"/>
		<path class="st2" d="M435.1,540c0,0,9.2,263.5-1.1,265.4"/>
	</g>
</g>
</svg>
