<?xml version="1.0" encoding="utf-8"?>
<!-- Generator: Adobe Illustrator 28.3.0, SVG Export Plug-In . SVG Version: 6.00 Build 0)  -->
<svg version="1.1" id="Calque_1" xmlns="http://www.w3.org/2000/svg" xmlns:xlink="http://www.w3.org/1999/xlink" x="0px" y="0px"
	 viewBox="0 0 677 678" style="enable-background:new 0 0 677 678;" xml:space="preserve">
<style type="text/css">
	.st0{fill:#A6C2FA;}
	.st1{fill:none;stroke:#000000;stroke-width:4;stroke-miterlimit:10;}
	.st2{fill:#A6C2FA;stroke:#000000;stroke-width:4;stroke-miterlimit:10;}
	.st3{fill:#3A80FE;stroke:#000000;stroke-width:4;stroke-miterlimit:10;}
	.st4{fill:#FAD8D9;stroke:#010101;stroke-width:4;stroke-miterlimit:10;}
	.st5{fill:#E31919;}
	.st6{fill:none;stroke:#010101;stroke-width:4;stroke-miterlimit:10;}
	.st7{fill:#010101;}
	.st8{fill:#F6A032;stroke:#000000;stroke-width:3;stroke-miterlimit:10;}
	.st9{fill:#FFF8F3;stroke:#000000;stroke-width:3;stroke-miterlimit:10;}
	.st10{fill:#89736A;stroke:#000000;stroke-miterlimit:10;}
	.st11{fill:#A56344;}
	.st12{fill:#6E5D55;}
	.st13{fill:#F6A032;stroke:#000000;stroke-width:4;stroke-miterlimit:10;}
	.st14{fill:#3A80FE;}
</style>
<path class="st0" d="M218.3,248.9c0,0-81.1,90-95.3,135.1c-14.2,45.1,62.9,158.1,121.1,193.5c68.4,41.6,175.6-4.8,288.4-55.8
	c80.3-36.3-49.9-216.1-97.4-249.3s-61.4-49.4-69.3-59.5S212,247.8,217,250.1"/>
<path class="st1" d="M218.3,248.9c0,0-81.1,90-95.3,135.1c-14.2,45.1,62.9,158.1,121.1,193.5c68.4,41.6,175.6-4.8,288.4-55.8
	c80.3-36.3-49.9-216.1-97.4-249.3s-61.4-49.4-69.3-59.5S212,247.8,217,250.1"/>
<path class="st2" d="M129.9,24.8c-2.9,0.6-45,23-54,38s-19,10.5-8,39s49,63.7,88.5,69.7c42.1,6.3,39.3,19,63.8,22.5
	c48.7,7,33.9,25,47.5,40.4c20.1,22.8,33.2,22.4,49.2,21.4s34,5,41-12s22-16,0-41s-30-54-47-69s-28-9-33-33s9-32-17-46
	S232.9,4.8,129.9,24.8z"/>
<path class="st2" d="M85.2,73.6c0,0,14.8-22.1,36.7-10c21.9,12.1,14.7,26.9,14.9,30.5c0.2,3.6,13.1-9.2,22.6-3.5s30.5,33.6,22,48.7
	c-8.5,15.1-22.4,19.4-28.9,16.4c-6.5-3-11.2-8.8-11.2-8.8S51.1,96.8,85.2,73.6L85.2,73.6z"/>
<path d="M131.8,53.6c-0.5-0.2,0.1,0.2,0.2,0.5c0.2,0.4,0.4,0.8,0.7,1.2c0.6,1,1.2,2,1.7,3c1.1,1.8,2.1,3.7,3.2,5.5
	c1.1,1.8,2.2,3.7,3.2,5.5c1,1.7,2.1,3.4,2.7,5.3c0.4,1.1,1.3,1.8,2.4,1.8c1,0,2.2-0.8,2.4-1.8c0.5-3.1-0.2-6.1-1-9.2
	c-0.7-2.9-1.5-5.7-2.4-8.5c-0.9-2.8-1.9-5.5-3.1-8.2c-1-2.4-2.9-4.5-5.7-4.5c-1.5,0-3,1.6-2.4,3.2c1.7,4.3,3.4,8.7,5,13
	c0.4,1,1.2,1.8,2.4,1.8c1.1,0,2.2-0.8,2.4-1.8c1.1-5.2,0.1-10.7-2.9-15.1c-1.1-1.6-3.2-1.7-4.3,0l-0.6,0.9c-1.6,2.4,1.9,5,3.9,3
	c2-2,0.6-5.4-2.2-5.6c-2.1-0.2-4.6,1.4-5.9,3.1c-1.2,1.7-1.3,4.1,0.2,5.7c1.7,1.8,4.4,1.5,6-0.2c1.5-1.6,2.6-4.1,1.5-6.2
	c-1.1-2.1-3.8-2.4-5.8-1.8c-4.5,1.4-5.8,7.4-2.2,10.5c1,0.9,2.5,1,3.5,0c0.9-0.9,1-2.7,0-3.5c-0.5-0.4-0.9-0.9-0.6-1.6
	c0.1-0.2,0.3-0.4,0.6-0.5c0.2-0.1,0.4,0,0.5-0.1c0.2,0,0.2,0,0.2,0c-0.4,0.2-0.6-0.1-0.7-1.1c0,0-0.5,0.7-0.5,0.7
	c0.1,0.2,0.6,0,0.9,0.2c0.3,0.1,0.3,0.4,0.5,0.5c0.3,0.1-0.2,0.2,0.3,0c0.5-0.2,1-0.8,1.5-0.7l-1.3-0.3l-0.6-1.7l0.6-1.1l-0.2,0.2
	l3.9,3l0.6-0.9h-4.3c2.3,3.3,3.2,7.3,2.4,11.2h4.8c-1.7-4.3-3.3-8.7-5-13l-2.4,3.2c0.4,0,0.4,0-0.1-0.1c0.2,0,0.3,0.1,0.3,0.2
	c0.2,0.3,0.5,0.6,0.6,0.9c0.5,0.9,0.8,1.9,1.2,2.8c0.8,2.2,1.6,4.4,2.3,6.6c0.7,2.2,1.3,4.5,1.9,6.7c0.5,2.3,1.4,4.7,1.1,7h4.8
	c-1.5-4.6-4.5-8.7-7-12.9c-1.2-2.1-2.5-4.2-3.7-6.4c-1.2-2.1-2.2-4.3-4.7-5.2c-1.3-0.5-2.7,0.5-3.1,1.8
	C129.7,51.9,130.6,53.1,131.8,53.6L131.8,53.6z"/>
<path d="M159.4,84.6c3.1-0.1,5.9,1.1,8.8,2c3.1,1,6.3,1.9,9.5,2.7s6.2,1.5,9.4,2.1c2.9,0.6,6.3,1.8,8.8-0.4c0.8-0.7,0.9-2.1,0.4-3
	c-0.6-1-1.7-1.4-2.8-1.1c-0.5,0.1-0.9-0.2-1.3-0.5l0.5,3.9c0.4-0.3,1-0.5,1.5-0.5c1.3,0.2,2.7-0.3,3.1-1.8c1-3.8-3.1-5.7-6-6.8
	c-3.1-1.1-6.5-1.5-9.8-1.7c-7.1-0.5-14.3-0.9-21.4-1.4v5c5.2,0.2,10.4-0.6,15.5,0c4.8,0.5,9.2,2.7,13.4,4.7l1.3-4.7
	c-4.2-0.3-8.4-0.7-12.6-1.1c-1.4-0.1-2.5,1.2-2.5,2.5c0,1.4,1.1,2.4,2.5,2.5c4.2,0.3,8.4,0.7,12.6,1.1c2.4,0.2,3.5-3.6,1.3-4.7
	c-4.8-2.3-9.7-4.6-15-5.3c-5.3-0.7-11,0.1-16.5-0.1c-3.2-0.1-3.2,4.8,0,5c6.1,0.4,12.2,0.8,18.3,1.2c2.6,0.2,5.3,0.3,7.9,0.8
	c1.3,0.2,2.5,0.6,3.7,1c0.6,0.2,1.2,0.5,1.8,0.8c0.2,0.1,0.5,0.4,0.7,0.4c0.4,0-0.4,1.1,0-0.6l3.1-1.8c-2.4-0.4-4.5,0.1-6.4,1.7
	c-1.4,1.2-0.7,3,0.5,3.9c1.5,1.1,3.3,1.3,5.1,1l-2.4-4.2c0.2-0.2,0.4-0.1,0.2-0.2c-0.1-0.1-0.4,0-0.5,0c-0.7-0.1-1.4-0.2-2.1-0.4
	c-1.4-0.3-2.8-0.5-4.2-0.9c-3-0.6-5.9-1.4-8.9-2.2c-3-0.8-5.7-1.6-8.5-2.6c-2.8-0.9-5.7-1.8-8.7-1.7
	C156.2,79.6,156.2,84.6,159.4,84.6L159.4,84.6z"/>
<path class="st3" d="M84.1,105.7c0,0-25.9-9-29.5,2.6c-3.7,11.6-7.8,23.1,0,25.4s13.3,1.9,23,2.3c9.7,0.3-10.3,26.7,3.9,26.7
	s44-8.8,50.6-14.9C138.7,141.6,132.1,114.7,84.1,105.7L84.1,105.7z"/>
<path class="st3" d="M203.2,33.9c0,0,53.8-42.7,75.2-29.3c21.4,13.4,11.9,31.6,19,38s9.5,25.3,6.3,39.2s2.4,49.3-12.7,42.7
	C276,117.8,226.1,32.3,203.2,33.9L203.2,33.9z"/>
<path class="st4" d="M109.5,71.7c-3.2,0.2-30.4,14-21.4,25.8s29.5,24.3,35.4,15.5C129.5,104.3,136.6,69.8,109.5,71.7L109.5,71.7z"/>
<path class="st5" d="M106.3,94.7c-0.6-0.1-1.2-0.2-1.8,0.2c-0.5,0.4-0.5,1.1-0.4,1.7c0.1,0.8,0.5,1.5,0.8,2.1
	c0.2,0.4,0.4,0.7,0.5,1.1c0.1,0.1,0.3,0.5,0.1,0.6c-0.1,0.1-0.3,0.2-0.4,0.2c-0.5,0.2-1,0.5-1.2,1.1c-0.3,0.7,0,1.3,0.2,2
	c0.2,0.9-0.4,1.6-0.7,2.3s-0.3,1.6-0.3,2.4c0.1,0.8,1.3,0.8,1.2,0c-0.1-0.7,0-1.4,0.2-2.1c0.2-0.6,0.6-1.1,0.8-1.8s-0.1-1.2-0.3-1.9
	c-0.2-0.8,0.3-0.8,0.9-1.1c1.2-0.6,0.8-1.8,0.3-2.9c-0.3-0.6-0.6-1.2-0.8-1.9c-0.1-0.2-0.3-0.8-0.2-1c0.1-0.1,0.5,0,0.7,0
	C106.8,96.1,107.1,94.9,106.3,94.7z"/>
<path class="st5" d="M104.4,91.4c-0.6,0.2-1.4-0.6-2-0.8c-0.6-0.1-1.2-0.1-1.8,0.1c-0.3,0.1-0.6,0.2-0.8,0.4
	c-0.2,0.2-0.6,0.6-0.9,0.6c-0.5,0-1.3-0.8-1.7-1c-1.1-0.5-2.7-0.6-3.9-0.2c-0.4,0.1-0.8,0.5-0.7,0.9c0,0.4,0.5,0.6,0.6,1l0.3-0.7
	c-0.8,0.5-1.9,0.6-2.8,0.3c-0.8-0.3-1.4-0.8-2.4-0.6c-0.8,0.1-0.5,1.3,0.3,1.2c0.5-0.1,1.1,0.4,1.5,0.6s0.9,0.3,1.3,0.3
	c0.9,0.1,1.8-0.2,2.6-0.6c0.3-0.2,0.3-0.4,0.3-0.7c0-0.2-0.1-0.4-0.2-0.5c-0.1-0.1-0.1-0.2-0.2-0.2c-0.1-0.2-0.2-0.1-0.1,0.1
	l-0.3,0.4c0.4-0.3,1.2-0.2,1.6-0.2c0.6,0,1.2,0.1,1.7,0.4c0.7,0.4,1.4,1.2,2.3,1c1-0.2,1.5-1.3,2.7-1.1c1.1,0.2,1.7,1.1,2.8,0.8
	C105.5,92.4,105.2,91.2,104.4,91.4L104.4,91.4z"/>
<path class="st5" d="M98.8,91.2c0.2-1,0.1-1.9-0.3-2.8c-0.2-0.5-0.5-0.9-0.8-1.3c-0.1-0.2-0.3-0.3-0.5-0.5c-0.1-0.1-0.2-0.2-0.3-0.3
	l-0.1-0.1c0,0.2,0,0.3,0.1,0.2c0.2,0,0.4-0.3,0.6-0.4c0.2-0.2,0.3-0.4,0.4-0.6c0.1-0.4,0.1-0.9-0.1-1.4c-0.1-0.4-0.3-1-0.6-1.3
	c-0.1-0.2-0.3-0.4-0.5-0.6c-0.1-0.1-0.2-0.2-0.3-0.2l-0.1,0c-0.1-0.1-0.1-0.1,0,0c0-0.8-1.2-0.8-1.2,0c0,0.5,0.3,0.8,0.7,1.1
	c0.4,0.3,0.6,0.7,0.7,1.1c0.1,0.3,0.3,0.8,0.1,1.1c-0.1,0.1-0.3,0.2-0.5,0.3c-0.2,0.2-0.4,0.4-0.5,0.6c-0.2,0.5,0.1,0.9,0.5,1.2
	c0.4,0.3,0.7,0.6,0.9,1c0.5,0.8,0.7,1.7,0.5,2.6C97.4,91.7,98.7,92,98.8,91.2L98.8,91.2z"/>
<path class="st5" d="M110.5,88.6c0.8-0.2,1.9-0.5,2.5-1.1c0.6-0.6,0.3-1.4-0.2-2c-0.1-0.1-0.3-0.2-0.4-0.4c-0.2-0.2-0.2-0.1-0.1-0.3
	c0.2-0.2,0.6-0.4,0.9-0.6c0.5-0.5,0.7-1.1,1-1.7c0.3-0.6,0.5-1.2,1.3-1.2c0.8,0,1.6,0.2,2.3-0.4c0.6-0.5,1-1.3,1-2.1
	c0-0.5-0.1-0.9-0.3-1.4c-0.1-0.5,0.2-0.6,0.5-0.9c0.3-0.2,0.3-0.4,0.3-0.7c0-0.2-0.1-0.5-0.1-0.7c-0.1-0.8-1.3-0.5-1.2,0.3
	c0,0.2,0.1,0.5,0.1,0.7l0.3-0.7c-0.6,0.4-1.2,0.8-1.2,1.6c0,0.9,0.7,1.7,0.1,2.5c-0.5,0.8-1.6,0.3-2.3,0.4c-0.6,0.1-1.1,0.5-1.5,1.1
	c-0.3,0.5-0.5,1.2-0.8,1.7c-0.3,0.5-1.1,0.7-1.4,1.3c-0.4,0.7-0.1,1.4,0.5,1.9c0.1,0.1,0.4,0.3,0.4,0.4c0,0.2-0.1,0.2-0.3,0.3
	c-0.5,0.2-1,0.4-1.6,0.5C109.4,87.5,109.8,88.7,110.5,88.6L110.5,88.6L110.5,88.6z"/>
<path class="st5" d="M116.7,82.1c0.5,0.1,0.8,0.8,1.2,1c0.5,0.4,1,0.6,1.6,0.7c0.3,0,0.4,0,0.6,0.3c0.1,0.2,0.3,0.5,0.4,0.7
	c0.3,0.5,0.8,0.9,1.3,1.2c0.5,0.3,1,0.5,1.5,0.7c0.4,0.1,0.5,0.2,0.7,0.6c0.2,0.3,0.3,0.6,0.5,0.8c0.6,1,1.7,1.7,2.9,1.2
	c0.7-0.3,0.1-1.4-0.6-1.1c-1,0.5-1.6-1.7-2.1-2.2c-0.4-0.4-0.9-0.5-1.5-0.7c-0.5-0.2-1-0.5-1.4-0.9c-0.4-0.4-0.5-0.8-0.8-1.2
	c-0.3-0.5-0.8-0.6-1.3-0.6c-0.5-0.1-1-0.3-1.4-0.8c-0.4-0.4-0.7-0.8-1.2-0.9C116.2,80.6,115.9,81.9,116.7,82.1L116.7,82.1
	L116.7,82.1z"/>
<path class="st5" d="M113.2,95.5l2.4,0.9l1.1,0.4c0.3,0.1,0.7,0.2,0.9,0.5c0.3,0.5,0.1,1.2,0.3,1.7c0.2,0.5,0.6,0.9,1,1.2
	s1.1,0.5,1.6,0.6c0.3,0.1,0.6,0.1,0.8,0.3s0.3,0.5,0.4,0.8c0.5,1.3,2,1.6,2.7,2.8c0.4,0.7,1.5,0.1,1.1-0.6c-0.4-0.6-0.8-1.1-1.4-1.5
	c-0.3-0.2-0.6-0.3-0.8-0.6c-0.2-0.2-0.4-0.5-0.5-0.8c-0.2-0.7-0.6-1.1-1.3-1.4c-0.6-0.2-1.2-0.3-1.8-0.6c-1.2-0.7-0.4-2.3-1.5-3.1
	c-0.6-0.5-1.5-0.6-2.2-0.9l-2.6-0.9C112.8,94,112.4,95.2,113.2,95.5L113.2,95.5z"/>
<path class="st5" d="M121.6,100c0.2-0.3,0.5-0.6,0.9-0.7c0.2-0.1,0.4-0.1,0.6-0.1c0.2,0,0.5,0.1,0.8,0.1c0.3,0,0.6-0.1,0.8-0.2
	c0.1-0.1,0.2-0.2,0.3-0.3c0.1-0.1,0.1-0.2,0.2-0.3c0.1-0.1,0.3,0,0.4,0c0.3,0,0.6,0.1,1,0.1c0.3,0,0.6-0.3,0.6-0.6
	c0-0.4-0.3-0.6-0.6-0.6c-0.6-0.1-1.4-0.2-1.9,0.1c-0.3,0.2-0.5,0.4-0.7,0.7c0,0-0.1,0.1,0,0c0.1,0,0,0,0,0c-0.1,0-0.2,0-0.3-0.1
	c-1.2-0.2-2.5,0.2-3.1,1.3C120.1,100.1,121.2,100.7,121.6,100L121.6,100L121.6,100z"/>
<path class="st5" d="M106.8,101.5c0.7-0.1,0.5,0.9,0.7,1.4c0.2,0.4,0.6,0.7,1,0.9c0.5,0.3,0.9,0.5,1.2,0.9c0.4,0.6,0.8,1.2,1.1,1.9
	c0.3,0.6,0.5,1.3,0.4,2.1c-0.1,0.6-0.4,1.2-0.2,1.8c0.2,0.6,0.6,0.8,1.1,1.1s0.6,0.9,0.4,1.4c-0.2,0.8,1,1.1,1.2,0.3
	c0.2-0.6,0.2-1.2-0.1-1.8c-0.1-0.3-0.3-0.5-0.5-0.7s-0.6-0.3-0.8-0.6c-0.2-0.3,0-0.8,0.1-1.1c0.1-0.4,0.1-0.7,0-1.1
	c-0.1-0.8-0.3-1.5-0.7-2.2c-0.3-0.7-0.7-1.4-1.2-2c-0.4-0.5-1-0.8-1.5-1.1c-0.2-0.1-0.4-0.2-0.5-0.5c-0.1-0.3,0-0.7-0.2-1
	c-0.3-0.6-1-1-1.6-0.9C106,100.3,105.9,101.6,106.8,101.5L106.8,101.5z"/>
<path class="st5" d="M112.2,107.9c0.9,0.4,1.7,0.2,2.6,0.2c1,0.1,1.2,1.1,1.9,1.7c0.3,0.3,0.7,0.5,1.1,0.5c0.5,0,0.9-0.3,1.4-0.1
	s0.9,0.6,1.3,0.9c0.5,0.4,1,0.7,1.5,1.1c0.7,0.5,1.3-0.6,0.6-1.1c-0.5-0.3-0.9-0.7-1.4-1.1c-0.4-0.3-0.9-0.7-1.3-0.9
	c-0.4-0.2-0.9-0.4-1.4-0.2c-0.2,0.1-0.4,0.2-0.7,0.2c-0.2,0-0.3-0.2-0.5-0.3c-0.6-0.7-0.9-1.5-1.9-1.8c-0.8-0.2-1.9,0.2-2.7-0.2
	C112.1,106.5,111.5,107.6,112.2,107.9L112.2,107.9z"/>
<path class="st5" d="M108.2,88.1c-0.5-1.1-0.9-2.2-1.8-3c-0.3-0.3-1-0.6-0.9-1.1c0.1-0.5,0.6-1,0.8-1.4c0.6-1.2,0-2.3-0.6-3.3
	c-0.3-0.6-0.4-1.2-0.8-1.8c-0.2-0.2-0.3-0.4-0.6-0.6c-0.1-0.1-0.2-0.1-0.4-0.2c0,0-0.3-0.1-0.3-0.1l0.2,0.4v-0.1
	c0.1-0.8-1.2-0.8-1.2,0c0,0.6,0.5,0.7,0.9,0.9c0.5,0.3,0.7,1.2,0.9,1.7c0.3,0.6,0.6,1.1,0.8,1.7c0.2,0.6-0.2,1.1-0.5,1.6
	c-0.6,0.9-0.7,1.9,0.2,2.7c1,0.8,1.5,1.8,2,3C107.2,89.1,108.4,88.8,108.2,88.1L108.2,88.1L108.2,88.1z"/>
<path class="st5" d="M106.3,80.9c0.8-0.1,1.7-0.4,2-1.2c0.3-0.7,0.2-1.6-0.5-2v1.1c0.5-0.2,0.9-0.6,1.3-1c0.4-0.4,0.8-0.8,1.1-1.3
	c0.2-0.3,0.3-0.5,0.3-0.9c0-0.1,0-0.3-0.1-0.4c0,0-0.1-0.1-0.1-0.2c0,0.1,0,0.1,0,0c0-0.1,0.1-0.2,0.1-0.4c0-0.1,0.1-0.3,0.1-0.4
	c0-0.3-0.1-0.6-0.3-0.8c-0.6-0.6-1.5,0.3-0.9,0.9c0,0,0-0.1,0-0.1c0,0.1,0,0.2-0.1,0.2c-0.1,0.2-0.1,0.4-0.1,0.7
	c0,0.1,0,0.3,0.1,0.4c0,0,0,0.1,0.1,0.1c0,0.1,0,0.1,0-0.1c-0.1,0.1-0.2,0.3-0.3,0.4c-0.3,0.3-0.6,0.7-0.9,1
	c-0.3,0.3-0.5,0.5-0.9,0.7c-0.4,0.2-0.4,0.9,0,1.1c0.1,0,0.1,0,0.1,0.2c0,0.1,0,0.2-0.1,0.3c-0.2,0.4-0.8,0.4-1.2,0.5
	c-0.3,0-0.5,0.5-0.4,0.8C105.7,80.8,106,80.9,106.3,80.9L106.3,80.9z"/>
<path class="st6" d="M109.5,71.7c-3.2,0.2-30.4,14-21.4,25.8s29.5,24.3,35.4,15.5C129.5,104.2,136.6,69.8,109.5,71.7L109.5,71.7z"/>
<path class="st7" d="M111.3,91.1c-0.3-0.4-0.6-0.8-1.1-1c-0.3-0.2-0.7-0.3-1-0.3c-0.2,0-0.3-0.1-0.5-0.1c-0.5,0-1,0.2-1.5,0.4
	c-0.6,0.4-1.1,1-1.3,1.7c-0.1,0.5-0.1,1,0,1.5c0,0.1,0,0.1,0,0.2c0.1,0.2,0.2,0.5,0.3,0.7c0.3,0.4,0.6,0.8,1.1,1
	c0.4,0.2,0.8,0.4,1.2,0.4c0.6,0.1,1.2,0,1.9-0.2c0.3-0.1,0.6-0.2,0.9-0.4c0.4-0.3,0.8-0.7,1.1-1.1c0.3-0.6,0.4-1.2,0.3-1.8
	c-0.1-0.5-0.2-0.9-0.4-1.3c-0.4-0.6-0.9-1-1.5-1.4c-0.4-0.3-0.9-0.6-1.4-0.7c-1.1-0.3-2.2,0.1-3,0.9c-0.5,0.6-0.8,1.1-1.1,1.8
	c-0.2,0.7-0.2,1.4-0.1,2.1c0,0.1,0,0.1,0,0.2c0.1,0.2,0.2,0.5,0.3,0.7c0.3,0.4,0.6,0.8,1.1,1.1c0.6,0.4,1.3,0.4,2,0.5
	c0.8,0.1,1.7,0,2.5-0.4c0.2-0.1,0.5-0.2,0.7-0.3c0.5-0.4,0.8-0.6,1.1-1.1c0.3-0.5,0.5-1,0.5-1.6c0-0.3,0-0.6-0.1-0.8
	c-0.1-0.4-0.3-0.7-0.5-1c-0.5-0.7-1.2-1.1-2-1.4c-0.5-0.2-1.1-0.2-1.7-0.2l0.7,0.1c0,0-0.1,0-0.1,0l0.6,0.2l0,0l0.9,0.9l0,0l0.3,1.3
	v-0.1l-0.1,0.7l0-0.1l-0.6,1.1l0,0l-0.5,0.4c0,0,0.1,0,0.1-0.1l-0.6,0.2c0.4-0.2,0.9-0.2,1.3-0.4c0.6-0.2,1.2-0.6,1.5-1.2
	c0.3-0.6,0.5-1.3,0.2-1.9c-0.2-0.5-0.4-0.9-0.7-1.3c-0.1-0.1-0.2-0.2-0.4-0.3c-0.1-0.1-0.2-0.2-0.4-0.3c-0.6-0.3-1.2-0.4-1.9-0.5
	c-1.2-0.1-2.4,0.2-3.2,1.1c-0.2,0.2-0.4,0.5-0.5,0.7c-0.2,0.3-0.3,0.6-0.4,0.9c-0.2,0.7-0.1,1.2,0,1.9c0,0.2,0.1,0.4,0.2,0.6
	c0.1,0.2,0.2,0.4,0.3,0.6c0.4,0.6,0.9,1,1.5,1.4c0.8,0.5,1.9,0.7,2.9,0.8c1.3,0,2.6-0.5,3.4-1.6c0.5-0.6,0.8-1.3,0.8-2.1
	c0-0.2,0-0.3-0.1-0.5c0-0.2,0-0.3-0.1-0.5c-0.1-0.3-0.2-0.7-0.4-0.9s-0.4-0.6-0.6-0.8s-0.5-0.4-0.8-0.6c-0.7-0.3-1.3-0.5-2.1-0.5
	c-0.2,0-0.3,0-0.5,0c-0.4,0-0.7,0.1-1.1,0.2c-0.5,0.1-1,0.3-1.4,0.6c-0.9,0.5-1.7,1.3-2.2,2.2c-0.3,0.6-0.4,1.3-0.2,1.9
	c0.2,0.6,0.6,1.2,1.2,1.5c0.6,0.3,1.3,0.5,1.9,0.2c0.6-0.2,1.2-0.6,1.5-1.2c0.1-0.2,0.2-0.3,0.3-0.4l-0.4,0.5
	c0.2-0.2,0.4-0.4,0.6-0.6l-0.5,0.4c0.2-0.2,0.5-0.3,0.8-0.4l-0.6,0.2c0.2-0.1,0.5-0.2,0.8-0.2l-0.7,0.1c0.3,0,0.5,0,0.8,0l-0.7-0.1
	c0.2,0,0.3,0.1,0.5,0.1l-0.6-0.2c0.1,0.1,0.3,0.1,0.4,0.2l-0.5-0.4c0.1,0.1,0.2,0.2,0.2,0.2l-0.4-0.5c0.1,0.1,0.1,0.2,0.2,0.3
	l-0.2-0.6c0,0.1,0,0.2,0.1,0.3l-0.1-0.7v0.3l0.1-0.7c0,0.1,0,0.2-0.1,0.2l0.2-0.6c-0.1,0.1-0.1,0.2-0.2,0.3l0.4-0.5
	c-0.1,0.1-0.2,0.2-0.2,0.2l0.5-0.4c-0.1,0.1-0.2,0.2-0.3,0.2l0.6-0.2c-0.2,0.1-0.3,0.1-0.4,0.1l0.7-0.1c-0.3,0-0.6,0-0.8,0l0.7,0.1
	c-0.3,0-0.6-0.1-0.9-0.2l0.6,0.2c-0.2-0.1-0.4-0.2-0.5-0.3l0.5,0.4c-0.1-0.1-0.2-0.2-0.3-0.3l0.4,0.5c-0.1-0.1-0.1-0.2-0.2-0.3
	l0.2,0.6c-0.1-0.1-0.1-0.2-0.1-0.4l0.1,0.7c0-0.1,0-0.3,0-0.4l-0.1,0.7c0-0.1,0-0.2,0.1-0.4l-0.2,0.6c0-0.1,0.1-0.2,0.1-0.2
	l-0.4,0.5c0.1-0.1,0.1-0.1,0.2-0.2l-0.5,0.4c0.1-0.1,0.2-0.1,0.2-0.1l-0.6,0.2c0.1,0,0.2-0.1,0.4-0.1l-0.7,0.1c0.3,0,0.5,0,0.8,0
	l-0.7-0.1c0.2,0,0.3,0.1,0.5,0.1l-0.6-0.2c0.1,0,0.2,0.1,0.2,0.1l-0.5-0.4c0,0,0.1,0.1,0.1,0.1l-0.4-0.5c0,0,0.1,0.1,0.1,0.1
	l-0.2-0.6l0,0.1l1.8-3.1c-0.3,0.1-0.6,0.2-0.9,0.3c-0.1,0-0.3,0.1-0.4,0.1c-0.6,0.2-1.1,0.5-1.4,1c-0.2,0.3-0.4,0.6-0.5,0.9
	c-0.1,0.4-0.1,0.7,0,1.1s0.1,0.6,0.3,1c0.2,0.3,0.6,0.7,0.9,0.9c0.4,0.2,0.9,0.4,1.4,0.4c0.2,0,0.3,0,0.4,0l-0.7-0.1
	c0.2,0,0.4,0.1,0.6,0.2L109,94c0.2,0.1,0.3,0.2,0.5,0.3l-0.5-0.4c0.1,0.1,0.1,0.1,0.2,0.2l-0.4-0.5c0,0,0,0.1,0.1,0.1l-0.2-0.6v0.1
	c0-0.2,0-0.4-0.1-0.7v0.1l0.1-0.7c0,0,0,0.1,0,0.1l0.2-0.6c0,0.1-0.1,0.1-0.1,0.2l0.4-0.5c-0.1,0.1-0.1,0.1-0.2,0.2l0.5-0.4
	c-0.1,0.1-0.2,0.2-0.4,0.2l0.6-0.2c-0.2,0.1-0.3,0.1-0.5,0.1l0.7-0.1c-0.4,0.1-0.8,0-1.2,0l0.7,0.1c-0.1,0-0.3,0-0.4-0.1l0.6,0.2
	c0,0-0.1,0-0.1-0.1l0.5,0.4c0,0-0.1-0.1-0.1-0.1l0.4,0.5c0,0-0.1-0.1-0.1-0.2l0.2,0.6c0-0.1-0.1-0.2-0.1-0.2l0.1,0.7
	c0-0.1,0-0.2,0-0.3l-0.1,0.7c0-0.2,0.1-0.3,0.1-0.5l-0.2,0.6c0.1-0.2,0.2-0.3,0.3-0.5l-0.4,0.5c0.1-0.1,0.2-0.2,0.3-0.3l-0.5,0.4
	l0.1,0l-0.6,0.2c0,0,0.1,0,0.1,0l-0.7,0.1h0.1l-0.7-0.1c0.1,0,0.1,0,0.1,0l-0.6-0.2c0.3,0.2,0.7,0.4,0.9,0.6l-0.5-0.4
	c0.1,0.1,0.2,0.2,0.4,0.4l-0.4-0.5c0,0.1,0.1,0.1,0.1,0.2l-0.2-0.6c0,0.1,0,0.1,0.1,0.2l-0.1-0.7v0.1L108,92l0,0.1l0.2-0.6
	c0,0,0,0.1-0.1,0.1l0.4-0.5c0,0-0.1,0.1-0.1,0.1l0.5-0.4c-0.1,0-0.1,0.1-0.2,0.1l0.6-0.2c-0.2,0.1-0.4,0.1-0.6,0.2l0.7-0.1
	c-0.1,0-0.2,0-0.4,0l0.7,0.1c-0.1,0-0.1,0-0.2-0.1l0.6,0.2c0,0-0.1,0-0.1-0.1l0.5,0.4c0,0-0.1-0.1-0.1-0.1l0.4,0.5
	c0,0-0.1-0.1-0.1-0.2l0.2,0.6c0,0,0-0.1-0.1-0.2l0.1,0.7v-0.2l-0.1,0.7c0,0,0-0.1,0-0.1l-0.2,0.6c0,0,0-0.1,0.1-0.1l-0.4,0.5l0,0
	l-0.5,0.4c0,0,0.1,0,0.1-0.1l-0.6,0.2c0,0,0.1,0,0.1,0l-0.7,0.1h0.2l-0.7-0.1c0,0,0.1,0,0.1,0l-0.6-0.2c0,0,0.1,0,0.1,0.1l-0.5-0.4
	l0,0l-0.4-0.5l0,0c0.2,0.3,0.4,0.5,0.6,0.7c0.2,0.2,0.5,0.4,0.8,0.4c0.6,0.2,1.4,0.1,1.9-0.2c0.5-0.3,1-0.9,1.2-1.5
	C111.7,92.3,111.7,91.6,111.3,91.1L111.3,91.1L111.3,91.1z"/>
<path class="st4" d="M149.7,105.8c-3.2,0.2-30.4,14-21.4,25.8s29.5,24.3,35.4,15.5C169.7,138.3,176.8,103.8,149.7,105.8L149.7,105.8
	z"/>
<path class="st5" d="M146.6,128.8c-0.6-0.1-1.2-0.2-1.8,0.2c-0.5,0.4-0.5,1.1-0.4,1.7c0.1,0.8,0.5,1.5,0.8,2.1
	c0.2,0.4,0.4,0.7,0.6,1.1c0.1,0.1,0.3,0.5,0.1,0.6c-0.1,0.1-0.3,0.1-0.4,0.2c-0.6,0.2-1,0.5-1.2,1.1c-0.3,0.7,0,1.3,0.2,2
	c0.2,0.9-0.4,1.6-0.7,2.3c-0.3,0.8-0.4,1.6-0.3,2.4c0.1,0.8,1.3,0.8,1.2,0c-0.1-0.7,0-1.4,0.2-2.1c0.2-0.6,0.6-1.1,0.8-1.8
	c0.1-0.6-0.1-1.2-0.3-1.9c-0.2-0.8,0.3-0.8,0.9-1.1c1.2-0.6,0.8-1.9,0.3-2.9c-0.3-0.6-0.6-1.2-0.8-1.9c-0.1-0.2-0.3-0.8-0.2-1
	c0.1-0.1,0.5,0,0.7,0C147,130.1,147.3,128.9,146.6,128.8z"/>
<path class="st5" d="M144.7,125.5c-0.6,0.2-1.4-0.6-2-0.8c-0.6-0.2-1.2-0.1-1.8,0.1c-0.3,0.1-0.6,0.2-0.8,0.4s-0.6,0.6-0.9,0.6
	c-0.6,0-1.3-0.8-1.7-1c-1.1-0.5-2.7-0.6-3.9-0.2c-0.4,0.1-0.8,0.4-0.7,0.9c0,0.4,0.5,0.6,0.6,1l0.3-0.7c-0.9,0.5-1.9,0.6-2.8,0.3
	c-0.9-0.3-1.4-0.8-2.4-0.6c-0.8,0.1-0.5,1.3,0.3,1.2c0.5-0.1,1.1,0.4,1.5,0.5c0.5,0.2,0.9,0.3,1.3,0.3c0.9,0.1,1.9-0.2,2.6-0.6
	c0.3-0.2,0.3-0.4,0.3-0.7c0-0.2-0.1-0.4-0.2-0.5c-0.1-0.1-0.1-0.2-0.2-0.2c-0.1-0.2-0.1-0.1-0.1,0.1l-0.3,0.4
	c0.4-0.3,1.2-0.2,1.6-0.2c0.6,0,1.2,0.1,1.7,0.4c0.7,0.4,1.3,1.2,2.3,1c1-0.2,1.5-1.3,2.7-1.1c1.1,0.1,1.7,1.1,2.8,0.8
	C145.8,126.5,145.4,125.3,144.7,125.5L144.7,125.5L144.7,125.5z"/>
<path class="st5" d="M139.1,125.2c0.2-1,0.1-1.9-0.3-2.8c-0.2-0.5-0.5-0.9-0.8-1.3c-0.1-0.2-0.3-0.3-0.5-0.5
	c-0.1-0.1-0.2-0.2-0.3-0.3l-0.1-0.1c0,0.2,0,0.3,0.1,0.2c0.2,0,0.4-0.3,0.6-0.4c0.2-0.2,0.3-0.4,0.4-0.6c0.1-0.5,0.1-0.9-0.1-1.4
	s-0.3-0.9-0.6-1.3c-0.1-0.2-0.3-0.4-0.5-0.6c-0.1-0.1-0.2-0.2-0.3-0.2l-0.1-0.1c-0.1-0.1-0.1-0.1,0,0c0-0.8-1.2-0.8-1.2,0
	c0,0.5,0.3,0.8,0.7,1.1c0.4,0.3,0.6,0.7,0.7,1.1c0.1,0.3,0.3,0.8,0.1,1.1c-0.1,0.1-0.3,0.2-0.5,0.3c-0.2,0.2-0.4,0.4-0.5,0.6
	c-0.2,0.5,0.1,0.9,0.5,1.2c0.4,0.3,0.7,0.6,0.9,1c0.5,0.8,0.7,1.7,0.5,2.6C137.7,125.7,138.9,126,139.1,125.2L139.1,125.2z"/>
<path class="st5" d="M150.8,122.6c0.8-0.2,1.9-0.5,2.5-1.1c0.6-0.6,0.3-1.4-0.2-2c-0.1-0.1-0.3-0.2-0.4-0.4c-0.2-0.2-0.2-0.1,0-0.3
	c0.2-0.2,0.6-0.4,0.9-0.6c0.5-0.5,0.7-1.1,1-1.7s0.5-1.2,1.3-1.2c0.8,0,1.6,0.2,2.3-0.4c0.6-0.5,0.9-1.3,1-2.1
	c0-0.5-0.1-0.9-0.3-1.4s0.1-0.6,0.5-0.9c0.3-0.2,0.3-0.4,0.3-0.7c0-0.2-0.1-0.5-0.1-0.7c-0.1-0.8-1.3-0.5-1.2,0.3
	c0,0.2,0.1,0.5,0.1,0.7l0.3-0.7c-0.6,0.3-1.2,0.8-1.2,1.6c0,0.9,0.7,1.7,0.1,2.6c-0.5,0.8-1.6,0.3-2.3,0.4c-0.6,0.1-1.1,0.5-1.5,1.1
	s-0.5,1.2-0.9,1.7c-0.3,0.5-1.1,0.7-1.4,1.3c-0.4,0.7-0.1,1.4,0.5,1.9c0.1,0.1,0.4,0.3,0.4,0.4c0,0.2-0.1,0.2-0.3,0.3
	c-0.5,0.2-1,0.4-1.6,0.5C149.7,121.5,150,122.8,150.8,122.6L150.8,122.6L150.8,122.6z"/>
<path class="st5" d="M156.9,116.1c0.4,0.1,0.8,0.8,1.2,1c0.5,0.4,1,0.6,1.6,0.7c0.3,0,0.4,0,0.6,0.3c0.1,0.2,0.3,0.5,0.4,0.7
	c0.3,0.5,0.8,0.9,1.3,1.2s1,0.5,1.5,0.7c0.4,0.1,0.5,0.2,0.7,0.6c0.1,0.3,0.3,0.6,0.4,0.8c0.6,1,1.7,1.7,2.9,1.2
	c0.7-0.3,0.1-1.4-0.6-1.1c-1,0.5-1.6-1.7-2.1-2.2c-0.4-0.4-0.9-0.5-1.5-0.7s-1-0.5-1.4-0.9c-0.4-0.4-0.5-0.8-0.8-1.2
	c-0.4-0.5-0.8-0.6-1.3-0.6c-0.6-0.1-1-0.3-1.4-0.8c-0.4-0.4-0.7-0.8-1.2-0.9C156.4,114.7,156.1,115.9,156.9,116.1L156.9,116.1
	L156.9,116.1z"/>
<path class="st5" d="M153.4,129.5l2.4,0.9l1.1,0.4c0.3,0.1,0.7,0.2,0.9,0.5c0.3,0.5,0.1,1.2,0.3,1.7s0.6,0.9,1.1,1.2
	s1.1,0.5,1.6,0.6c0.3,0.1,0.6,0.1,0.8,0.3c0.2,0.2,0.3,0.5,0.4,0.8c0.5,1.3,2,1.6,2.7,2.8c0.4,0.7,1.5,0.1,1.1-0.6
	c-0.4-0.6-0.8-1.1-1.4-1.5c-0.3-0.2-0.6-0.4-0.8-0.6c-0.2-0.2-0.3-0.5-0.5-0.8c-0.2-0.7-0.6-1.1-1.3-1.4c-0.6-0.2-1.2-0.3-1.8-0.6
	c-1.2-0.7-0.4-2.3-1.5-3.1c-0.6-0.5-1.5-0.6-2.2-0.9l-2.6-0.9C153,128,152.7,129.2,153.4,129.5L153.4,129.5z"/>
<path class="st5" d="M161.8,134c0.2-0.4,0.5-0.6,0.9-0.7c0.2-0.1,0.4-0.1,0.6-0.1c0.2,0,0.5,0.1,0.8,0.1c0.3,0,0.6-0.1,0.9-0.2
	c0.1-0.1,0.2-0.2,0.3-0.3c0.1-0.1,0.1-0.2,0.2-0.3c0.1-0.1,0.3-0.1,0.4,0c0.3,0,0.6,0.1,0.9,0.1c0.3,0,0.6-0.3,0.6-0.6
	c0-0.4-0.3-0.6-0.6-0.6c-0.6-0.1-1.4-0.2-1.9,0.1c-0.3,0.2-0.5,0.4-0.6,0.7c0,0-0.1,0.1,0,0c0.1,0,0,0,0,0c-0.1,0-0.2,0-0.3-0.1
	c-1.2-0.2-2.5,0.2-3.1,1.3C160.3,134.1,161.4,134.7,161.8,134L161.8,134L161.8,134z"/>
<path class="st5" d="M147,135.5c0.7-0.1,0.5,0.9,0.7,1.4c0.2,0.4,0.6,0.7,1,0.9c0.5,0.3,0.9,0.5,1.2,0.9c0.4,0.6,0.8,1.2,1.1,1.9
	c0.3,0.6,0.5,1.4,0.4,2.1c-0.1,0.6-0.4,1.2-0.2,1.8s0.6,0.8,1.1,1.1s0.6,0.9,0.4,1.4c-0.2,0.8,1,1.1,1.2,0.3
	c0.2-0.6,0.2-1.2-0.1-1.8c-0.1-0.3-0.3-0.5-0.5-0.7c-0.2-0.2-0.6-0.3-0.8-0.6c-0.2-0.3,0-0.8,0.1-1.1c0.1-0.4,0.1-0.7,0.1-1.1
	c-0.1-0.8-0.4-1.5-0.7-2.2c-0.3-0.7-0.7-1.4-1.2-2c-0.4-0.5-1-0.8-1.5-1.1c-0.2-0.1-0.4-0.2-0.5-0.5c-0.1-0.4,0-0.7-0.2-1
	c-0.3-0.6-0.9-1-1.6-0.9C146.2,134.3,146.2,135.6,147,135.5L147,135.5L147,135.5z"/>
<path class="st5" d="M152.4,141.9c0.9,0.4,1.7,0.2,2.6,0.2c1,0.1,1.2,1.1,1.9,1.7c0.3,0.3,0.7,0.5,1.1,0.5c0.5,0,0.9-0.4,1.4-0.1
	c0.5,0.2,0.9,0.6,1.3,0.9c0.5,0.4,1,0.7,1.5,1.1c0.7,0.5,1.3-0.6,0.6-1.1c-0.5-0.3-0.9-0.7-1.4-1.1c-0.4-0.3-0.9-0.7-1.3-0.9
	c-0.4-0.2-0.9-0.4-1.4-0.2c-0.2,0.1-0.4,0.2-0.6,0.2c-0.2,0-0.3-0.2-0.5-0.3c-0.6-0.7-0.9-1.5-1.9-1.8c-0.9-0.2-1.9,0.2-2.7-0.2
	C152.4,140.5,151.7,141.6,152.4,141.9L152.4,141.9z"/>
<path class="st5" d="M148.4,122.1c-0.4-1.1-0.9-2.2-1.8-3c-0.3-0.3-1-0.6-0.9-1.1c0.1-0.5,0.6-1,0.8-1.4c0.6-1.2,0-2.3-0.6-3.3
	c-0.3-0.6-0.4-1.2-0.8-1.8c-0.1-0.2-0.3-0.4-0.6-0.6c-0.1-0.1-0.2-0.2-0.4-0.2c0,0-0.4-0.1-0.3-0.1l0.2,0.4v-0.1
	c0.1-0.8-1.2-0.8-1.2,0c0,0.6,0.5,0.7,0.9,0.9c0.5,0.3,0.6,1.2,0.9,1.7c0.3,0.6,0.7,1.1,0.8,1.7c0.2,0.6-0.2,1.1-0.5,1.6
	c-0.6,0.9-0.7,1.9,0.2,2.7c1,0.8,1.5,1.8,2,3C147.5,123.2,148.7,122.8,148.4,122.1L148.4,122.1L148.4,122.1z"/>
<path class="st5" d="M146.6,114.9c0.8-0.1,1.7-0.4,2-1.2c0.3-0.7,0.2-1.6-0.6-2v1.1c0.5-0.2,0.9-0.6,1.3-1c0.4-0.4,0.8-0.8,1.1-1.3
	c0.2-0.3,0.3-0.6,0.3-0.9c0-0.1,0-0.3-0.1-0.4c0,0-0.1-0.1-0.1-0.1c0,0.1,0,0.1,0,0c0-0.1,0.1-0.2,0.1-0.4c0-0.1,0.1-0.3,0.1-0.4
	c0-0.3-0.1-0.6-0.3-0.8c-0.6-0.6-1.5,0.3-0.9,0.9c0,0-0.1-0.1,0-0.1c0,0.1-0.1,0.2-0.1,0.2c-0.1,0.2-0.1,0.4-0.1,0.7
	c0,0.1,0.1,0.3,0.1,0.4c0,0,0,0.1,0.1,0.1c0,0.1,0,0.1,0-0.1c-0.1,0.1-0.2,0.3-0.3,0.4c-0.3,0.3-0.6,0.7-0.9,1
	c-0.3,0.3-0.5,0.5-0.9,0.7c-0.4,0.2-0.4,0.9,0,1.1c0.1,0,0.1,0,0.1,0.2c0,0.1,0,0.2-0.1,0.3c-0.2,0.4-0.8,0.4-1.2,0.5
	c-0.3,0-0.5,0.5-0.4,0.8C145.9,114.8,146.2,115,146.6,114.9L146.6,114.9z"/>
<path class="st6" d="M149.7,105.8c-3.2,0.2-30.4,14-21.4,25.8s29.5,24.3,35.4,15.5C169.7,138.3,176.8,103.8,149.7,105.8L149.7,105.8
	z"/>
<path class="st7" d="M151.5,125.1c-0.3-0.4-0.6-0.8-1.1-1c-0.3-0.2-0.7-0.3-1-0.3c-0.2,0-0.3-0.1-0.5-0.1c-0.5,0-1,0.2-1.5,0.4
	c-0.6,0.4-1.1,1-1.3,1.7c-0.1,0.5-0.1,1,0,1.5c0,0.1,0,0.1,0.1,0.2c0.1,0.2,0.2,0.5,0.3,0.7c0.3,0.4,0.6,0.8,1.1,1.1
	c0.4,0.2,0.8,0.3,1.2,0.4c0.6,0.1,1.2,0,1.9-0.2c0.3-0.1,0.6-0.2,0.9-0.4c0.4-0.3,0.8-0.7,1.1-1.1c0.3-0.6,0.4-1.2,0.3-1.8
	c-0.1-0.5-0.2-0.9-0.4-1.3c-0.4-0.6-0.9-1-1.5-1.4c-0.4-0.3-0.9-0.6-1.4-0.7c-1.1-0.3-2.2,0.1-3,0.9c-0.5,0.6-0.8,1.1-1.1,1.8
	c-0.2,0.7-0.2,1.4-0.1,2.1c0,0.1,0,0.1,0,0.2c0.1,0.2,0.2,0.5,0.3,0.7c0.3,0.5,0.6,0.9,1.1,1.1c0.6,0.4,1.3,0.4,2,0.5
	c0.8,0.1,1.7,0,2.5-0.4c0.2-0.1,0.5-0.2,0.7-0.3c0.5-0.4,0.8-0.6,1.1-1.1c0.3-0.5,0.5-1.1,0.5-1.6c0-0.3,0-0.6-0.1-0.8
	c-0.1-0.4-0.3-0.7-0.5-1c-0.5-0.7-1.2-1.1-2-1.4c-0.5-0.2-1.1-0.2-1.7-0.2l0.7,0.1c0,0-0.1,0-0.1,0l0.6,0.2l0,0l0.9,0.9l0,0l0.3,1.3
	v-0.1l-0.1,0.7l0-0.1l-0.6,1.1l0,0l-0.5,0.4c0,0,0.1-0.1,0.1-0.1l-0.6,0.2c0.4-0.1,0.9-0.2,1.3-0.4c0.6-0.2,1.2-0.6,1.5-1.2
	c0.3-0.6,0.5-1.3,0.2-1.9c-0.2-0.5-0.4-0.9-0.7-1.3c-0.1-0.1-0.2-0.2-0.4-0.3c-0.1-0.1-0.2-0.2-0.4-0.3c-0.6-0.3-1.2-0.4-1.9-0.5
	c-1.1-0.1-2.4,0.2-3.2,1.1c-0.2,0.2-0.4,0.5-0.5,0.7c-0.1,0.3-0.3,0.6-0.4,0.9c-0.1,0.7-0.1,1.2,0,1.9c0,0.2,0.1,0.4,0.2,0.6
	c0.1,0.2,0.2,0.4,0.3,0.6c0.4,0.6,0.9,1,1.5,1.4c0.8,0.5,1.9,0.7,2.9,0.8c1.3,0,2.6-0.5,3.4-1.6c0.5-0.6,0.8-1.3,0.8-2.1
	c0-0.2,0-0.3-0.1-0.5c0-0.2,0-0.3-0.1-0.5c-0.1-0.3-0.2-0.7-0.4-0.9c-0.2-0.3-0.4-0.6-0.6-0.8s-0.5-0.4-0.8-0.6
	c-0.7-0.3-1.3-0.5-2.1-0.5c-0.2,0-0.3,0-0.5,0c-0.4,0-0.7,0.1-1.1,0.2c-0.5,0.1-1,0.3-1.4,0.6c-0.9,0.5-1.7,1.3-2.2,2.2
	c-0.3,0.6-0.4,1.3-0.2,1.9c0.2,0.6,0.6,1.2,1.1,1.5c0.6,0.3,1.3,0.5,1.9,0.2c0.6-0.2,1.2-0.6,1.5-1.2c0.1-0.2,0.2-0.3,0.3-0.4
	l-0.4,0.5c0.2-0.2,0.4-0.4,0.6-0.6l-0.5,0.4c0.2-0.2,0.5-0.3,0.8-0.4l-0.6,0.2c0.2-0.1,0.5-0.2,0.8-0.2l-0.7,0.1c0.3,0,0.5,0,0.8,0
	l-0.7-0.1c0.2,0,0.3,0.1,0.5,0.1l-0.6-0.2c0.1,0.1,0.3,0.1,0.4,0.2l-0.5-0.4c0.1,0.1,0.2,0.2,0.2,0.2l-0.4-0.5
	c0.1,0.1,0.1,0.2,0.2,0.3l-0.2-0.6c0,0.1,0.1,0.2,0.1,0.3l-0.1-0.7v0.3l0.1-0.7c0,0.1,0,0.2-0.1,0.2l0.2-0.6
	c-0.1,0.1-0.1,0.2-0.2,0.3l0.4-0.5c-0.1,0.1-0.1,0.2-0.2,0.2l0.5-0.4c-0.1,0.1-0.2,0.2-0.4,0.2l0.6-0.2c-0.2,0.1-0.3,0.1-0.4,0.1
	l0.7-0.1c-0.3,0-0.6,0-0.8,0l0.7,0.1c-0.3,0-0.6-0.1-0.9-0.2l0.6,0.2c-0.2-0.1-0.4-0.2-0.5-0.3l0.5,0.4c-0.1-0.1-0.2-0.2-0.3-0.3
	l0.4,0.5c-0.1-0.1-0.1-0.2-0.2-0.3l0.2,0.6c-0.1-0.1-0.1-0.2-0.1-0.4l0.1,0.7c0-0.1,0-0.3,0-0.4l-0.1,0.7c0-0.1,0-0.2,0.1-0.4
	l-0.2,0.6c0-0.1,0.1-0.2,0.1-0.2l-0.4,0.5c0.1-0.1,0.1-0.1,0.2-0.2l-0.5,0.4c0.1-0.1,0.1-0.1,0.2-0.1l-0.6,0.2
	c0.1,0,0.2-0.1,0.4-0.1l-0.7,0.1c0.3,0,0.5,0,0.8,0l-0.7-0.1c0.2,0,0.3,0.1,0.5,0.1l-0.6-0.2c0.1,0,0.2,0.1,0.2,0.1l-0.5-0.4
	c0,0,0.1,0.1,0.1,0.1l-0.4-0.5c0,0,0.1,0.1,0.1,0.1l-0.2-0.6l0,0.1l1.8-3.1c-0.3,0.1-0.6,0.2-0.9,0.3c-0.1,0-0.3,0.1-0.4,0.1
	c-0.6,0.2-1.1,0.5-1.4,1c-0.2,0.3-0.4,0.6-0.5,0.9c-0.1,0.4-0.1,0.7,0,1.1s0.1,0.6,0.3,1c0.2,0.3,0.6,0.7,0.9,0.9
	c0.4,0.2,0.9,0.4,1.4,0.4c0.1,0,0.3,0,0.4,0l-0.7-0.1c0.2,0,0.4,0.1,0.6,0.2l-0.6-0.2c0.2,0.1,0.3,0.2,0.5,0.3l-0.5-0.4
	c0.1,0.1,0.1,0.1,0.2,0.2l-0.4-0.5c0,0,0.1,0.1,0.1,0.1l-0.2-0.6v0.1c0-0.2,0-0.4-0.1-0.7v0.1l0.1-0.7c0,0,0,0.1,0,0.1l0.2-0.6
	c0,0.1-0.1,0.1-0.1,0.2l0.4-0.5c-0.1,0.1-0.1,0.1-0.2,0.2l0.5-0.4c-0.1,0.1-0.2,0.2-0.4,0.2l0.6-0.2c-0.2,0.1-0.4,0.1-0.5,0.1
	l0.7-0.1c-0.4,0.1-0.8,0-1.2,0l0.7,0.1c-0.1,0-0.3,0-0.4-0.1l0.6,0.2c0,0-0.1,0-0.1-0.1l0.5,0.4c0,0-0.1-0.1-0.1-0.1l0.4,0.5
	c0,0-0.1-0.1-0.1-0.2l0.2,0.6c0-0.1-0.1-0.2-0.1-0.2l0.1,0.7c0-0.1,0-0.2,0-0.3l-0.1,0.7c0-0.2,0.1-0.3,0.1-0.5l-0.2,0.6
	c0.1-0.2,0.2-0.3,0.3-0.5l-0.4,0.5c0.1-0.1,0.2-0.2,0.3-0.3l-0.5,0.4l0.1,0l-0.6,0.2c0,0,0.1,0,0.1,0l-0.7,0.1h0.1l-0.7-0.1
	c0,0,0.1,0,0.1,0l-0.6-0.2c0.3,0.2,0.7,0.4,0.9,0.6l-0.5-0.4c0.1,0.1,0.2,0.2,0.4,0.4l-0.4-0.5c0,0.1,0.1,0.1,0.1,0.2l-0.2-0.6
	c0,0.1,0,0.1,0.1,0.2l-0.1-0.7v0.1l0.1-0.7l0,0.1l0.2-0.6c0,0,0,0.1-0.1,0.1l0.4-0.5c0,0-0.1,0.1-0.1,0.1l0.5-0.4
	c-0.1,0.1-0.1,0.1-0.2,0.1l0.6-0.2c-0.2,0.1-0.4,0.1-0.6,0.2l0.7-0.1c-0.1,0-0.2,0-0.4,0l0.7,0.1c-0.1,0-0.1,0-0.2-0.1l0.6,0.2
	c0,0-0.1,0-0.1-0.1l0.5,0.4l-0.1-0.1l0.4,0.5c0,0-0.1-0.1-0.1-0.2l0.2,0.6c0,0,0-0.1-0.1-0.2l0.1,0.7v-0.2l-0.1,0.7c0,0,0-0.1,0-0.1
	l-0.2,0.6c0,0,0-0.1,0.1-0.1l-0.4,0.5l0,0l-0.5,0.4c0,0,0.1,0,0.1-0.1l-0.6,0.2c0,0,0.1,0,0.1,0l-0.7,0.1h0.2l-0.7-0.1
	c0,0,0.1,0,0.1,0l-0.6-0.2c0,0,0.1,0,0.1,0.1l-0.5-0.4l0,0l-0.4-0.5l0,0c0.2,0.3,0.4,0.5,0.6,0.7c0.2,0.2,0.5,0.4,0.8,0.4
	c0.6,0.2,1.4,0.1,1.9-0.2c0.5-0.3,1-0.9,1.1-1.5C151.9,126.4,151.9,125.6,151.5,125.1L151.5,125.1z"/>
<path class="st8" d="M81.7,141.7c0,0,12.1,10.1,25.9,6s17.6-8.7,17.6-8.7S120.3,132.7,81.7,141.7L81.7,141.7z"/>
<path class="st9" d="M84.7,137.1c-14.9,0.6-57.6-15.8-69.3-8.2c-11.7,7.6-20.9,33.2-6.6,32.9c14.2-0.3,76.9-7.9,78.5-15.5
	C88.8,138.7,87.2,137,84.7,137.1L84.7,137.1z"/>
<path class="st8" d="M128.9,128.5c0,0-35.8-29.2-50.8-13.9c-13.8,14-18.7,26.3-18.7,29.8s62.2-13,63.5-5.5
	C124.2,146.4,128.9,128.5,128.9,128.5L128.9,128.5z"/>
<path class="st1" d="M297.4,42.6c0,0-8.9,46-22.1,29.7"/>
<path d="M259,280.8c-0.5,3-1.1,6-1.6,9c-0.4,2.4-0.9,5.2,1.2,7.1c2.3,2.1,5.5,0.8,7.2-1.3c2-2.4,3.6-5.3,5.4-7.9l-3.4,0.9
	c-0.7-0.5-0.5-1.3-0.6-0.2c0,0.3,0,0.6-0.1,1c0,0.9,0.1,1.9,0.6,2.8c0.7,1.2,2.3,1.8,2.7,3.1c0.4,1.4,0,3.2-0.1,4.6
	c-0.2,1.8-0.2,3.6,0.2,5.3c1,3.9,3.9,7.2,6.2,10.4c2.6,3.7,5.3,7.4,7.9,11.2c0.7,1,2.2,1.7,3.4,0.9c4.3-2.9,7.9-6.7,10.7-11.1
	c2.8-4.4,4.2-9.1,5.2-14.1c0.1-0.8,0.3-1.8,0.9-2.3c0.5-0.4,1-0.4,1.7-0.1c2,0.7,3,2.6,4,4.4c1.3,2.3,2.6,4.6,4.8,6
	c2.6,1.7,5.7,1.2,7.3-1.5c1.8-3,3.3-6.3,5-9.4s3.4-6.4,5.1-9.5c1.5-2.8-2.8-5.4-4.3-2.5c-2.9,5.5-5.8,11-8.7,16.4
	c-0.4,0.7-0.8,1.5-1.1,2.2c-0.1,0.1-0.4,0.6-0.4,0.6c0,0,0.5-0.1,0.5-0.2c-0.1,0.3-1.9-1.5-1.9-1.5c-1.5-1.9-2.4-4.3-3.9-6.3
	c-3.1-3.8-9.5-5.8-12.5-0.8c-1.2,2.1-1.3,4.6-1.9,6.9c-0.6,2.3-1.4,4.5-2.4,6.6c-2.4,4.8-6,8.9-10.4,11.9l3.4,0.9
	c-2.7-3.8-5.4-7.6-8.1-11.4c-1.3-1.8-2.6-3.5-3.8-5.4c-1-1.5-1.9-3.1-2-4.9c-0.1-3.5,1.3-7.1-0.6-10.3c-0.5-0.8-1.1-1.5-1.8-2
	c-0.6-0.5-0.7-0.4-0.7-1c0.1-2-0.1-3.7-1.9-4.9c-1.2-0.8-2.7-0.2-3.4,0.9c-1.3,1.9-2.6,3.9-3.9,5.8c-0.4,0.6-0.9,1.2-1.4,1.8
	c-0.5,0.6-0.5,0,0,0.2c0.1,0,0.4,0.3,0.5,0.2c-0.1,0,0-1.2,0.1-1.4c0.2-1,0.4-2,0.6-3.1l1.2-6.6c0.2-1.3-0.4-2.7-1.8-3.1
	C260.9,278.8,259.3,279.5,259,280.8L259,280.8z"/>
<path d="M199.6,349.3c-1.8,4.4-2.6,9.1-1.1,13.7c1.3,4,3.9,7.4,5,11.5c1,3.8,0.7,8-0.9,11.6c-0.2,0.4-0.4,0.9-0.6,1.3
	c-0.1,0.2-0.6,0.8-0.6,1s0.3-0.1,0.3-0.1c0-0.1-0.5-0.5-0.6-0.7c-0.9-1.5-0.9-3.5-1.8-5.1c-2.4-4.3-7.8-3.6-10.5,0
	c-1.4,1.9-1.7,4.2-1.9,6.4c-0.1,1.7-0.1,3.7-1.3,5.1c-2,2.5-5.1-2.7-6.2-4.1c-1.8-2.1-4.4-1.8-6.3,0c-1.5,1.5-2.5,3.4-3.6,5.3
	c-0.8,1.4-1.9,3.4-3.7,3.7c-1.9,0.3-4-1.9-5.2-3c-3.6-3.2-6.6-7-8.8-11.3c-1.5-2.9-5.8-0.3-4.3,2.5c2.1,4.1,4.9,7.8,8.2,11
	c3.1,3,7.5,7.1,12.2,5.4c2.2-0.8,3.8-2.5,5.1-4.4c1.1-1.7,1.9-3.7,3.2-5.2c0,0,0.6-0.5,0.6-0.6l0.1-0.1h-1.1c0,0.1,0.6,0.9,0.7,1
	c0.7,0.9,1.4,1.8,2.2,2.6c1.5,1.5,3.4,2.7,5.6,2.7c5.1,0.1,7.1-5,7.5-9.2c0.2-1.7,0-4.1,1.4-5.4c0.9-0.9,1.5-0.7,2,0.5
	c0.8,2.1,1,4.1,2.5,5.9s4.1,2.5,6.3,1.2c2-1.2,3.1-4,3.8-6.1s1.2-4.4,1.3-6.7c0.1-2.5-0.2-5.1-1-7.6c-0.8-2.4-2-4.7-3.2-7
	c-1.1-2.1-2.1-4.4-2.2-6.7c-0.1-2.7,0.7-5.3,1.7-7.8c0.5-1.2-0.6-2.8-1.8-3.1C201.2,347.1,200,348,199.6,349.3L199.6,349.3z"/>
<path d="M451.4,328.9c-3,4.1-5.9,8.1-8.9,12.2c-2.5,3.4-5.5,7.5-3.1,11.9c1,1.8,2.8,3.1,4.9,3.1c1,0,1.9-0.3,2.8-0.5
	c1.5-0.4,0.1,0,0.4-0.1c0.4-0.2,0.4,0.3,0-0.1c-0.2-0.2-0.2-0.5-0.3-0.3c0,0.1,0,0.4,0,0.5c0,3.4-2.4,6.4-4.1,9.1
	c-1.7,2.7-5.3,8.3-2.4,11.3c1.7,1.7,4.5,1.3,6.6,1.3c2.5,0,4.9,0,7.4-0.1c0.3,0,0.6,0,0.9,0c0.3,0,0.3,0.1,0.2,0
	c0.1,0.1-0.6-0.6-0.4-0.6c0.1,0-0.4,1.5-0.5,1.8c-1,2-2,3.9-2.6,6.1c-1.3,4.2-1.5,9.1,0.6,13.1c1.1,2,2.9,3.6,5.2,3.9
	c2.7,0.3,5-1.4,7.2-2.6c4.9-2.8,9.8-5.5,14.7-8.2c2.8-1.6,0.3-5.9-2.5-4.3c-4.1,2.3-8.2,4.6-12.4,6.9c-1,0.6-2,1.1-3,1.7
	c-0.9,0.5-1.9,1.2-2.9,1.6c-1.2,0.4-1.9-0.9-2.3-1.9c-1.4-3.5-0.4-7.8,1.1-11.2c1.4-3.1,4.5-8.1,0.2-10.5c-1.1-0.6-2.3-0.6-3.5-0.6
	c-1.3,0-2.6,0-4,0c-1.4,0-2.8,0-4.2,0c-0.7,0-1.3,0-2,0c-0.9,0-0.4-0.1-0.2,0.2l0.3,1.3c-0.2-1.4,0.7-3,1.4-4.2
	c0.8-1.5,1.7-2.9,2.6-4.3c1.8-2.9,3.4-6,3.5-9.4c0-2.1-0.7-4.2-2.7-5c-1-0.4-2-0.4-3.1-0.1c-0.6,0.1-1.5,0.6-2,0.5
	c-0.6-0.1-0.9-1.4-0.7-2.2c0.4-1.8,1.8-3.4,2.9-4.8c3.1-4.2,6.1-8.4,9.2-12.6c0.8-1.1,0.2-2.8-0.9-3.4
	C453.6,327.3,452.2,327.8,451.4,328.9L451.4,328.9z"/>
<path class="st10" d="M16.6,128.2c0,0-9,7.1-11.4,12.8c-2.4,5.6-5.1,15.7-2.6,17.9c2.6,2.3,3.4,2.1,5,2.1S28.9,128.2,16.6,128.2z"/>
<path class="st11" d="M11.9,140.5c0.6,0.1,1.2,0.2,1.7,0.4c0.3,0.1,0.7,0.1,1,0c0.3,0,0.6-0.1,0.9-0.3c0.3-0.2,0.5-0.4,0.7-0.6
	c0.2-0.2,0.4-0.5,0.4-0.8l0.1-0.7c0-0.4-0.1-0.9-0.3-1.3l-0.4-0.5c-0.3-0.3-0.7-0.5-1.1-0.6c-0.6-0.2-1.1-0.3-1.7-0.4
	c-0.3-0.1-0.7-0.1-1,0c-0.3,0-0.6,0.1-0.9,0.3c-0.3,0.2-0.5,0.4-0.7,0.6c-0.2,0.2-0.4,0.5-0.4,0.8l-0.1,0.7c0,0.4,0.1,0.9,0.3,1.3
	l0.4,0.5C11.1,140.2,11.5,140.4,11.9,140.5z"/>
<path class="st11" d="M3.4,152.2c0,0.2,0,0.3,0,0.5c0,0.3,0.1,0.6,0.1,0.8c0,0.1,0,0.2,0,0.2c0,0.1,0,0.1,0.1,0.2
	c0.1,0.3,0.2,0.5,0.3,0.8c0.1,0.1,0.1,0.3,0.2,0.4c0.2,0.3,0.4,0.5,0.6,0.7c0.2,0.2,0.5,0.4,0.8,0.5c0.3,0.1,0.7,0.1,1,0
	c0.3,0,0.6-0.1,0.9-0.3l0.5-0.4c0.3-0.3,0.5-0.7,0.6-1.1l0.1-0.7c0-0.4-0.1-0.9-0.3-1.3c-0.1-0.2-0.2-0.3-0.3-0.5l0.2,0.6
	c-0.1-0.2-0.1-0.4-0.2-0.6l0.1,0.7c0-0.2,0-0.4,0-0.6c0-0.3-0.1-0.7-0.2-1c-0.1-0.3-0.3-0.6-0.5-0.8c-0.2-0.2-0.5-0.4-0.8-0.5
	c-0.3-0.2-0.6-0.2-1-0.2l-0.7,0.1c-0.4,0.1-0.8,0.3-1.1,0.6l-0.4,0.5C3.6,151.3,3.4,151.7,3.4,152.2L3.4,152.2z"/>
<path class="st11" d="M6.9,144.9c0,0.2,0.1,0.4,0.2,0.6c0.1,0.3,0.2,0.6,0.4,0.9c0.1,0.1,0.1,0.2,0.2,0.3c0.2,0.3,0.4,0.5,0.6,0.7
	c0.2,0.2,0.5,0.4,0.9,0.4c0.3,0.1,0.7,0.1,1,0c0.3,0,0.6-0.1,0.9-0.3l0.5-0.4c0.3-0.3,0.5-0.7,0.6-1.1l0.1-0.7
	c0-0.5-0.1-0.9-0.3-1.3c-0.1-0.1-0.2-0.3-0.2-0.5l0.2,0.6c-0.1-0.2-0.2-0.5-0.2-0.7c-0.1-0.3-0.2-0.6-0.4-0.9
	c-0.2-0.3-0.4-0.5-0.7-0.6c-0.3-0.2-0.6-0.3-0.9-0.3c-0.3-0.1-0.7-0.1-1,0L8,142.1c-0.4,0.2-0.7,0.5-0.9,0.9l-0.2,0.6
	C6.7,144,6.7,144.5,6.9,144.9L6.9,144.9z"/>
<path class="st11" d="M18.2,135.2l1-0.9c0.2-0.2,0.4-0.5,0.5-0.8c0.2-0.3,0.2-0.6,0.2-1c0-0.3-0.1-0.7-0.2-1
	c-0.1-0.3-0.3-0.6-0.5-0.8l-0.5-0.4c-0.4-0.2-0.8-0.3-1.3-0.3l-0.7,0.1c-0.4,0.1-0.8,0.3-1.1,0.6l-1,0.9c-0.2,0.2-0.4,0.5-0.5,0.8
	c-0.2,0.3-0.2,0.6-0.2,1c0,0.3,0.1,0.7,0.2,1c0.1,0.3,0.3,0.6,0.5,0.8l0.5,0.4c0.4,0.2,0.8,0.3,1.3,0.3l0.7-0.1
	C17.6,135.7,17.9,135.5,18.2,135.2z"/>
<path class="st12" d="M7.4,147.7c-0.1,0.6,0.1,1.3,0.6,1.6c0.2,0.2,0.6,0.2,0.8,0.2c0.5,0,0.7-0.5,0.8-0.9c0-0.6-0.4-1.1-1-1.3
	c-0.3-0.1-0.5-0.1-0.8-0.1c-0.5,0.1-0.8,0.5-0.6,1c0.1,0.3,0.3,0.6,0.5,0.8c0.2,0.2,0.5,0.4,0.8,0.5c0.2,0.1,0.6-0.1,0.7-0.3
	c0.2-0.4,0.3-0.8,0.2-1.2c-0.1-0.4-0.4-0.8-0.9-0.8c-0.6,0-0.9,0.5-0.9,1c0,0.4,0.1,0.8,0.3,1.1c0.2,0.3,0.6,0.5,1,0.5
	c0.2,0,0.4,0,0.6-0.1c0.3-0.2,0.4-0.4,0.4-0.7c0-0.3,0-0.6-0.1-0.9c-0.1-0.4-0.4-0.7-0.8-0.9c-0.4-0.1-0.8-0.1-1.1-0.2s-0.8,0-1.2,0
	c-0.2,0-0.5,0.2-0.6,0.4c-0.1,0.2,0,0.5,0.1,0.7c0.7,0.8,1.7,1.4,2.8,1.7c0.3,0.1,0.7-0.1,0.8-0.4c0.1-0.3-0.1-0.7-0.4-0.8
	c-0.1,0-0.2-0.1-0.3-0.1c-0.1,0-0.1,0-0.2-0.1c0,0-0.1,0-0.1,0c-0.1,0,0.1,0,0,0c-0.2-0.1-0.4-0.2-0.6-0.3C8.2,148,8.1,148,8,147.9
	c0,0,0,0-0.1-0.1c-0.1-0.1,0.1,0.1,0,0c0,0-0.1-0.1-0.1-0.1c-0.2-0.2-0.4-0.3-0.5-0.5l-0.4,1.1c0.5,0,0.9,0,1.4,0c0.1,0,0.1,0,0.2,0
	c0.1,0,0.2,0,0,0c0.1,0,0.2,0,0.3,0.1c0.1,0,0,0,0,0c0,0,0,0,0.1,0c0,0,0,0,0.1,0c0,0-0.1-0.1,0,0c0.1,0.1-0.1-0.1,0,0
	c0,0,0,0.1,0,0.1c0,0-0.1-0.1,0-0.1c0,0,0,0.1,0,0.1c0,0,0,0,0,0.1c0,0,0,0.1,0-0.1c0,0.1,0,0.2,0,0.3c0,0,0,0.2,0,0.1
	c0-0.1,0,0,0,0c0-0.1,0.1-0.2,0.3-0.3c-0.1,0,0.1,0,0,0c0,0-0.1,0-0.1,0c0,0,0.1,0,0.1,0c0,0-0.2-0.1-0.1,0s0,0-0.1,0
	c0.1,0.1-0.1-0.1,0,0l-0.1-0.1c0,0,0.1,0.1,0,0c0,0,0-0.1,0-0.1c0,0,0,0.1,0,0.1c0,0,0-0.1,0-0.1c0,0,0,0.1,0,0.1c0,0,0,0,0-0.1
	c0,0,0-0.1,0-0.1c0,0,0,0.1,0,0.1c0,0,0-0.1,0-0.1c0,0-0.1,0.1,0,0.1c0,0-0.1,0.1,0,0c-0.1,0.1-0.2,0.1-0.3,0.1
	c-0.1,0-0.3-0.1-0.4-0.2c0,0,0,0.1,0,0c0-0.1,0,0,0,0c0,0,0,0.1,0,0c0-0.1,0,0,0,0c0,0,0,0,0,0.1c0,0.1,0-0.1,0,0c0,0.1,0,0.1,0,0.2
	c0,0,0,0,0,0.1c0,0.1,0.1-0.1,0,0l0.7-0.3c0,0-0.1,0-0.1,0c-0.1,0,0.1,0,0,0c-0.1,0-0.1-0.1-0.2-0.1c0,0,0,0-0.1,0
	c-0.1-0.1,0.1,0.1,0,0c0,0-0.1-0.1-0.1-0.1c0,0,0,0-0.1-0.1c-0.1-0.1,0.1,0.1,0,0c0,0-0.1-0.1-0.1-0.2c0,0,0,0.2,0,0.1v0.1
	c-0.5,0.4-0.7,0.5-0.4,0.5c0.1,0,0.1,0,0.2,0c0,0,0.1,0,0.1,0c0,0-0.1,0-0.1,0c0.1,0,0.1,0,0.2,0.1c0.1,0-0.1-0.1,0,0c0,0,0,0,0.1,0
	c0.1,0.1-0.1-0.1,0,0c0.1,0.1,0,0,0,0c-0.1-0.1,0,0,0,0c0.1,0.1,0,0,0-0.1c0,0,0,0.2,0,0.1c0-0.1,0,0,0,0c0,0,0-0.2,0-0.1
	s0-0.1,0-0.1c0,0-0.1,0.1-0.1,0.1l0.5-0.3c0,0-0.1,0-0.1,0c-0.1,0,0,0,0,0c0,0-0.2-0.1-0.1,0c0.1,0,0,0,0,0c0,0,0,0-0.1,0
	c-0.1,0,0.1,0.1,0,0c0,0-0.1-0.1-0.1-0.1c-0.1-0.1,0,0,0,0c0,0,0-0.1,0-0.1c0-0.1,0,0,0,0c0,0,0-0.1,0-0.1c0,0,0-0.1,0-0.1
	c0,0.1,0,0.1,0,0.1c0,0,0,0,0,0c0,0,0,0,0-0.1c0-0.1,0,0.2,0,0c0.1-0.3-0.1-0.7-0.4-0.8C7.8,147.1,7.5,147.3,7.4,147.7L7.4,147.7z"
	/>
<path class="st12" d="M10.6,140c-0.3,0.4-0.7,0.8-0.9,1.3c-0.1,0.2-0.3,0.5-0.3,0.7c-0.1,0.4,0,0.7,0.2,1c0.2,0.3,0.7,0.3,1,0.2
	s0.6-0.4,0.8-0.6c0.3-0.4,0.5-1,0.4-1.5c0-0.4-0.1-0.7-0.4-0.9c-0.4-0.3-0.8-0.2-1.2,0c-0.2,0.1-0.4,0.3-0.6,0.4
	c-0.3,0.2-0.5,0.6-0.4,1c0.2,0.7,1.1,0.9,1.6,0.5s0.7-1.1,0.5-1.7c-0.2-0.4-0.7-0.7-1.1-0.6c-0.4,0.1-0.6,0.4-0.8,0.7
	c-0.2,0.3-0.4,0.7-0.3,1.1c0,0.2,0.2,0.4,0.4,0.5c0.2,0.1,0.6,0.1,0.8,0c0.1-0.1,0.2-0.2,0.3-0.4c0-0.1,0-0.3-0.1-0.5
	c-0.2-0.3-0.6-0.4-0.9-0.2c0.1-0.1,0.3-0.1,0.5,0c0.1,0.1,0.2,0.2,0.2,0.4v0.1c0-0.1,0-0.1,0,0c0,0,0-0.1,0-0.1
	c0.1-0.2,0.2-0.3,0.3-0.4c0.1-0.1-0.1,0.1,0,0c0,0,0.1-0.1,0.1-0.1c0,0-0.1,0.1,0,0c-0.1,0-0.2,0.1-0.3,0l-0.1,0c0.1,0,0,0,0,0
	c0.1,0.1-0.1-0.1,0,0c0,0,0-0.1,0,0c0,0,0,0.1,0,0.1c0-0.1,0-0.1,0-0.1c0,0,0,0.1,0,0.1c0,0.1,0-0.1,0-0.1c0,0,0,0.1,0,0.1v0
	c0,0.1,0,0,0-0.1c0,0,0,0.1,0,0.1c0,0.1,0,0,0,0l0,0c0,0,0,0,0.1,0c0,0,0,0-0.1,0c-0.1,0,0,0,0.1,0c0,0-0.1,0-0.1,0
	c-0.1,0,0.2,0,0,0c-0.1,0,0.2,0,0.1,0c-0.1,0,0.1,0.1,0,0c0,0-0.1-0.1,0.1,0.1l0,0c0.1,0.1,0.2,0.3,0.1,0.5c-0.1,0.1,0,0.1,0,0
	c0,0,0.1-0.1,0.1-0.1c0,0,0,0,0.1-0.1l0,0c0.1,0,0,0,0,0c0.1,0,0.1-0.1,0.2-0.1c0.1,0,0.2-0.1,0.2-0.1l-0.1,0c0,0,0.1,0,0.1,0
	c0,0,0.2,0,0,0h0c-0.1,0-0.2,0-0.3-0.1l-0.1-0.1c0,0.1,0,0,0-0.1c0,0,0,0.1,0,0.1V141c0,0,0,0.1,0,0.1c0,0.1,0,0.2,0,0.2
	c0,0,0,0.1,0,0.1c0,0.1,0,0.1,0-0.1c0,0,0,0.1,0,0.1c0,0.1,0,0.1-0.1,0.2c0,0,0,0.1,0,0.1v0c0,0.1,0,0.1,0,0c0,0-0.1,0.1-0.1,0.2
	c0,0,0,0.1-0.1,0.1c0,0,0,0,0,0.1c0,0.1,0,0,0,0c0,0-0.1,0.1-0.1,0.1l0.1,0c0,0,0,0-0.1,0l0.1,0c-0.1,0,0,0,0.1,0c0,0-0.1,0-0.1,0
	h0.1c-0.1,0,0,0,0.1,0l0.1,0.1c0.1,0.1,0.1,0.1,0,0c0,0.1,0,0.1,0,0.1c0,0.1,0,0.1,0,0.1c0,0,0-0.1,0-0.1c0,0.1,0,0.1,0,0.1
	c0,0,0,0,0-0.1v0c0-0.1,0,0,0,0.1c0,0,0-0.1,0.1-0.1c0.1-0.2,0.2-0.3,0.3-0.5c0.1-0.2,0.2-0.3,0.3-0.4c0,0,0.1-0.1,0,0
	c-0.1,0.1,0-0.1,0.1-0.1c0.1-0.1,0.1-0.1,0.2-0.2c0.2-0.2,0.3-0.6,0-0.9c-0.2-0.2-0.7-0.3-0.9,0L10.6,140z"/>
<path class="st12" d="M11.2,144.8C11.3,144.8,11.2,144.7,11.2,144.8C11.3,144.8,11.1,144.6,11.2,144.8c0,0-0.1-0.1,0-0.1
	C11.2,144.7,11.2,144.7,11.2,144.8c0,0.1,0,0.3,0,0.5c0,0.3,0,0.7,0,1c0,0.3,0.2,0.6,0.5,0.6c0.3,0,0.6-0.2,0.7-0.4
	c0.2-0.5,0.2-1.1,0.1-1.6c-0.1-0.3-0.4-0.5-0.7-0.4c-0.3,0-0.5,0.3-0.5,0.6c0,0.4,0,0.8,0.1,1.3c0,0.2,0.1,0.4,0.3,0.6
	c0.3,0.3,0.7,0.3,1,0.1c0.3-0.3,0.4-0.8,0.5-1.2c0.1-0.5,0.1-0.9,0-1.3c-0.1-0.2-0.3-0.4-0.5-0.4c-0.2,0-0.5,0.1-0.6,0.3
	c-0.3,0.6-0.6,1.3-0.8,2c0,0.2-0.1,0.4,0,0.7c0.1,0.2,0.2,0.5,0.4,0.6c0.4,0.2,0.9,0.1,1.3-0.2c0.3-0.3,0.4-0.7,0.5-1
	s0.2-0.7,0.2-1.1c0-0.1,0-0.3,0-0.5c0-0.2-0.1-0.5-0.1-0.7c-0.2-0.3-0.5-0.5-0.8-0.4c-0.3,0.1-0.4,0.3-0.6,0.5
	c-0.4,0.7-0.6,1.5-0.6,2.3c0,0.2,0.1,0.5,0.4,0.6c0.2,0.1,0.5,0,0.7-0.1c0.4-0.3,0.6-0.8,0.6-1.3c0-0.3-0.3-0.6-0.6-0.6
	c-0.4,0-0.6,0.3-0.6,0.6c0-0.2,0,0,0,0.1c0,0-0.1,0.1,0,0c0-0.1,0,0,0,0c0,0,0,0.1,0,0.1c0,0-0.1,0.1,0,0c0.1-0.1,0,0,0,0
	c0,0-0.1,0.1-0.1,0.1l1.1,0.4c0-0.1,0-0.2,0-0.3c0,0,0-0.1,0-0.1c0,0,0-0.2,0,0c0-0.2,0.1-0.4,0.1-0.5c0-0.1,0-0.2,0.1-0.3l0,0.1
	c0,0,0-0.1,0-0.1c0,0,0-0.1,0.1-0.1c0-0.1,0.1-0.2,0.1-0.2c0,0,0.1-0.1,0.1-0.1c0,0,0,0,0-0.1c-0.1,0.1-0.1,0.2-0.2,0.2h-0.3
	c-0.2-0.1-0.3-0.2-0.3-0.3c0,0,0,0.1,0,0.1c0,0,0,0.2,0,0.1c0-0.1,0,0.1,0,0.1c0,0.1,0,0.1,0,0.2c0,0.1,0,0.2,0,0.3c0,0,0,0.1,0,0.1
	v-0.1c0,0.1,0,0.1,0,0.2c0,0.1,0,0.2-0.1,0.3c0,0.1,0,0.1-0.1,0.2c0,0.1,0.1-0.1,0,0c0,0.1-0.1,0.2-0.1,0.3c0,0,0,0.1,0,0.1
	c0.1-0.1,0.1-0.1,0,0c0,0,0,0-0.1,0.1c0.1,0,0.1-0.1,0,0c0,0,0,0,0.1,0c-0.1,0,0,0,0.1,0c-0.1,0-0.1,0,0.1,0c-0.1,0-0.1,0,0,0
	c0.1,0.1,0.1,0.1,0.2,0.2c0-0.1,0-0.1,0,0.1c0,0,0-0.1,0-0.1c0,0.1,0,0.1,0,0.1c0,0,0,0,0-0.1c0-0.1,0-0.1,0-0.2
	c0-0.1,0.1-0.2,0.1-0.3c0.1-0.2,0.1-0.4,0.2-0.6c-0.1,0.1,0,0,0-0.1c0,0,0-0.1,0.1-0.1c0.1-0.1,0.1-0.2,0.2-0.3l-1.1-0.1
	c0,0,0,0.1,0,0.1c0,0.1,0,0,0,0c0,0,0,0.2,0,0.2c0,0.1,0,0.3,0,0.4c0,0,0,0.1,0,0.1c0,0.1,0,0,0,0c0,0,0,0.2,0,0.2
	c0,0.1-0.1,0.3-0.1,0.4c0,0,0,0.1,0,0c0-0.1,0-0.1,0,0c-0.1,0.1,0,0.1,0.3-0.1c0.1-0.1,0.2-0.2,0.4-0.1c0.1,0,0.1,0.1,0.1,0.1
	c0.1,0.1,0,0,0,0.1c0,0.1,0,0,0,0c0,0,0-0.1,0-0.1c0-0.1,0-0.1,0-0.2c0-0.1,0,0.1,0,0c0,0,0-0.1,0-0.1c0-0.1,0-0.1,0-0.2
	c0-0.1,0-0.3,0-0.4l-1.2,0.2c0,0.2,0-0.1,0,0c0,0.1,0,0.1,0,0.2c0,0.1,0,0.2,0,0.3c0,0.1,0-0.1,0,0c0,0.1,0,0.1,0,0.1
	c0,0.1-0.1,0.2-0.1,0.3l1.2,0.2c0-0.4,0-0.8,0-1.2c0-0.4,0-0.9-0.3-1.2c-0.2-0.2-0.7-0.2-0.9,0S11,144.5,11.2,144.8L11.2,144.8z"/>
<path class="st12" d="M8.8,155.2c-0.3-0.2-0.6-0.3-0.9-0.2c-0.3,0.1-0.6,0.3-0.7,0.6C7,155.8,7,156.1,7,156.4c0,0.3,0.1,0.6,0.2,0.8
	c0.2,0.3,0.6,0.4,1,0.3c0.3-0.1,0.5-0.4,0.7-0.6c0.3-0.4,0.6-0.9,0.6-1.5c0-0.4-0.6-0.8-0.9-0.5c-0.3,0.2-0.7,0.5-0.9,0.8
	c-0.2,0.2-0.4,0.5-0.4,0.8c0,0.3,0.2,0.6,0.6,0.8c0.5,0.2,0.9-0.1,1.3-0.4c0.3-0.2,0.5-0.6,0.7-0.9c0.2-0.3,0.1-0.7-0.2-0.9
	s-0.7-0.1-0.9,0.2c-0.1,0.3-0.3,0.5-0.4,0.8C8.2,156.4,8,156.7,8,157c-0.1,0.4,0,0.9,0.5,1.1c0.4,0.1,0.8-0.1,1.1-0.4
	c0.4-0.4,0.7-0.9,0.8-1.4c0.1-0.4,0.1-0.8-0.1-1.1c-0.2-0.4-0.6-0.6-1-0.6c-0.7,0-1.2,0.7-1.6,1.2c-0.2,0.2-0.3,0.5-0.4,0.8
	c-0.1,0.4-0.1,0.9,0.2,1.2c0.2,0.2,0.6,0.3,0.9,0.1c0.2-0.1,0.3-0.3,0.4-0.5c0.2-0.2,0.3-0.5,0.4-0.8s0.2-0.6,0.2-0.9
	c0-0.4,0-0.8-0.4-1c-0.3-0.2-0.7-0.1-0.9,0.2c-0.1,0.1-0.3,0.2-0.4,0.4c-0.3,0.2-0.5,0.5-0.8,0.7c-0.2,0.1-0.3,0.3-0.4,0.4
	c-0.2,0.3-0.2,0.6,0,0.9c0.3,0.4,0.9,0.4,1.4,0.3c0.1,0,0.3-0.2,0.4-0.3c0.1-0.1,0.1-0.3,0.1-0.5c-0.1-0.4-0.4-0.5-0.8-0.4
	c0.2,0,0,0,0,0c0,0-0.1,0-0.1,0c-0.1,0-0.1,0,0,0c0,0-0.1,0-0.1,0c-0.2-0.1-0.1,0.1,0.1,0.4c0,0.4,0,0.5,0.1,0.4
	c0.1-0.1,0.2-0.2,0.3-0.2l0.3-0.2c0.2-0.2,0.3-0.3,0.5-0.5l0.2-0.2l0.1-0.1l0.1-0.1c-0.1,0.1-0.1,0.1,0,0l-0.3,0.1
	c-0.1,0-0.5-0.2-0.5-0.4c0,0,0,0.1,0,0.1c0,0.1,0,0.1,0,0.1s0,0.2,0,0c0,0.1,0,0.2-0.1,0.2c0,0.1-0.1,0.2-0.1,0.3c0,0,0,0.1,0,0.1
	c-0.1,0.1,0.1-0.1,0,0c0,0.1-0.1,0.2-0.1,0.2c0,0.1-0.1,0.1-0.1,0.2c0-0.1-0.1,0.1,0,0c0,0,0,0,0,0.1c-0.1,0.1,0,0,0,0l0.3-0.1h0.1
	c0.1,0.1,0.2,0.1,0.3,0.2c-0.1-0.1,0.2,0.2,0.1,0.3V157c0,0,0-0.2,0-0.1c0,0,0,0.1,0,0c0,0,0-0.1,0-0.1c0-0.1,0-0.1,0.1-0.2
	c0-0.1,0,0,0,0c0,0,0-0.1,0-0.1c0,0,0.1-0.1,0.1-0.1c0.1-0.1,0.1-0.2,0.2-0.3c0-0.1,0,0,0,0s0.1-0.1,0.1-0.1c0,0,0.1-0.1,0.1-0.1
	c0.1-0.1,0.2-0.2,0.2-0.2c0.1-0.1-0.1,0.1,0,0c0,0,0,0,0.1,0c0.1-0.1,0,0,0,0l0.1,0c0,0-0.2,0,0,0c-0.1,0-0.1,0-0.1,0
	c-0.1,0,0,0,0,0c0,0,0,0,0,0c0,0,0,0,0-0.1c0,0,0,0,0,0.1c0.1,0.1,0-0.1,0,0l0,0.1c0,0,0-0.1,0,0c0,0,0,0.2,0,0.2s0-0.1,0,0
	c0,0,0,0.1,0,0.1c0,0.1,0,0.2-0.1,0.3c0,0,0,0.1,0,0.1c0,0.1,0,0,0,0c0,0-0.1,0.1-0.1,0.1c0,0.1,0,0.1-0.1,0.1c0,0-0.1,0.2,0,0.1
	c0.1-0.1,0,0-0.1,0.1c0,0-0.1,0.1-0.1,0.1c-0.1,0.1,0,0,0,0c0,0,0,0-0.1,0.1c0,0-0.1,0.1-0.1,0.1c-0.1,0-0.1,0.1,0,0l0.1,0l0.4,0.2
	c0,0,0.1,0.2,0.1,0.2c0,0,0-0.1,0,0c0,0.1,0,0,0,0c0,0,0-0.1,0-0.1c0-0.1,0-0.1,0.1-0.2c0-0.1,0.1-0.1,0.1-0.2c0,0,0-0.1,0-0.1
	c0-0.1,0,0.1,0,0c0.1-0.3,0.2-0.5,0.4-0.8L8.8,155.2c0,0.2-0.1,0.3-0.2,0.4c0,0-0.1,0.1,0,0c0-0.1,0,0,0,0c0,0-0.1,0.1-0.1,0.1
	c0,0-0.1,0.1-0.1,0.1c-0.1,0.1,0,0,0,0c0,0-0.1,0.1-0.1,0.1c0,0,0,0-0.1,0c0,0-0.1,0,0,0c0.1,0,0,0,0,0c0,0,0.1,0,0.1,0
	c-0.1,0,0.1,0,0.1,0c-0.1,0,0.1,0,0.1,0l0.2,0.2l0,0.5c0,0,0,0,0.1-0.1c0.1-0.1-0.1,0.1,0,0c0,0,0-0.1,0.1-0.1c0,0,0.1-0.1,0.1-0.1
	c0.1-0.1,0.2-0.2,0.3-0.3c0,0,0.1,0,0.1-0.1c0,0,0.1-0.1,0.1,0c-0.1,0,0,0,0,0c0,0,0.1-0.1,0.1-0.1l-0.9-0.5c0,0,0,0.2,0,0.1
	c0-0.1,0,0,0,0.1c0,0.1,0,0.1-0.1,0.2c0.1-0.1,0,0.1,0,0c0,0,0,0.1-0.1,0.1c0,0.1-0.1,0.1-0.1,0.2c0,0.1-0.1,0.1-0.1,0.2
	c0,0,0,0.1-0.1,0.1c0,0,0,0,0,0c0,0,0,0,0,0c0,0,0,0.1-0.1,0.1c0,0-0.1,0.1,0,0c0,0,0,0,0,0l0.1,0c0.1,0,0.2,0,0.2,0
	c0.1,0,0.1,0.1,0.1,0.1c0,0,0.1,0.2,0.1,0.1c0,0,0-0.1,0,0c0,0.1,0,0,0,0c0-0.1,0-0.1,0-0.2c0,0,0-0.1,0-0.1c0-0.1,0,0.1,0,0
	c0,0,0-0.1,0-0.1c0-0.1,0,0,0,0c0.1-0.1-0.1,0.1,0,0c0.1-0.1,0,0,0,0c0,0,0.1-0.1,0,0c-0.1,0-0.1,0,0,0c0.1,0,0,0-0.1,0
	c0.1,0-0.1,0-0.1,0c0.1,0,0,0,0,0c-0.1,0-0.1,0-0.1-0.1c0.2,0.2,0.6,0.3,0.9,0c0.2-0.2,0.3-0.7,0-0.9L8.8,155.2z"/>
<path class="st12" d="M2.8,153.1c-0.6,0.7-0.8,1.6-0.6,2.5c0,0.3,0.3,0.5,0.6,0.5c0.7,0,0.9-0.8,1-1.3c0.1-0.6,0.2-1.2,0.1-1.8
	c0-0.3-0.2-0.5-0.5-0.6c-0.2-0.1-0.6,0-0.7,0.3c-0.2,0.5-0.5,1.1-0.6,1.6c-0.1,0.5-0.2,1.3,0,1.8c0.2,0.3,0.5,0.5,0.9,0.4
	s0.5-0.4,0.7-0.7c0.2-0.5,0.3-1.1,0.3-1.6c0-0.6,0.1-1.5-0.7-1.5c-0.7,0-1,0.9-1.1,1.4c-0.2,0.5-0.4,1.1-0.3,1.6
	c0.1,0.7,0.9,1,1.5,0.6c0.9-0.7,1.5-1.9,1.7-3c0-0.3-0.1-0.6-0.4-0.7c-0.3-0.1-0.6,0-0.8,0.3c-0.3,0.6-0.6,1.2-0.9,1.8l1.2,0.3
	c0.1-0.7,0.2-1.4,0.3-2c0.1-0.7-0.7-1.1-1.1-0.5c-0.3,0.4-0.5,0.7-0.7,1.1l1.1,0.5c0.3-0.9,0.6-2,0.3-2.9c-0.1-0.3-0.2-0.5-0.4-0.6
	c-0.3-0.2-0.7-0.1-0.9,0.2c-0.3,0.4-0.5,0.9-0.6,1.4l1.2,0.2c0-0.2,0-0.5,0.2-0.7L2.3,151L2,153.8c0,0.3,0.3,0.6,0.6,0.6
	c0.4,0,0.6-0.3,0.6-0.6l0.3-2.9c0.1-0.6-0.9-0.8-1.2-0.3c-0.2,0.4-0.3,0.9-0.3,1.3c0,0.7,1,0.8,1.2,0.2c0-0.2,0.1-0.4,0.2-0.5
	c0-0.1,0-0.1,0.1-0.2c0,0,0-0.1,0.1-0.1c0.1-0.1,0.1-0.1,0,0l-0.5,0.1l0,0l-0.2-0.2c0.2,0.2,0.1,0.7,0.1,1c-0.1,0.5-0.2,0.9-0.3,1.4
	c-0.2,0.7,0.8,1.1,1.1,0.5c0.2-0.4,0.4-0.8,0.7-1.1l-1.1-0.5c-0.1,0.8-0.2,1.6-0.3,2.4c-0.1,0.6,0.9,0.9,1.2,0.3
	c0.3-0.6,0.6-1.2,0.9-1.8l-1.1-0.5c-0.1,0.8-0.4,1.5-1,2.1c0,0-0.2,0.1-0.2,0.1c-0.2,0.1-0.1,0.2,0.4,0.2c0,0.2,0,0.2,0,0.1
	c0.1-0.1,0.1-0.4,0.1-0.6c0.1-0.2,0.1-0.4,0.2-0.6c0-0.1,0.1-0.2,0.2-0.3c0-0.1,0.1-0.1,0.1-0.1c0-0.1,0.1-0.1,0,0l-0.3,0.2l0,0H3.1
	h0.1c-0.1-0.1-0.2-0.2-0.4-0.3c0-0.1,0-0.2,0,0c0,0.1,0,0.1,0,0.2c0,0.1,0,0.2,0,0.2c0,0.2,0,0.4,0,0.6c0,0.2-0.1,0.3-0.1,0.5
	c0,0.1,0,0.1-0.1,0.2c0,0,0,0.1-0.1,0.1c-0.1,0.1,0,0.1,0,0l0.3-0.1H2.8c0.1,0,0.2,0.1,0.3,0.1l0,0l0.2,0.2c-0.1-0.1,0,0,0-0.1
	c0-0.1,0-0.2,0-0.4c0-0.2,0.1-0.4,0.1-0.5c0.1-0.4,0.3-0.8,0.5-1.2l-1.2-0.3c0,0.4,0,0.8,0,1.1c0,0.2-0.1,0.3-0.1,0.5
	c0,0.1,0,0.2-0.1,0.3c0,0.1,0,0.1,0,0.1c0-0.1,0.1-0.1,0.1-0.1l0.3-0.1H2.9c0.2,0.2,0.4,0.3,0.6,0.5c-0.1-0.4,0-0.9,0.3-1.3
	c0.2-0.3,0.3-0.6,0-0.9C3.5,152.8,3.1,152.8,2.8,153.1L2.8,153.1z"/>
<path class="st12" d="M14.4,132.8C14.5,132.7,14.3,132.9,14.4,132.8c0,0-0.1,0.1-0.1,0.1c-0.1,0-0.1,0.1-0.2,0.1
	c-0.1,0.1-0.3,0.2-0.4,0.2c0,0-0.1,0-0.1,0.1c0,0-0.2,0.1,0,0c-0.1,0-0.1,0.1-0.2,0.1c-0.2,0.1-0.3,0.1-0.5,0.1l0.7,0.9
	c0.2-0.4,0.4-0.8,0.6-1.1l-1.1-0.1c0,0,0,0.1,0,0.1l0-0.2c0,0,0,0.1,0,0.1l0-0.2c0,0.2-0.1,0.3-0.1,0.4c-0.1,0.2-0.1,0.4,0,0.6
	c0.1,0.5,0.7,0.8,1.2,0.6c0.4-0.1,0.7-0.4,0.8-0.8c0.2-0.4,0.2-0.7,0.1-1.1c-0.1-0.4-0.5-0.8-0.9-0.8c-0.4,0-0.9,0.3-1,0.6
	c-0.1,0.2-0.1,0.3-0.2,0.5c0,0.3-0.1,0.6,0.1,0.8c0.2,0.3,0.6,0.4,1,0.2c0.2-0.1,0.4-0.3,0.5-0.4c0.2-0.3,0.4-0.7,0.4-1.1
	c0-0.4-0.2-0.9-0.6-1.1c-0.2-0.1-0.4-0.1-0.6,0c-0.2,0.1-0.3,0.2-0.4,0.4c-0.2,0.4-0.3,0.8-0.3,1.2c0,0.3,0,0.5,0.2,0.7
	c0.2,0.2,0.5,0.2,0.7,0.1c0.3-0.2,0.6-0.4,0.8-0.7c0.1-0.1,0.2-0.3,0.4-0.5c0.1-0.2,0.2-0.4,0.2-0.7c0-0.1,0-0.3-0.1-0.4
	c-0.2-0.2-0.5-0.4-0.7-0.3c-0.3,0.1-0.5,0.4-0.6,0.6c-0.2,0.3-0.4,0.7-0.5,1c-0.2,0.4-0.2,0.8-0.3,1.2c0,0.2,0.1,0.3,0.2,0.4
	c0.1,0.1,0.3,0.2,0.4,0.2c0.1,0,0.3-0.1,0.4-0.2c0.1-0.1,0.2-0.3,0.2-0.4v0c0,0.1,0,0.1,0,0.2c0-0.2,0.1-0.4,0.1-0.6
	c0-0.1,0.1-0.2,0.1-0.3c0,0,0-0.1,0.1-0.1c0-0.1-0.1,0.1,0,0c0.1-0.2,0.2-0.3,0.3-0.5c0.1-0.1,0.1-0.2,0.2-0.2c0,0,0,0,0.1-0.1
	c-0.1,0.1-0.1,0.1,0,0c0,0,0.1-0.1,0.1-0.1l-0.4,0.2h0c-0.1,0-0.2-0.1-0.3-0.1h0c-0.1-0.1-0.1-0.1-0.2-0.2l-0.1-0.1l0-0.2
	c0,0,0,0,0,0.1l0-0.2c0,0.1,0.1-0.1,0,0c0,0,0,0.1,0,0.1c0,0.1-0.1,0.1-0.1,0.2c0,0.1-0.1,0.1-0.1,0.2c-0.1,0.1,0.1-0.1,0,0
	c0,0-0.1,0.1-0.1,0.1c-0.1,0.1-0.2,0.2-0.3,0.3c0,0-0.1,0-0.1,0.1l0.1-0.1c0,0,0,0-0.1,0c-0.1,0-0.1,0.1-0.2,0.1l0.9,0.7
	c0.1-0.4,0.2-0.8,0.3-1.2l-0.9,0.4c0,0,0,0,0.1,0c0.1,0,0,0-0.1,0c0,0,0,0,0,0c-0.1-0.1-0.1-0.1,0-0.1c0,0,0,0,0,0c0,0.1,0,0,0-0.1
	c0,0,0,0.1,0,0.1l0-0.2c0,0.1,0,0.1,0,0.2l0-0.2c0,0.1,0,0.1,0,0.1c0,0,0,0.1,0,0.1c0,0.1,0,0,0,0c-0.1,0.1-0.1,0.2-0.1,0.2
	c0,0-0.1,0.1-0.1,0.1l0,0c0,0.1,0,0,0,0c0,0,0,0-0.1,0.1c-0.1,0,0,0,0.1,0c0,0,0,0-0.1,0c0.1,0,0.1-0.1,0.1,0l0.2,0h0
	c0.1,0,0.1,0,0.2,0c0.3,0.4,0.4,0.5,0.3,0.3l0,0.2c0,0,0-0.1,0-0.1l0,0.2c0-0.1,0-0.1,0-0.2c0,0,0-0.1,0-0.1c0,0,0-0.1,0-0.1
	c0,0.1-0.1,0.1,0,0.1c0,0,0.1-0.1,0-0.1s0,0,0,0c0,0,0,0-0.1,0c0,0,0,0,0,0c-0.1,0,0,0,0.1,0l-0.2,0c0,0,0.1,0,0.1,0l-0.2,0
	c0,0,0,0,0.1,0c-0.1-0.1-0.1-0.1-0.1,0c0,0,0,0,0,0c-0.1-0.1,0,0,0,0c0,0-0.1-0.1,0-0.1l0,0.1c0,0,0-0.2,0-0.1c0,0.1,0,0.1,0,0.1
	l0-0.2c0,0.1,0,0.1,0,0.2l0-0.2c0,0.1,0,0.2-0.1,0.3c0,0.1,0.1-0.1,0,0c0,0,0,0.1-0.1,0.1c0,0,0,0,0,0.1c0,0.1,0,0,0-0.1
	c0,0-0.1,0.1-0.1,0.1c-0.1,0.1,0.1-0.1,0,0c-0.1,0,0,0,0.1,0c0,0,0,0-0.1,0l0.2,0c0,0-0.1,0-0.1,0l0.2,0c0,0-0.1,0,0,0
	c0.1,0,0.1,0,0,0c0,0,0,0,0.1,0.1c0,0,0.1,0.1,0,0.1c0.1,0.1,0,0.1,0,0l0,0.2c0,0,0-0.1,0-0.1l0,0.2c0-0.1,0.1-0.3,0.1-0.4
	c0.1-0.2,0.1-0.5,0-0.7c-0.1-0.2-0.2-0.4-0.5-0.5c-0.2,0-0.5,0.1-0.6,0.3c-0.2,0.4-0.4,0.7-0.6,1.1c-0.1,0.2-0.1,0.5,0.1,0.7
	c0.2,0.2,0.4,0.3,0.7,0.2c0.8-0.2,1.5-0.5,2.1-1c0.1-0.1,0.2-0.3,0.2-0.4c0-0.2-0.1-0.3-0.2-0.4c-0.1-0.1-0.3-0.2-0.4-0.2
	C14.7,132.6,14.5,132.7,14.4,132.8L14.4,132.8z"/>
<path class="st12" d="M17.8,134.8c-0.4,0.3-0.7,0.6-0.9,1c-0.2,0.4-0.3,1-0.1,1.5c0.2,0.3,0.5,0.4,0.8,0.4c0.4,0,0.6-0.2,0.8-0.5
	c0.3-0.4,0.4-0.9,0.5-1.4c0.1-0.5-0.1-1.1-0.7-1.3c-0.6-0.2-1.1,0.4-1.4,0.9c-0.2,0.4-0.2,0.9-0.2,1.4c0,0.3,0.1,0.6,0.3,0.8
	c0.3,0.3,0.8,0.3,1.1,0c0.4-0.3,0.6-0.9,0.6-1.3c0-0.3-0.1-0.6-0.3-0.8c-0.3-0.3-0.7-0.3-1-0.1c-0.4,0.2-0.7,0.6-0.9,1
	c-0.2,0.4-0.4,0.9-0.4,1.3c-0.1,0.6,0.3,1.1,0.8,1.3c0.5,0.1,1.1-0.1,1.5-0.5c0.3-0.4,0.5-0.8,0.5-1.2c0.1-0.4,0.1-0.9-0.1-1.4
	c-0.2-0.5-0.7-1-1.3-0.9c-0.4,0-0.6,0.2-0.9,0.5c-0.1,0.2-0.2,0.5-0.3,0.7c-0.2,0.6-0.1,1.3,0.5,1.6c0.6,0.3,1.5-0.1,1.5-0.9
	c0-0.3-0.3-0.6-0.6-0.6c-0.3,0-0.6,0.3-0.6,0.6c0,0.1,0,0,0-0.1c0-0.1,0-0.1,0.1-0.1c0,0,0.1-0.1,0.1,0c-0.1,0,0.1,0,0,0
	c-0.1,0,0.1,0,0.1,0c0.1,0,0.1,0,0.1,0c0,0,0.1,0,0.1,0.1c-0.1-0.1,0,0,0,0c0,0,0-0.1,0-0.1c0,0,0,0.2,0,0c0,0,0-0.1,0,0
	c0,0.1,0,0,0,0c0-0.1,0,0,0,0c0,0,0-0.1,0-0.1c0,0,0-0.1,0-0.1c0,0,0.1-0.2,0-0.1c0,0.1,0,0,0,0c0,0,0-0.1,0-0.1
	c0-0.1,0.1-0.1,0.1-0.1c0-0.1-0.1,0.1,0,0c0-0.1,0,0-0.1,0c0.1-0.1,0,0,0,0c0.1,0-0.1,0,0,0c0,0,0,0,0.1,0c0,0-0.1,0,0,0
	c0.1,0-0.1-0.1,0,0c0,0,0.1,0.1,0,0c-0.1-0.1,0,0,0,0c0,0.1,0-0.1,0-0.1c0,0,0.1,0.1,0.1,0.1c0,0.1,0-0.1,0,0c0,0,0,0,0,0.1
	c0,0,0,0.1,0,0.1c0,0,0-0.2,0,0c0,0.1,0,0.2,0,0.4c0,0,0,0.2,0,0.2c0,0,0-0.1,0,0c0,0,0,0.1,0,0.1c0,0.1-0.1,0.2-0.1,0.4
	c0,0.1,0.1-0.1,0,0c0,0.1,0,0.1-0.1,0.1c0,0.1,0,0,0,0l0,0.1c0,0,0,0-0.1,0.1c0,0-0.1,0.1,0,0c0,0,0,0-0.1,0c0,0-0.1,0.1,0,0
	s0,0,0,0c-0.1,0,0,0,0,0c-0.2,0,0,0,0,0c0,0-0.1,0-0.1,0c0,0,0.1,0,0.1,0c0.1,0.1-0.1,0,0,0c0,0,0.1,0.1,0,0c0,0,0,0.1,0,0.1
	c0,0.1,0-0.1,0-0.1c0,0,0,0.1,0,0c0,0,0-0.1,0-0.1c0-0.1,0-0.1,0-0.2s0-0.1,0.1-0.2c0,0,0-0.1,0-0.1c0-0.1,0,0.1,0,0
	c0.1-0.1,0.1-0.2,0.2-0.3c0-0.1,0.1-0.1,0.1-0.2c-0.1,0.1,0,0,0-0.1c0,0,0.1-0.1,0.1-0.1c0,0,0-0.1,0.1-0.1c0.1-0.1,0,0,0,0
	s0.1-0.1,0.1-0.1c0,0-0.1,0-0.1,0c-0.2,0-0.3-0.2-0.4-0.3c-0.1-0.1,0,0.1,0,0.1c0,0,0-0.1,0,0c0,0,0,0.1,0,0.1c0,0,0,0,0,0.1
	c0,0.1,0,0,0,0c0,0-0.1,0.1-0.1,0.1c0,0-0.1,0.1,0,0c0.1-0.1,0,0,0,0c-0.1,0.1,0,0,0,0l0.6,0.2c0,0.1,0,0.1,0,0.1c0-0.1,0,0.1,0,0.1
	c0,0,0,0,0-0.1c0-0.1,0-0.1,0-0.2c0-0.1,0-0.1,0-0.2c0,0,0-0.1,0-0.1c0,0.1,0,0,0,0c0-0.1,0.1-0.3,0.1-0.4c0,0,0-0.1,0,0
	c0,0.1,0,0,0,0l0-0.1c0,0.1-0.1,0.1,0,0c0,0,0,0,0.1-0.1c0.1,0,0,0,0,0c-0.1,0,0.1,0,0,0c-0.1,0-0.2,0-0.3,0c-0.1,0-0.1-0.1-0.1-0.1
	c0,0,0-0.1,0-0.1c0,0,0,0.1,0,0c0-0.1,0,0,0,0c0,0.1,0,0.1,0,0.2c0-0.1,0,0.1,0,0.1c0,0.2-0.1,0.3-0.1,0.5c0,0,0,0.1,0,0
	c0-0.1,0,0.1,0,0.1c0,0-0.1,0.2-0.1,0.2c0,0,0.1-0.1,0,0l0,0c0,0,0.1-0.1,0.2-0.1c0.2-0.1,0.3,0,0.5,0.2c0.1,0.1,0-0.1,0,0.1
	c0,0.1,0,0,0,0c0-0.1,0,0,0,0c0,0,0-0.1,0-0.1c0-0.1,0-0.1,0.1-0.2c0,0,0-0.1,0-0.1c0,0.1,0,0.1,0,0c0,0,0,0,0,0
	c0-0.1,0.1-0.1,0.1-0.2c0,0,0,0,0-0.1c0-0.1-0.1,0.1,0,0c0,0,0.1-0.1,0.1-0.1c0,0,0,0,0.1-0.1c0,0,0.1-0.1,0,0
	c0.3-0.2,0.4-0.6,0.2-0.9C18.5,134.8,18.1,134.7,17.8,134.8L17.8,134.8z"/>
<path class="st12" d="M17.8,129.5c0,0.4,0,0.8,0,1.2c0,0.1,0,0.2,0.1,0.3c0.1,0.1,0.2,0.2,0.3,0.3c0.2,0.1,0.5,0.1,0.7-0.1
	c0.2-0.2,0.3-0.4,0.3-0.6s0-0.5,0-0.7c-0.1-0.3-0.3-0.6-0.6-0.7c-0.2,0-0.4,0-0.6,0.1s-0.3,0.3-0.4,0.5c-0.1,0.2-0.1,0.4-0.1,0.7
	c0,0.3,0.1,0.7,0.4,0.9c0.4,0.2,1,0,1.1-0.5c0.1-0.3,0-0.6-0.2-0.9c-0.2-0.4-0.7-0.7-1.2-0.9c-0.3-0.1-0.6,0-0.7,0.3
	s-0.1,0.6,0.1,0.8c0.6,0.5,1.2,1.1,1.8,1.6c0.2,0.2,0.6,0.2,0.8,0.1c0.1-0.1,0.2-0.2,0.2-0.3c0-0.2,0-0.3-0.1-0.5
	c-0.2-0.5-0.5-1.1-0.7-1.6l-0.4,0.9h0c-0.1,0-0.1,0-0.2,0h0c-0.1,0-0.1,0-0.2,0c0,0,0,0,0,0l-0.1-0.1c0,0,0,0,0,0l-0.1-0.1
	c0,0,0,0,0,0l-0.1-0.1c0,0,0,0,0,0l-0.1-0.1c0,0,0,0.1,0,0.1l0-0.2c0,0.1,0,0.3,0.1,0.4c0,0.1,0.1,0.3,0.2,0.4
	c0.1,0.2,0.2,0.3,0.3,0.5l-0.1-0.1c0,0.1,0,0.1,0.1,0.2l0-0.2c0,0,0,0.1,0,0.1l0-0.2c0,0,0,0.1,0,0.1l0.1-0.2v0
	c-0.1,0.2-0.1,0.3-0.1,0.5c0,0.1,0.2,0.3,0.3,0.4c0.3,0.1,0.7,0.1,0.9-0.2c0.1-0.2,0.1-0.4,0.1-0.6c0-0.2-0.1-0.4-0.2-0.6
	c-0.1-0.2-0.2-0.3-0.3-0.5l0.1,0.1c0-0.1,0-0.1,0-0.2l0,0.2c0-0.2,0-0.4-0.2-0.6c-0.1-0.1-0.2-0.2-0.3-0.3c-0.2-0.1-0.4-0.1-0.6-0.1
	c-0.2,0-0.3,0.2-0.4,0.4c-0.1,0.2,0,0.4,0,0.6c0.2,0.5,0.5,1.1,0.7,1.6l1-0.8c-0.6-0.5-1.2-1.1-1.8-1.6l-0.6,1c0.1,0,0.1,0,0.2,0.1
	l-0.1-0.1c0.1,0,0.2,0.1,0.3,0.1l-0.1-0.1c0.1,0.1,0.2,0.1,0.2,0.2l-0.1-0.1c0.1,0.1,0.1,0.2,0.1,0.3l-0.1-0.2c0,0.1,0,0.1,0,0.2
	l0-0.2c0,0,0,0,0,0.1l0-0.2c0,0,0,0,0,0.1l0.1-0.2c0,0,0,0,0,0l0.1-0.1c0,0,0,0,0,0L18,130c0,0,0,0,0,0l0.1-0.1h0c0.1,0,0.1,0,0.2,0
	c0,0,0,0,0,0l0.2,0h0c0,0,0.1,0,0.1,0.1h0c0,0,0.1,0.1,0.1,0.1c0,0,0,0,0,0l0.1,0.1c0,0,0,0,0,0l0.1,0.1c0,0,0-0.1,0-0.1l0,0.2
	c0-0.1,0-0.2,0-0.4l0,0.2c0-0.1,0-0.2,0.1-0.3l-0.1,0.1c0,0,0,0,0-0.1l-0.1,0.1c0,0,0,0,0.1-0.1l-0.1,0.1c0,0,0,0,0,0l-0.1,0.1h0
	c-0.1,0-0.1,0-0.2,0h0c-0.1,0-0.1,0-0.2,0c0,0,0,0,0,0l-0.1-0.1h0c0,0-0.1-0.1-0.1-0.1c0,0,0,0,0.1,0.1l-0.1-0.1
	c0,0,0.1,0.1,0.1,0.2l-0.1-0.2c0,0.1,0,0.1,0,0.2l0-0.2c0,0.1,0,0.2,0,0.2l0-0.2c0,0.1,0,0.1,0,0.2l0.1-0.1c0,0.1,0,0.1-0.1,0.2
	l0.1-0.1c0,0,0,0,0,0l1.1,0.4c0-0.4,0-0.8,0-1.2c0-0.3-0.3-0.6-0.6-0.6C18.1,128.9,17.8,129.1,17.8,129.5L17.8,129.5z"/>
<path class="st12" d="M12.8,149.8c-0.8,1-1.7,2.1-1.5,3.5c0,0.3,0.2,0.5,0.5,0.6c0.3,0.1,0.6,0,0.7-0.3c0.3-0.6,0.5-1.2,0.6-1.8
	c0.1-0.3,0.1-0.6,0.2-0.8c0-0.1,0.1-0.3,0.1-0.4c0,0,0-0.1,0-0.1c0,0.1,0,0.1,0,0c0-0.1,0.1-0.2,0.1-0.2c0.2-0.3,0.1-0.7-0.2-0.9
	c-0.3-0.2-0.7-0.1-0.9,0.2c-0.4,0.7-0.6,1.5-0.6,2.3c0,0.3,0.2,0.6,0.5,0.6c0.3,0,0.6-0.1,0.7-0.4c0.1-0.6,0.3-1.1,0.4-1.7l-1,0.3
	c-0.1-0.1-0.1-0.1-0.1-0.2c0,0,0,0,0,0c0,0,0,0,0,0c-0.1,0.1-0.1,0.2-0.2,0.3c-0.2,0.2-0.3,0.5-0.5,0.8c-0.1,0.1-0.1,0.2-0.2,0.4
	c0,0-0.1,0.1,0,0.1c0,0-0.1,0.1-0.1,0.1c-0.1,0.1-0.1,0.1,0,0c0,0,0,0-0.1,0c0,0,0,0,0,0c0.1,0,0.1,0,0,0s0,0,0,0
	c0.1,0,0.2,0.1,0.2,0.2v0.1c0,0,0-0.1,0-0.1c0,0,0-0.2,0-0.1c0-0.1,0-0.1,0.1-0.2c0-0.2,0.1-0.2,0.1-0.3c0.1-0.2,0.2-0.5,0.4-0.7
	c0.1-0.1,0.1-0.2,0.2-0.3c0,0,0.1-0.2,0.1-0.1c0,0,0.1-0.1,0.1-0.1c0,0,0.1-0.1,0.1-0.1c0,0,0.1-0.1,0,0c0,0,0.1-0.1,0.1-0.1
	c0.1,0,0.1,0,0,0c0,0,0.1,0,0.1,0l-0.8-0.8c0,0.1,0,0.1,0.1-0.1c-0.2,0.2-0.2,0.7,0,0.9s0.6,0.2,0.9,0c0.1-0.1,0.2-0.3,0.3-0.5
	c0-0.2,0-0.4-0.2-0.6c-0.1-0.1-0.4-0.2-0.6-0.2c-0.6,0.2-1,0.6-1.3,1.1c-0.3,0.5-0.7,1.1-0.8,1.7c-0.1,0.3-0.1,0.8,0.1,1.1
	c0.2,0.4,0.7,0.5,1.1,0.4c0.6-0.2,1-0.9,1.3-1.4c0.2-0.3,0.4-0.6,0.6-0.9c0.2-0.4,0.2-0.9-0.1-1.3c-0.3-0.3-0.9-0.2-1,0.3
	c-0.1,0.6-0.3,1.1-0.4,1.7l1.2,0.2c0-0.4,0-0.5,0.1-0.9c0.1-0.3,0.2-0.5,0.3-0.8l-1.1-0.6c-0.3,0.6-0.5,1.2-0.6,1.8
	c-0.1,0.3-0.1,0.6-0.2,0.8c0,0.1-0.1,0.3-0.1,0.4c0,0.1,0,0.1,0,0c0,0,0,0.1-0.1,0.1c0,0.1-0.1,0.2-0.1,0.2l1.2,0.3
	c0-0.1,0-0.3,0-0.4c0,0,0-0.2,0-0.1c0-0.1,0-0.1,0-0.2c0.1-0.3,0.1-0.4,0.2-0.7c0.3-0.5,0.5-0.8,0.9-1.2c0.2-0.2,0.3-0.6,0-0.9
	C13.5,149.6,13,149.5,12.8,149.8L12.8,149.8z"/>
<path class="st12" d="M15.9,140.7c-0.2,0.4-0.3,0.8-0.5,1.3c-0.1,0.2-0.2,0.5-0.2,0.7c0,0.4,0.4,0.7,0.8,0.7c0.6,0,0.9-0.6,1-1.2
	c0.1-0.5,0.1-1,0-1.6c0-0.2-0.2-0.4-0.4-0.4c-0.2-0.1-0.5,0-0.6,0.2c-0.4,0.5-0.7,1-1,1.6c-0.1,0.1-0.1,0.2-0.1,0.3
	c-0.1,0.3,0,0.7,0.3,0.9c0.3,0.1,0.6,0.1,0.8-0.1c0.1-0.1,0.2-0.4,0.3-0.6c0.2-0.6,0.4-1.6-0.3-2c-0.4-0.2-0.9-0.1-1.2,0.2
	c-0.2,0.3-0.3,0.6-0.3,1c0.1,0.3,0.2,0.6,0.5,0.7c0.3,0.2,0.7,0.2,1.1,0c0.6-0.3,0.8-1.2,0.4-1.7c-0.2-0.3-0.5-0.5-0.9-0.6
	c-0.3-0.1-0.8-0.2-1.1,0c-0.6,0.4-0.5,1.4,0,1.9c0.2,0.2,0.4,0.3,0.7,0.3c0.3,0,0.5-0.2,0.7-0.4c0.2-0.3,0.2-0.7,0.1-1.1
	c-0.2-0.7-0.9-1.1-1.6-1.2c-0.3-0.1-0.7,0.1-0.8,0.4c-0.1,0.4,0.1,0.7,0.4,0.8c0.2,0.1,0.5,0.2,0.7,0.3c0.2,0.1,0.5,0,0.7-0.2
	c0.1-0.2,0.2-0.5,0.1-0.7c-0.2-0.3-0.5-0.4-0.9-0.3c-0.3,0.1-0.5,0.3-0.6,0.6c-0.1,0.2-0.1,0.5,0,0.7c0,0.3,0.1,0.5,0.2,0.7
	c0.2,0.5,0.9,0.7,1.4,0.4c0.2-0.1,0.4-0.4,0.5-0.6c0.1-0.3,0-0.6-0.1-0.9c-0.1-0.3-0.6-0.4-0.9-0.2c-0.3,0.2-0.4,0.5-0.2,0.9
	c-0.1-0.2,0,0,0,0c0-0.1,0-0.1,0-0.1c0,0,0,0.1,0,0.1c0,0,0.1-0.2,0-0.1c0,0.1,0.1-0.1,0,0c0.1-0.1,0.1-0.1,0,0l0.1,0
	c0.1,0,0.1,0,0.1,0c0,0,0,0,0.1,0c0.1,0,0.1,0.1,0.2,0.1c0.1,0.1-0.1-0.1,0,0c0.1,0.1,0,0,0,0c0,0,0-0.1,0-0.1v-0.1c0-0.1,0-0.1,0,0
	c0,0,0-0.1,0-0.1c0-0.1,0-0.2,0-0.3c0,0.1,0,0.1,0,0.1c0-0.1,0,0-0.1,0.1c-0.2,0.2-0.5,0.2-0.7-0.1l0.7-0.9
	c-0.2-0.1-0.5-0.2-0.7-0.3l-0.3,1.2c0.1,0,0.2,0,0.3,0.1c0,0,0.1,0,0.1,0c0.1,0-0.1-0.1,0,0c0.1,0,0.1,0.1,0.2,0.1c0,0,0,0,0,0
	c0,0,0,0,0.1,0c0,0,0.1,0.1,0.1,0.1c0.1,0.1-0.1-0.1,0,0c0,0,0.1,0.1,0.1,0.1c0-0.1,0-0.1,0-0.1c0,0,0,0,0,0.1c0,0.1,0,0.1,0,0
	c0,0,0,0.1,0,0.1c0,0.1,0-0.1,0,0c0,0,0,0.1,0,0c0-0.1,0-0.1,0,0c-0.1,0.1,0,0,0.1-0.1l0.3-0.1c0,0,0.3,0.1,0.2,0c-0.1,0,0,0,0,0
	c0,0-0.1-0.1-0.1-0.1c-0.1,0,0,0,0,0c0,0,0,0,0,0c0,0,0,0,0-0.1c0.1,0.1,0,0.1,0,0c0,0,0-0.1,0-0.1c0,0.1,0,0,0-0.1c0-0.1,0,0.1,0,0
	c0-0.1,0,0,0,0c0,0.1-0.1,0.1-0.1,0.1c0,0.1-0.1,0.1-0.2,0.1h0c0.1,0,0.1,0,0,0c0,0-0.1,0,0,0c0,0,0.1,0,0.1,0c0,0,0.1,0,0.1,0.1
	c0,0,0.1,0,0.1,0c0,0-0.1-0.1,0,0c0,0,0.1,0,0.1,0.1c0.1,0.1,0,0,0,0l0,0c0,0,0,0,0,0.1c0,0-0.1-0.1,0,0c0,0,0,0,0,0.1
	c0.1,0.1,0-0.1,0,0c0,0,0,0.1,0,0.1c0,0,0-0.1,0-0.1c0,0.1,0-0.1,0,0c0,0,0.1-0.1,0-0.1c0,0,0,0,0,0c0,0,0.1-0.1,0.1-0.1
	c0,0-0.1,0.1,0,0s0,0,0,0c-0.1,0,0.1,0,0.1,0c0,0-0.1,0-0.1,0c0,0,0.1,0,0.1,0c0,0,0,0-0.1,0c0.1,0,0.1,0,0.1,0c-0.1,0,0,0,0.1,0
	c-0.1-0.1,0.1,0.1,0,0c0,0,0.1,0.1,0,0.1c0,0,0-0.1,0,0c0,0.1,0,0,0,0c0-0.1,0,0.1,0,0.1c0-0.1,0,0,0,0c0,0.1,0,0,0,0
	c0-0.1,0,0.1,0,0.1c0,0,0-0.1,0,0c-0.1,0.1,0.1,0-0.1,0c-0.1,0.1,0,0,0,0c-0.1,0-0.2,0.1-0.3,0c0,0-0.1,0-0.1-0.1
	c0.1,0.1,0-0.1-0.1-0.1c0,0,0-0.1,0,0c0,0,0-0.1,0,0c0,0,0,0,0,0.1c0,0,0,0,0,0.1v-0.1c0,0,0,0.1,0,0.2c0,0.1-0.1,0.2-0.1,0.4
	c0,0.1,0,0.1-0.1,0.2c0,0,0.1-0.1,0,0c-0.1,0.2,0.1-0.2,0.4-0.2l0.4,0.2l0,0l0.2,0.3v0c0,0.1,0,0.2,0,0.3c0-0.1,0-0.1,0.1-0.2
	c0,0,0.1-0.2,0.1-0.2c0,0.1,0,0.1,0,0c0,0,0,0,0-0.1c0,0,0-0.1,0-0.1c0-0.1,0.1-0.1,0.1-0.2c0.1-0.1,0.2-0.3,0.2-0.4
	c0,0,0-0.1,0.1-0.1c0.1-0.1,0,0.1,0,0c0.1-0.1,0.1-0.1,0.2-0.2l-1-0.3c0-0.1,0-0.1,0,0c0,0,0,0.1,0,0.1c0,0.1,0,0.1,0,0.2
	s0,0.2,0,0.2c0,0,0,0.1,0,0.1c0,0.1,0,0,0,0c0,0.2-0.1,0.3-0.1,0.5c0,0,0,0.1,0,0.1c0,0,0,0.1,0,0c0-0.1,0-0.1,0,0l0.1-0.1
	c0.1-0.1,0.2-0.1,0.3-0.1c0.2,0,0.2,0.1,0.3,0.3c0.1,0.3,0.1,0.3,0.1,0.2c0-0.1,0-0.2,0.1-0.2c0.1-0.2,0.1-0.3,0.1-0.5
	c0.1-0.3,0.2-0.6,0.4-0.9c0.1-0.1,0-0.4-0.1-0.5c-0.1-0.1-0.2-0.2-0.4-0.3c-0.2,0-0.3,0-0.5,0.1S16,140.5,15.9,140.7L15.9,140.7z"/>
<path class="st12" d="M10.2,134.5c-0.4,0.7-0.8,1.4-1.1,2.2c-0.1,0.3-0.1,0.6,0.2,0.9c0.2,0.2,0.6,0.2,0.8,0.2
	c0.2,0,0.3-0.1,0.5-0.2c0.2-0.1,0.4-0.2,0.6-0.3c0.4-0.2,0.7-0.5,0.9-0.8c0.2-0.4,0.3-0.8,0.3-1.2c0,0,0-0.1,0-0.1v0
	c0-0.1,0-0.1,0,0c0,0,0-0.1,0-0.1v0c0,0.1,0,0.1,0.1-0.1c0.1-0.4-0.1-0.8-0.5-0.9c-0.2-0.1-0.5,0-0.7,0c-0.2,0-0.4,0.1-0.6,0.1
	c-0.2,0.1-0.4,0.1-0.6,0.2c-0.2,0.1-0.5,0.2-0.7,0.4c-0.2,0.2-0.3,0.5-0.3,0.8C9,135.8,9,136,8.9,136.2c-0.1,0.3,0.1,0.7,0.4,0.8
	c0.3,0.1,0.7-0.1,0.8-0.4c0.1-0.3,0.1-0.6,0.2-0.9l0-0.1l0,0.1c0-0.1,0-0.1,0,0c0.1-0.1,0,0,0,0c0,0,0.1,0,0.1,0c0.1-0.1,0,0,0,0
	c0,0,0.1,0,0.1,0c0.1,0,0.2-0.1,0.2-0.1c0.3-0.1,0.6-0.2,0.9-0.2c0.1,0,0.1,0,0.2-0.1c0.1,0-0.1,0-0.1,0h0c-0.3,0-0.5-0.3-0.4-0.7
	c-0.1,0.2-0.1,0.4-0.2,0.7c0,0.1,0,0.1,0,0.2c0,0.1,0,0.2,0,0.2v-0.1c0,0,0,0.1,0,0.1s0,0.1,0,0.1l0,0.1c0-0.1,0.1-0.1,0,0
	c0,0,0,0,0,0.1c0,0.1-0.1,0.1-0.1,0.2c0.1-0.1-0.1,0.1,0,0c0,0,0,0-0.1,0.1c0,0-0.1,0.1-0.1,0.1c0,0,0,0-0.1,0.1c0.1-0.1,0,0,0,0
	c-0.1,0.1-0.2,0.2-0.4,0.2c0,0-0.1,0-0.1,0c-0.1,0.1,0,0,0,0c-0.1,0-0.2,0.1-0.2,0.1c-0.1,0-0.2,0.1-0.3,0.1l0.1,0c-0.1,0,0,0,0.1,0
	c0.2,0.1,0.5,0.3,0.3,0.6c0,0,0-0.1,0-0.1c0-0.1,0-0.1,0,0c0,0,0,0,0-0.1c0.3-0.7,0.7-1.3,1-1.9c0.2-0.3,0.1-0.7-0.2-0.9
	S10.4,134.2,10.2,134.5L10.2,134.5z"/>
<path class="st13" d="M219.2,558.8l-35.8,55.5l17.9,8.3c0,0,24.6-57.2,33.7-51.2C244.1,577.5,219.2,558.8,219.2,558.8L219.2,558.8z"
	/>
<path class="st13" d="M388.7,579l21.4,62.5l17.6-8.9c0,0-29.6-54.8-19.3-58.1S388.7,579,388.7,579L388.7,579z"/>
<path class="st14" d="M183.4,614.3c0,0-33.1-32.4-45-19.8c-11.9,12.7,21.8,58.6,39.2,59.3c17.4,0.8,31.5-27.6,23.7-31.2"/>
<path class="st1" d="M183.4,614.3c0,0-33.1-32.4-45-19.8c-11.9,12.7,21.8,58.6,39.2,59.3c17.4,0.8,31.5-27.6,23.7-31.2"/>
<path class="st14" d="M410.4,638c0,0-46.3,2.4-45,19.7c1.3,17.3,57.8,23.7,70.2,11.4s1-41.9-6.9-38.6"/>
<path class="st1" d="M410.4,638c0,0-46.3,2.4-45,19.7c1.3,17.3,57.8,23.7,70.2,11.4s1-41.9-6.9-38.6"/>
<path class="st2" d="M509.8,359.2c0,0-15.3-119.9,59.4-153.1s45.1-35.6,76-10.7s38,55.8,19,93.8c-19,38-38,85.5-58.2,70
	c-20.2-15.5-36,27.4-14.4,43.4c21.6,15.9,31.1,42,16.8,48c-14.2,5.9-17.8,20.2-24.9,32c-7.1,11.9-35.7,27.9-35.7,27.9
	S576.1,453.2,509.8,359.2L509.8,359.2z"/>
</svg>
