<?xml version="1.0" encoding="utf-8"?>
<!-- Generator: Adobe Illustrator 28.3.0, SVG Export Plug-In . SVG Version: 6.00 Build 0)  -->
<svg version="1.1" id="Calque_1" xmlns="http://www.w3.org/2000/svg" xmlns:xlink="http://www.w3.org/1999/xlink" x="0px" y="0px"
	 viewBox="0 0 179 31" style="enable-background:new 0 0 179 31;" xml:space="preserve">
<style type="text/css">
	.st0{clip-path:url(#SVGID_00000073715414389810589970000012547587043577054622_);}
	.st1{fill:#343230;}
</style>
<g>
	<defs>
		<rect id="SVGID_1_" y="0" width="178.1" height="30.3"/>
	</defs>
	<clipPath id="SVGID_00000160176675401882310000000010839274640283342254_">
		<use xlink:href="#SVGID_1_"  style="overflow:visible;"/>
	</clipPath>
	<g style="clip-path:url(#SVGID_00000160176675401882310000000010839274640283342254_);">
		<path class="st1" d="M10.1,7.5c0,4.3-1,8.5-1.1,12.8c-0.1,2.1,0,4.3,0.7,6.3c0.8,2.6,2.9,3.5,5.5,3.7c1.4,0.1,2.5-1.2,2.5-2.5
			c0-1.4-1.1-2.4-2.5-2.5c-0.1,0-0.9-0.1-0.9-0.2c0,0,0.4,0.3,0.3,0.3c-0.1,0-0.4-1.9-0.4-2.2c-0.2-1.7-0.1-3.5,0.1-5.2
			c0.3-3.5,1-7,1-10.5C15.1,4.3,10.1,4.3,10.1,7.5L10.1,7.5z"/>
		<path class="st1" d="M2.5,13.4c5.6,0.7,11.4-0.4,16.9,0.7c1.3,0.2,2.7-0.4,3.1-1.8c0.3-1.2-0.4-2.8-1.8-3.1
			c-6-1.1-12.1-0.1-18.2-0.9C1.2,8.2,0,9.7,0,10.9C0,12.4,1.2,13.2,2.5,13.4L2.5,13.4z"/>
		<path class="st1" d="M31.2,15.9c4.6,0.8,10-0.1,12.3-4.7c1.1-2.2,1.6-5.5-0.9-6.9c-2.1-1.2-5-0.4-7.3-0.2
			c-1.2,0.1-2.5,0.2-3.7,0.6c-1.2,0.4-2.2,1-3.3,1.7c-2.1,1.4-4,2.9-4.8,5.4c-1.5,4.3-0.6,9.8,1.7,13.7c0.7,1.2,1.7,2.3,3,2.7
			c1.4,0.4,2.6-0.1,4-0.5c2.4-0.7,4.9-1,7.4-0.6c1.3,0.2,2.7-0.3,3.1-1.8c0.3-1.2-0.4-2.9-1.8-3.1c-3.8-0.6-7.5-0.3-11.2,1
			c-0.1,0-0.4,0.1-0.4,0.1c0,0,0.5,0.2,0.6,0.2c-0.1,0-0.2-0.2-0.3-0.3c-0.4-0.6-0.8-1.3-1-2c-0.5-1.5-0.8-3-0.8-4.5
			c0-1.3,0-3,0.8-4.1c0.8-1.1,2.5-2.1,3.7-2.8c1.4-0.7,2.9-0.6,4.4-0.8c0.9-0.1,1.9-0.2,2.8-0.2c0.2,0,0.4,0,0.6,0c1,0,0.2,0,0.2,0
			l0.1,0c0.6,0.2,0.3-0.2-0.9-1.3c0,0,0,0.5,0,0.2c-0.1,1.3-1.1,2.4-2.3,3c-1.4,0.7-3.1,0.7-4.6,0.4c-1.3-0.2-2.7,0.4-3.1,1.8
			C29.1,14.1,29.8,15.7,31.2,15.9L31.2,15.9z"/>
		<path class="st1" d="M49.5,5.8C49.2,9.2,49,12.6,48.9,16c-0.1,3.4-0.4,6.8,0.7,10c0.4,1.3,1.7,2.1,3.1,1.8
			c1.3-0.4,2.2-1.8,1.8-3.1c-0.9-2.8-0.5-6.1-0.5-9.1c0.1-3.3,0.3-6.6,0.6-9.8c0.1-1.3-1.2-2.5-2.5-2.5C50.6,3.3,49.7,4.5,49.5,5.8
			L49.5,5.8z"/>
		<path class="st1" d="M63,18.1c4.2,0.4,7.8-2.9,9.9-6.3c1.4-2.4,0.5-5-1.6-6.5c-1.6-1.2-4-1.6-5.9-1.6c-2.2,0-4.1,1-5.9,2.3
			c-0.9,0.7-1.7,1.3-2.4,2.2c-0.6,0.9-0.9,1.9-1,3c-0.6,3.9-1.1,8.7,1.8,11.8c1.5,1.7,3.8,2.3,6,2.5c2.3,0.3,4.7,0.3,7,0.2
			c1.4-0.1,2.5-1.1,2.5-2.5c0-1.3-1.1-2.6-2.5-2.5c-1.7,0.1-3.3,0.1-5,0c-0.6,0-1.3-0.1-1.9-0.1c0.4,0-0.4-0.1-0.5-0.1
			c-0.4-0.1-0.7-0.2-1.1-0.3c0.3,0.1-0.3-0.2-0.4-0.2s-0.2-0.1-0.3-0.2c0.3,0.2,0,0-0.1-0.1c-0.1-0.1-0.2-0.2-0.3-0.4
			c0,0,0.2,0.2,0,0C61.1,19.3,61,19.1,61,19c-0.2-0.4,0.1,0.5-0.1-0.2c-0.1-0.3-0.2-0.6-0.2-0.9c0-0.1,0-0.2-0.1-0.4
			c0,0.1,0,0.4,0-0.1c0-0.7,0-1.3,0-2c0-1.4,0-2.9,0.5-4.2c0,0,0.2-0.3,0.1-0.2c0.1-0.2,0.5-0.5,0.5-0.5c0.4-0.3,1.2-0.9,1.8-1.2
			c1-0.6,2-0.7,3-0.5c0.4,0.1,0.7,0.1,1.1,0.2c0.3,0.1,0.5,0.2,0.5,0.2c0.1,0.1,0.2,0.1,0.3,0.2c-0.3-0.2,0,0.1,0.1,0.1
			c-0.2-0.2,0.1-0.2,0.1,0.1c0-0.1,0-0.2,0-0.3c0,0.2,0.1-0.3,0.1-0.3c0,0.1-0.3,0.5-0.4,0.6c-0.2,0.2-0.5,0.7-0.5,0.8
			c-0.3,0.4-1,1.1-1.5,1.6c0,0-0.3,0.3-0.2,0.2c0.1-0.1-0.3,0.2-0.4,0.3c-0.2,0.1-0.3,0.2-0.5,0.3c0,0-0.4,0.2-0.2,0.1
			c-0.3,0.1-0.9,0.3-1,0.3c0.2,0-0.2,0-0.2,0c-0.3,0-0.5,0-0.8,0c-1.3-0.1-2.5,1.2-2.5,2.5C60.5,17.1,61.6,18,63,18.1L63,18.1z"/>
		<path class="st1" d="M84.5,3.9C82,5,80.2,7.5,80.6,10.3c0.4,2.8,2.7,4.9,5.4,5.8c2.5,0.8,5.4,0.7,8,0.6c1.4,0,2.9-0.3,3.9-1.5
			c1.1-1.3,1.3-2.8,1-4.4c-0.6-3.1-3.3-5.1-6-6.3c-1.2-0.5-2.7-0.4-3.4,0.9c-0.6,1.1-0.4,2.9,0.9,3.4C90.9,9,91.4,9.3,92,9.6
			c0.2,0.1,0.4,0.2,0.6,0.4c0.2,0.2,0.2,0.2,0,0c0.1,0.1,0.2,0.2,0.3,0.3c0.2,0.2,0.4,0.4,0.6,0.6c-0.3-0.3,0,0.1,0.1,0.2
			c0.1,0.1,0.1,0.2,0.2,0.4c-0.1-0.3-0.1-0.3,0,0c0,0.2,0.2,0.4,0.2,0.6c0-0.3,0-0.4,0-0.1c0,0.3,0,0.2,0-0.1c0,0.1-0.1,0.2-0.1,0.4
			c0-0.2,0.1-0.3,0.3-0.5c-0.2,0.3,0.2-0.1,0.3-0.2c-0.3,0.1-0.3,0.1,0.1,0c-0.1,0-0.3,0-0.4,0c-1.2,0-2.5,0-3.7,0
			c-0.6,0-1.2-0.1-1.8-0.1c-0.7-0.1,0.5,0.1-0.2,0c-0.3-0.1-0.6-0.1-0.9-0.2c-0.1,0-1-0.3-0.5-0.1c-0.2-0.1-0.4-0.2-0.6-0.3
			c-0.1-0.1-0.2-0.2-0.4-0.2c0.2,0.2,0.2,0.2,0,0c-0.1-0.1-0.2-0.2-0.3-0.3c-0.2-0.2-0.2-0.2-0.1-0.1c0.2,0.3-0.2-0.4-0.2-0.4
			c0.3,0.5-0.1-0.2-0.1-0.4c0,0.7,0-0.1,0.1-0.1c-0.1,0.3,0,0.4,0,0.1c0.1-0.3,0.1-0.2,0,0.1c0.1-0.1,0.5-0.7,0.1-0.3
			C85.8,9,85.9,8.9,86,8.8c0.2-0.2,0.2-0.2,0,0c0.1-0.1,0.2-0.2,0.3-0.2c0.2-0.1,0.5-0.3,0.7-0.4c1.2-0.6,1.6-2.4,0.9-3.4
			C87.1,3.6,85.8,3.3,84.5,3.9L84.5,3.9z"/>
		<path class="st1" d="M95.7,13.6c0,2,0,4,0,6c0,1,0,2.1,0,3.1c0,0.5,0,1,0,1.4c0,0.2,0,0.4,0,0.6c0,0.6,0-0.2,0,0
			c0,0.3-0.1,0.2,0-0.1c0.2-0.3,0.5-0.6,0.8-0.7l0.3,0c-0.1,0.1-1.2,0-1.4,0c-1,0-2,0-3,0.1c-0.4,0-0.8,0-1.3,0
			c-0.6,0,0.3,0.1-0.2,0c-0.1,0-0.7-0.3-0.2-0.1c-0.8-0.4-1.7-0.8-2.5-1.2c-1.2-0.6-2.8-0.4-3.4,0.9c-0.6,1.1-0.4,2.8,0.9,3.4
			c1.1,0.5,2.2,1.1,3.3,1.6c1.1,0.4,2.2,0.5,3.3,0.4c1.2,0,2.4,0,3.6-0.1c1.5,0,2.9-0.2,3.8-1.4c0.8-1,0.9-2.2,0.9-3.4
			c0-1.2,0-2.4,0-3.5c0-2.4,0-4.8,0-7.2c0-1.3-1.1-2.6-2.5-2.5C96.9,11.1,95.7,12.2,95.7,13.6L95.7,13.6z"/>
		<path class="st1" d="M110.8,25.4c-0.6-3.8-0.5-7.6-0.4-11.4c0.1-3.8,0.3-7.8,0.4-11.6h-5c-0.1,3.5-0.2,7-0.4,10.6
			c-0.1,2.9,4,3.2,4.9,0.7c0.4-1.2,0.8-2.4,1.3-3.5c0.3-0.6,0.7-1.7,1.3-1.9c0.9-0.3,2.5,0.1,3.3,0.4c0.8,0.3,1.4,0.9,1.8,1.7
			c0.6,1.2,2.3,1.5,3.4,0.9c1.2-0.7,1.5-2.2,0.9-3.4c-1.7-3.6-6.2-4.9-9.9-4.6c-4.4,0.4-5.8,5.5-7,9.1l4.9,0.7
			c0.1-3.5,0.2-7,0.4-10.6c0.1-3.2-4.9-3.2-5,0c-0.3,8.1-1.1,16.3,0.2,24.3c0.2,1.3,1.9,2.1,3.1,1.8C110.5,28.1,111,26.8,110.8,25.4
			L110.8,25.4z"/>
		<path class="st1" d="M130.3,7.2c1.4,0,2.9,0,4.3,0c1.1,0,1.8,0.3,2.5,1.1c1.5,1.6,1.9,3.9,1.8,5.9c0,2.9-1.1,5.8-1.1,8.7
			c0,2.9,2,6.2,5.4,6c1.4-0.1,2.5-1.1,2.5-2.5c0-1.3-1.1-2.6-2.5-2.5c-0.8,0-0.2,0-0.1,0c0.1,0,0.1,0.2-0.1-0.1
			c-0.2-0.3-0.2-0.9-0.2-1.4c0.1-1.3,0.4-2.7,0.6-4c0.4-2.9,0.7-5.9-0.2-8.8c-0.7-2.5-2.2-4.7-4.3-6.2c-2.6-1.7-5.9-1.2-8.8-1.2
			C127.1,2.2,127.1,7.2,130.3,7.2L130.3,7.2z"/>
		<path class="st1" d="M139.1,11.6c-2.6,0.3-5.1,0.6-7.6,1.1c-1.2,0.2-2.5,0.5-3.6,1.2c-1.3,0.8-2.1,1.9-2.6,3.3
			c-0.4,1.1-0.6,2.4-0.7,3.6c-0.2,1.4-0.3,2.9,0.4,4.1c0.6,1.1,1.8,1.8,2.9,2.4c1.1,0.5,2.2,0.9,3.4,1.1c2.6,0.5,5.4,0.4,7.9-0.6
			c1.2-0.5,2.2-1.7,1.8-3.1c-0.4-1.2-1.8-2.2-3.1-1.8c-0.4,0.1-0.8,0.3-1.2,0.4c-0.4,0.1-0.9,0.3-1.3,0.3c0,0,0.5,0,0.2,0
			c-0.1,0-0.2,0-0.3,0c-0.2,0-0.5,0-0.7,0c-0.4,0-0.9,0-1.3,0c-0.1,0-0.2,0-0.3,0c-0.3,0,0.2,0,0.2,0c-0.2,0-0.5-0.1-0.7-0.1
			c-0.4-0.1-0.8-0.2-1.3-0.3c-0.2-0.1-0.4-0.1-0.6-0.2c-0.5-0.2,0,0,0,0c-0.1,0-0.2-0.1-0.3-0.1c-0.4-0.2-0.8-0.4-1.1-0.6
			c-0.1-0.1-0.2-0.2,0,0c0.3,0.4-0.2-0.3,0.1,0.1c0.1,0.1,0.2,0.2,0.2,0.3c0,0.1,0,0.4,0,0.2c0.1-0.5,0-1,0.1-1.4
			c0-0.3,0-0.5,0.1-0.8c0-0.3,0,0.1,0,0.1c0-0.1,0-0.2,0.1-0.3c0.1-0.5,0.2-0.9,0.3-1.3c0.1-0.2,0.1-0.4,0.2-0.6
			c0.1-0.3-0.1,0.2-0.1,0.2c0,0,0.1-0.2,0.1-0.2c0,0,0.1-0.2,0.2-0.2c0,0-0.3,0.3-0.1,0.1c0,0,0.2-0.2,0.2-0.2c-0.1,0-0.3,0.3,0.1,0
			c0.2-0.2-0.1,0-0.2,0c0.1,0,0.2-0.1,0.3-0.1c0.2-0.1,0.4-0.1,0.6-0.2c0.5-0.1,1-0.2,1.5-0.4c1.1-0.2,2.2-0.4,3.4-0.6
			c0.1,0,0.2,0,0.3,0c0.4-0.1-0.4,0,0,0c0.3,0,0.5-0.1,0.8-0.1c0.6-0.1,1.2-0.1,1.9-0.2c1.3-0.1,2.6-1,2.5-2.5
			C141.6,12.8,140.5,11.4,139.1,11.6L139.1,11.6z"/>
		<path class="st1" d="M156.6,24.9c-0.8-3.1-1.1-6.2-0.8-9.4c0.1-1.5,0.4-3,0.8-4.5c0.3-1,0.6-2.1,1.3-2.7c0.1-0.1,0.4-0.2,0.1-0.1
			c0.6-0.2,0.2,0.1,0.1,0c-0.2-0.2-0.1,0,0,0.1c0.1,0.4,0.1,0.1,0.2,0.4c0.5,1.5,0.7,3.1,1,4.6c0.6,3.2,1.1,6.4,1.2,9.6
			c0,2.7,4.3,3.5,4.9,0.7c0.8-3.7,1.2-7.5,1.2-11.2c0-0.8-0.1-1.6,0-2.3c0-0.3,0-0.5,0.2-0.8c-0.1,0.2,0.3-0.3,0.1-0.1
			c0.1-0.1,0.6-0.3,0.4-0.2c0,0,0.8-0.1,0.5-0.1c0.6-0.1,1.2,0.1,1.8,0.4c1.1,0.5,2.3,1.2,2.8,2.4c0.5,1.2,0.6,2.7,0.7,4
			c0.3,3.4,0.1,6.9-0.6,10.3c-0.3,1.3,0.4,2.7,1.8,3.1c1.2,0.3,2.8-0.4,3.1-1.8c0.7-3.4,1-6.8,0.8-10.3c-0.1-3.2-0.3-6.8-2.4-9.4
			c-2.1-2.6-5.6-4.1-8.8-3.6c-1.4,0.2-2.8,0.9-3.7,2c-1.2,1.4-1.5,3.1-1.5,4.9c0,3.9-0.3,7.7-1,11.5l4.9,0.7c0-4.4-0.8-8.7-1.8-12.9
			c-0.4-1.6-0.6-3.4-1.6-4.8c-1.3-1.8-3.5-2.6-5.6-1.9c-4,1.3-4.9,6.2-5.4,9.9c-0.6,4.3-0.4,8.7,0.7,12.9
			C152.6,29.3,157.4,28,156.6,24.9L156.6,24.9z"/>
		<path class="st1" d="M155.4,13.9c-0.3-3.7-0.7-7.4-1.2-11c-0.1-0.7-0.2-1.3-0.7-1.8c-0.4-0.4-1.2-0.8-1.8-0.7
			c-1.2,0.1-2.7,1.1-2.5,2.5c0.5,3.7,0.9,7.4,1.2,11c0.1,1.3,1.1,2.6,2.5,2.5C154.2,16.3,155.5,15.3,155.4,13.9z"/>
	</g>
</g>
</svg>
