<?xml version="1.0" encoding="utf-8"?>
<!-- Generator: Adobe Illustrator 28.3.0, SVG Export Plug-In . SVG Version: 6.00 Build 0)  -->
<svg version="1.1" id="Calque_1" xmlns="http://www.w3.org/2000/svg" xmlns:xlink="http://www.w3.org/1999/xlink" x="0px" y="0px"
	 viewBox="0 0 156 34" style="enable-background:new 0 0 156 34;" xml:space="preserve">
<style type="text/css">
	.st0{clip-path:url(#SVGID_00000168823612125887283110000005432696691685830800_);}
	.st1{fill:#343230;}
</style>
<g>
	<defs>
		<rect id="SVGID_1_" y="0" width="155.6" height="34"/>
	</defs>
	<clipPath id="SVGID_00000178206787900345034250000013920140518483449736_">
		<use xlink:href="#SVGID_1_"  style="overflow:visible;"/>
	</clipPath>
	<g style="clip-path:url(#SVGID_00000178206787900345034250000013920140518483449736_);">
		<path class="st1" d="M9.7,6.4c-1.5,5-2.3,10.4-2.3,15.6c0.1,4.3,0.5,11,6,11.9c1.3,0.2,2.7-0.3,3.1-1.8c0.3-1.2-0.4-2.9-1.7-3.1
			c-1.5-0.2-1.9-1.6-2.1-2.9c-0.3-2-0.3-4-0.2-6c0.1-4.2,0.8-8.4,2.1-12.5C15.4,4.7,10.6,3.3,9.7,6.4L9.7,6.4z"/>
		<path class="st1" d="M2.5,14.8c5.6-0.1,11.2,0,16.8,0.4c1.4,0.1,2.5-1.2,2.5-2.5c0-1.4-1.1-2.4-2.5-2.5C13.7,9.8,8.1,9.7,2.5,9.8
			C1.1,9.9,0,11,0,12.3S1.1,14.9,2.5,14.8z"/>
		<path class="st1" d="M27.4,10.6l0,11.1c0,3.3-0.6,7.3,1.7,10c2,2.4,5.8,2.5,8.4,0.9c2.8-1.8,3.9-5.3,3.7-8.6l-4.7,1.3
			c1.1,2.5,2.6,5.2,5.2,6.5c3.3,1.5,6.8,0.2,9-2.5c4.6-5.6,3.8-13.5,3-20.2c-0.2-1.3-1-2.5-2.5-2.5c-1.2,0-2.7,1.2-2.5,2.5
			c0.6,5,1.6,11.2-1,15.8c-0.5,0.8-1.1,1.6-1.9,2.1c-0.7,0.4-1.3,0.5-1.9,0.2c-0.5-0.2-1.2-0.9-1.5-1.5c-0.6-0.9-1.1-2-1.6-3
			c-1-2.3-4.8-1.1-4.7,1.3c0.1,1.7-0.2,3.8-1.6,4.5c-0.5,0.3-1,0.3-1.6,0.1c0.3,0.1-0.2-0.3-0.1-0.1c0,0-0.2-0.3-0.2-0.2
			c-0.2-0.3-0.3-0.8-0.3-1.1c-0.1-1.1,0-2.4,0-3.5v-4.3c0-2.9,0-5.8,0-8.7C32.4,7.4,27.4,7.4,27.4,10.6L27.4,10.6z"/>
		<path class="st1" d="M60.9,11.8c-0.1,5.9-0.1,11.8-0.1,17.8c0,1.3,1.1,2.5,2.5,2.5c1.4,0,2.5-1.1,2.5-2.5
			c-0.1-5.9-0.1-11.8,0.1-17.8c0-1.4-1.2-2.5-2.5-2.5S61,10.4,60.9,11.8z"/>
		<path class="st1" d="M62.4,5.9c3.2,0,3.2-5,0-5C59.2,0.9,59.2,5.9,62.4,5.9z"/>
		<path class="st1" d="M74,4.9c-1.2,4.8-1.8,9.8-1.8,14.7c0,2.3,0.1,4.6,0.4,7s1,4.4,3,5.9c1.1,0.8,2.8,0.2,3.4-0.9
			c0.8-1.3,0.2-2.6-0.9-3.4c-0.3-0.2-0.4-1.2-0.5-1.5c-0.1-0.8-0.2-1.5-0.3-2.3c-0.2-2-0.2-4.1-0.2-6.1c0.1-4.1,0.6-8,1.6-12
			C79.6,3.1,74.7,1.8,74,4.9L74,4.9z"/>
		<path class="st1" d="M89.5,6c-0.8,3.9-1.4,7.9-1.9,11.9c-0.5,3.8-1.3,7.7,0.5,11.2c0.6,1.2,2.3,1.5,3.4,0.9
			c1.2-0.7,1.5-2.2,0.9-3.4c-0.6-1.2-0.5-2.7-0.4-4c0.2-1.6,0.4-3.2,0.6-4.8c0.5-3.5,1.1-7,1.7-10.5c0.2-1.3-0.4-2.7-1.8-3.1
			C91.3,3.9,89.8,4.6,89.5,6L89.5,6z"/>
		<path class="st1" d="M73,16.1c2-0.6,4.3-0.3,6.4-0.4c2.2,0,4.5,0,6.7,0c4.6,0,9.1,0,13.7-0.1c3.2,0,3.2-5,0-5
			c-4.7,0-9.4,0-14.2,0.1c-2.3,0-4.6,0-7,0s-4.8-0.2-7,0.5C68.7,12.3,70,17.1,73,16.1L73,16.1z"/>
		<path class="st1" d="M111.2,18.6c3,0.7,6.3,1.2,9.4,1.1c2.9-0.1,5.9-0.9,7.6-3.4c1.7-2.3,1.6-5.5,0.3-8c-1.3-2.5-3.9-4.2-6.6-4.8
			c-3-0.6-6-0.1-8.8,1c-2.8,1.1-5.8,2.5-7.3,5.4s-2.4,6.3-2.8,9.5c-0.3,2.8,0.3,5.8,2,8.1c2.1,2.9,5.4,3.8,8.9,4
			c3.9,0.2,7.7,0.2,11.6,0.4c3.2,0.1,3.2-4.9,0-5c-2.7-0.1-5.4-0.2-8.1-0.2c-2.2-0.1-4.7,0.2-6.8-0.7c-3.9-1.7-2.8-7-1.8-10.1
			c0.6-1.9,1-4.1,2.9-5.2c1.8-1.1,4-2,6.2-2.3c2.8-0.4,7.3,1.1,6.3,4.5c-0.4,1.6-2.5,1.9-4,1.9c-2.7,0.1-5.3-0.3-7.9-0.9
			C109.4,13.1,108.1,17.9,111.2,18.6L111.2,18.6z"/>
		<path class="st1" d="M140,30.9c-0.7-2.2-0.7-4.3-0.8-6.6s-0.1-4.7-0.1-7c0-4.8,0-9.6,0-14.5c0-3.3-4.8-3.2-5,0
			c-0.2,3.5-0.3,7-0.1,10.4c0.1,3,3.9,3.2,4.9,0.7c0.7-1.6,3.8-1.9,5.2-2.1c1.5-0.2,3-0.3,4.5-0.4c0.6,0,1.3-0.1,1.9-0.1
			c0.1,0,0.4,0.1,0.6,0.1c-0.3-0.1-0.5-0.6-0.2,0c0.6,1.2,2.3,1.5,3.4,0.9c1.2-0.7,1.5-2.2,0.9-3.4c-0.9-1.9-3-2.6-5-2.6
			c-2.3,0-4.6,0.3-6.9,0.6c-3.9,0.5-7.6,1.8-9.2,5.6l4.9,0.7c-0.2-3.5-0.1-7,0.1-10.4h-5c0,5,0,10,0,15c0,4.7-0.4,9.8,1,14.4
			C136.1,35.3,140.9,34,140,30.9L140,30.9z"/>
	</g>
</g>
</svg>
